ISO-10303-21;
HEADER;
/* Generated by software containing ST-Developer
 * from STEP Tools, Inc. (www.steptools.com) 
 */

FILE_DESCRIPTION(
/* description */ (''),
/* implementation_level */ '2;1');

FILE_NAME(
/* name */ 'PEC09-2320F-S0015.step',
/* time_stamp */ '2026-02-21T14:16:31+09:00',
/* author */ (''),
/* organization */ (''),
/* preprocessor_version */ 'ST-DEVELOPER v20.1',
/* originating_system */ 'Autodesk Translation Framework v14.24.0.0',
/* authorisation */ '');

FILE_SCHEMA (('AUTOMOTIVE_DESIGN { 1 0 10303 214 3 1 1 }'));
ENDSEC;

DATA;
#10=MECHANICAL_DESIGN_GEOMETRIC_PRESENTATION_REPRESENTATION('',(#766,#767,
#768,#769,#770,#771,#772,#773,#774,#775,#776,#777,#778,#779,#780,#781,#782,
#783,#784,#785,#786,#787,#788,#789,#790,#791,#792,#793,#794,#795,#796,#797,
#798,#799,#800),#1366);
#11=SHAPE_REPRESENTATION_RELATIONSHIP('SRR','None',#1373,#12);
#12=ADVANCED_BREP_SHAPE_REPRESENTATION('',(#13),#1365);
#13=MANIFOLD_SOLID_BREP('Body1',#849);
#14=(
BOUNDED_CURVE()
B_SPLINE_CURVE(2,(#1325,#1326,#1327),.UNSPECIFIED.,.F.,.F.)
B_SPLINE_CURVE_WITH_KNOTS((3,3),(1.27334943707045,1.44369845966195),
 .UNSPECIFIED.)
CURVE()
GEOMETRIC_REPRESENTATION_ITEM()
RATIONAL_B_SPLINE_CURVE((1.08094657368443,1.04588781380074,1.))
REPRESENTATION_ITEM('')
);
#15=(
BOUNDED_CURVE()
B_SPLINE_CURVE(2,(#1331,#1332,#1333),.UNSPECIFIED.,.F.,.F.)
B_SPLINE_CURVE_WITH_KNOTS((3,3),(0.,0.1703490225915),.UNSPECIFIED.)
CURVE()
GEOMETRIC_REPRESENTATION_ITEM()
RATIONAL_B_SPLINE_CURVE((1.,1.04588781380074,1.08094657368443))
REPRESENTATION_ITEM('')
);
#16=FACE_BOUND('',#121,.T.);
#17=FACE_BOUND('',#161,.T.);
#18=FACE_BOUND('',#165,.T.);
#19=FACE_BOUND('',#169,.T.);
#20=FACE_BOUND('',#170,.T.);
#21=FACE_BOUND('',#171,.T.);
#22=FACE_BOUND('',#172,.T.);
#23=FACE_BOUND('',#173,.T.);
#24=PLANE('',#868);
#25=PLANE('',#869);
#26=PLANE('',#870);
#27=PLANE('',#871);
#28=PLANE('',#872);
#29=PLANE('',#873);
#30=PLANE('',#874);
#31=PLANE('',#875);
#32=PLANE('',#876);
#33=PLANE('',#877);
#34=PLANE('',#878);
#35=PLANE('',#879);
#36=PLANE('',#880);
#37=PLANE('',#881);
#38=PLANE('',#882);
#39=PLANE('',#883);
#40=PLANE('',#884);
#41=PLANE('',#885);
#42=PLANE('',#886);
#43=PLANE('',#887);
#44=PLANE('',#888);
#45=PLANE('',#889);
#46=PLANE('',#890);
#47=PLANE('',#891);
#48=PLANE('',#892);
#49=PLANE('',#893);
#50=PLANE('',#894);
#51=PLANE('',#895);
#52=PLANE('',#896);
#53=PLANE('',#897);
#54=PLANE('',#898);
#55=PLANE('',#899);
#56=PLANE('',#900);
#57=PLANE('',#901);
#58=PLANE('',#902);
#59=PLANE('',#907);
#60=PLANE('',#908);
#61=PLANE('',#909);
#62=PLANE('',#911);
#63=PLANE('',#917);
#64=PLANE('',#918);
#65=PLANE('',#919);
#66=PLANE('',#920);
#67=CYLINDRICAL_SURFACE('',#866,3.125);
#68=CYLINDRICAL_SURFACE('',#914,3.);
#69=CYLINDRICAL_SURFACE('',#915,2.75);
#70=FACE_OUTER_BOUND('',#118,.T.);
#71=FACE_OUTER_BOUND('',#119,.T.);
#72=FACE_OUTER_BOUND('',#120,.T.);
#73=FACE_OUTER_BOUND('',#122,.T.);
#74=FACE_OUTER_BOUND('',#123,.T.);
#75=FACE_OUTER_BOUND('',#124,.T.);
#76=FACE_OUTER_BOUND('',#125,.T.);
#77=FACE_OUTER_BOUND('',#126,.T.);
#78=FACE_OUTER_BOUND('',#127,.T.);
#79=FACE_OUTER_BOUND('',#128,.T.);
#80=FACE_OUTER_BOUND('',#129,.T.);
#81=FACE_OUTER_BOUND('',#130,.T.);
#82=FACE_OUTER_BOUND('',#131,.T.);
#83=FACE_OUTER_BOUND('',#132,.T.);
#84=FACE_OUTER_BOUND('',#133,.T.);
#85=FACE_OUTER_BOUND('',#134,.T.);
#86=FACE_OUTER_BOUND('',#135,.T.);
#87=FACE_OUTER_BOUND('',#136,.T.);
#88=FACE_OUTER_BOUND('',#137,.T.);
#89=FACE_OUTER_BOUND('',#138,.T.);
#90=FACE_OUTER_BOUND('',#139,.T.);
#91=FACE_OUTER_BOUND('',#140,.T.);
#92=FACE_OUTER_BOUND('',#141,.T.);
#93=FACE_OUTER_BOUND('',#142,.T.);
#94=FACE_OUTER_BOUND('',#143,.T.);
#95=FACE_OUTER_BOUND('',#144,.T.);
#96=FACE_OUTER_BOUND('',#145,.T.);
#97=FACE_OUTER_BOUND('',#146,.T.);
#98=FACE_OUTER_BOUND('',#147,.T.);
#99=FACE_OUTER_BOUND('',#148,.T.);
#100=FACE_OUTER_BOUND('',#149,.T.);
#101=FACE_OUTER_BOUND('',#150,.T.);
#102=FACE_OUTER_BOUND('',#151,.T.);
#103=FACE_OUTER_BOUND('',#152,.T.);
#104=FACE_OUTER_BOUND('',#153,.T.);
#105=FACE_OUTER_BOUND('',#154,.T.);
#106=FACE_OUTER_BOUND('',#155,.T.);
#107=FACE_OUTER_BOUND('',#156,.T.);
#108=FACE_OUTER_BOUND('',#157,.T.);
#109=FACE_OUTER_BOUND('',#158,.T.);
#110=FACE_OUTER_BOUND('',#159,.T.);
#111=FACE_OUTER_BOUND('',#160,.T.);
#112=FACE_OUTER_BOUND('',#162,.T.);
#113=FACE_OUTER_BOUND('',#163,.T.);
#114=FACE_OUTER_BOUND('',#164,.T.);
#115=FACE_OUTER_BOUND('',#166,.T.);
#116=FACE_OUTER_BOUND('',#167,.T.);
#117=FACE_OUTER_BOUND('',#168,.T.);
#118=EDGE_LOOP('',(#550,#551,#552,#553));
#119=EDGE_LOOP('',(#554,#555,#556,#557));
#120=EDGE_LOOP('',(#558,#559,#560,#561,#562,#563));
#121=EDGE_LOOP('',(#564));
#122=EDGE_LOOP('',(#565,#566,#567));
#123=EDGE_LOOP('',(#568,#569,#570,#571));
#124=EDGE_LOOP('',(#572,#573,#574));
#125=EDGE_LOOP('',(#575,#576,#577,#578));
#126=EDGE_LOOP('',(#579,#580,#581,#582));
#127=EDGE_LOOP('',(#583,#584,#585,#586));
#128=EDGE_LOOP('',(#587,#588,#589,#590));
#129=EDGE_LOOP('',(#591,#592,#593,#594));
#130=EDGE_LOOP('',(#595,#596,#597,#598));
#131=EDGE_LOOP('',(#599,#600,#601,#602));
#132=EDGE_LOOP('',(#603,#604,#605,#606));
#133=EDGE_LOOP('',(#607,#608,#609,#610));
#134=EDGE_LOOP('',(#611,#612,#613,#614));
#135=EDGE_LOOP('',(#615,#616,#617,#618));
#136=EDGE_LOOP('',(#619,#620,#621,#622));
#137=EDGE_LOOP('',(#623,#624,#625,#626));
#138=EDGE_LOOP('',(#627,#628,#629,#630));
#139=EDGE_LOOP('',(#631,#632,#633,#634));
#140=EDGE_LOOP('',(#635,#636,#637,#638));
#141=EDGE_LOOP('',(#639,#640,#641,#642));
#142=EDGE_LOOP('',(#643,#644,#645,#646));
#143=EDGE_LOOP('',(#647,#648,#649,#650));
#144=EDGE_LOOP('',(#651,#652,#653,#654));
#145=EDGE_LOOP('',(#655,#656,#657,#658));
#146=EDGE_LOOP('',(#659,#660,#661,#662));
#147=EDGE_LOOP('',(#663,#664,#665,#666));
#148=EDGE_LOOP('',(#667,#668,#669,#670));
#149=EDGE_LOOP('',(#671,#672,#673,#674));
#150=EDGE_LOOP('',(#675,#676,#677,#678));
#151=EDGE_LOOP('',(#679,#680,#681,#682));
#152=EDGE_LOOP('',(#683,#684,#685,#686));
#153=EDGE_LOOP('',(#687,#688,#689,#690));
#154=EDGE_LOOP('',(#691,#692,#693,#694));
#155=EDGE_LOOP('',(#695,#696,#697,#698));
#156=EDGE_LOOP('',(#699,#700,#701,#702,#703));
#157=EDGE_LOOP('',(#704,#705));
#158=EDGE_LOOP('',(#706,#707,#708,#709,#710,#711));
#159=EDGE_LOOP('',(#712,#713));
#160=EDGE_LOOP('',(#714));
#161=EDGE_LOOP('',(#715));
#162=EDGE_LOOP('',(#716,#717,#718,#719,#720,#721,#722,#723));
#163=EDGE_LOOP('',(#724,#725,#726,#727));
#164=EDGE_LOOP('',(#728));
#165=EDGE_LOOP('',(#729));
#166=EDGE_LOOP('',(#730,#731,#732,#733));
#167=EDGE_LOOP('',(#734,#735,#736,#737));
#168=EDGE_LOOP('',(#738,#739,#740,#741,#742,#743));
#169=EDGE_LOOP('',(#744,#745,#746,#747));
#170=EDGE_LOOP('',(#748,#749,#750,#751));
#171=EDGE_LOOP('',(#752,#753,#754,#755));
#172=EDGE_LOOP('',(#756,#757,#758,#759));
#173=EDGE_LOOP('',(#760,#761,#762,#763));
#174=LINE('',#1139,#269);
#175=LINE('',#1144,#270);
#176=LINE('',#1148,#271);
#177=LINE('',#1150,#272);
#178=LINE('',#1152,#273);
#179=LINE('',#1154,#274);
#180=LINE('',#1156,#275);
#181=LINE('',#1157,#276);
#182=LINE('',#1161,#277);
#183=LINE('',#1163,#278);
#184=LINE('',#1164,#279);
#185=LINE('',#1168,#280);
#186=LINE('',#1169,#281);
#187=LINE('',#1170,#282);
#188=LINE('',#1174,#283);
#189=LINE('',#1176,#284);
#190=LINE('',#1177,#285);
#191=LINE('',#1181,#286);
#192=LINE('',#1182,#287);
#193=LINE('',#1183,#288);
#194=LINE('',#1185,#289);
#195=LINE('',#1186,#290);
#196=LINE('',#1188,#291);
#197=LINE('',#1189,#292);
#198=LINE('',#1191,#293);
#199=LINE('',#1192,#294);
#200=LINE('',#1194,#295);
#201=LINE('',#1196,#296);
#202=LINE('',#1200,#297);
#203=LINE('',#1202,#298);
#204=LINE('',#1204,#299);
#205=LINE('',#1205,#300);
#206=LINE('',#1208,#301);
#207=LINE('',#1210,#302);
#208=LINE('',#1211,#303);
#209=LINE('',#1214,#304);
#210=LINE('',#1216,#305);
#211=LINE('',#1217,#306);
#212=LINE('',#1219,#307);
#213=LINE('',#1220,#308);
#214=LINE('',#1225,#309);
#215=LINE('',#1227,#310);
#216=LINE('',#1229,#311);
#217=LINE('',#1230,#312);
#218=LINE('',#1233,#313);
#219=LINE('',#1235,#314);
#220=LINE('',#1236,#315);
#221=LINE('',#1239,#316);
#222=LINE('',#1241,#317);
#223=LINE('',#1242,#318);
#224=LINE('',#1244,#319);
#225=LINE('',#1245,#320);
#226=LINE('',#1250,#321);
#227=LINE('',#1252,#322);
#228=LINE('',#1254,#323);
#229=LINE('',#1255,#324);
#230=LINE('',#1258,#325);
#231=LINE('',#1260,#326);
#232=LINE('',#1261,#327);
#233=LINE('',#1264,#328);
#234=LINE('',#1266,#329);
#235=LINE('',#1267,#330);
#236=LINE('',#1269,#331);
#237=LINE('',#1270,#332);
#238=LINE('',#1275,#333);
#239=LINE('',#1277,#334);
#240=LINE('',#1279,#335);
#241=LINE('',#1280,#336);
#242=LINE('',#1283,#337);
#243=LINE('',#1285,#338);
#244=LINE('',#1286,#339);
#245=LINE('',#1289,#340);
#246=LINE('',#1291,#341);
#247=LINE('',#1292,#342);
#248=LINE('',#1294,#343);
#249=LINE('',#1295,#344);
#250=LINE('',#1300,#345);
#251=LINE('',#1302,#346);
#252=LINE('',#1304,#347);
#253=LINE('',#1305,#348);
#254=LINE('',#1308,#349);
#255=LINE('',#1310,#350);
#256=LINE('',#1311,#351);
#257=LINE('',#1314,#352);
#258=LINE('',#1316,#353);
#259=LINE('',#1317,#354);
#260=LINE('',#1319,#355);
#261=LINE('',#1320,#356);
#262=LINE('',#1338,#357);
#263=LINE('',#1341,#358);
#264=LINE('',#1343,#359);
#265=LINE('',#1344,#360);
#266=LINE('',#1353,#361);
#267=LINE('',#1356,#362);
#268=LINE('',#1360,#363);
#269=VECTOR('',#927,3.375);
#270=VECTOR('',#934,3.125);
#271=VECTOR('',#937,10.);
#272=VECTOR('',#938,10.);
#273=VECTOR('',#939,10.);
#274=VECTOR('',#940,10.);
#275=VECTOR('',#941,10.);
#276=VECTOR('',#942,10.);
#277=VECTOR('',#945,10.);
#278=VECTOR('',#946,10.);
#279=VECTOR('',#947,10.);
#280=VECTOR('',#950,10.);
#281=VECTOR('',#951,10.);
#282=VECTOR('',#952,10.);
#283=VECTOR('',#955,10.);
#284=VECTOR('',#956,10.);
#285=VECTOR('',#957,10.);
#286=VECTOR('',#960,10.);
#287=VECTOR('',#961,10.);
#288=VECTOR('',#962,10.);
#289=VECTOR('',#965,10.);
#290=VECTOR('',#966,10.);
#291=VECTOR('',#969,10.);
#292=VECTOR('',#970,10.);
#293=VECTOR('',#973,10.);
#294=VECTOR('',#974,10.);
#295=VECTOR('',#977,10.);
#296=VECTOR('',#980,10.);
#297=VECTOR('',#983,10.);
#298=VECTOR('',#984,10.);
#299=VECTOR('',#985,10.);
#300=VECTOR('',#986,10.);
#301=VECTOR('',#989,10.);
#302=VECTOR('',#990,10.);
#303=VECTOR('',#991,10.);
#304=VECTOR('',#994,10.);
#305=VECTOR('',#995,10.);
#306=VECTOR('',#996,10.);
#307=VECTOR('',#999,10.);
#308=VECTOR('',#1000,10.);
#309=VECTOR('',#1005,10.);
#310=VECTOR('',#1006,10.);
#311=VECTOR('',#1007,10.);
#312=VECTOR('',#1008,10.);
#313=VECTOR('',#1011,10.);
#314=VECTOR('',#1012,10.);
#315=VECTOR('',#1013,10.);
#316=VECTOR('',#1016,10.);
#317=VECTOR('',#1017,10.);
#318=VECTOR('',#1018,10.);
#319=VECTOR('',#1021,10.);
#320=VECTOR('',#1022,10.);
#321=VECTOR('',#1027,10.);
#322=VECTOR('',#1028,10.);
#323=VECTOR('',#1029,10.);
#324=VECTOR('',#1030,10.);
#325=VECTOR('',#1033,10.);
#326=VECTOR('',#1034,10.);
#327=VECTOR('',#1035,10.);
#328=VECTOR('',#1038,10.);
#329=VECTOR('',#1039,10.);
#330=VECTOR('',#1040,10.);
#331=VECTOR('',#1043,10.);
#332=VECTOR('',#1044,10.);
#333=VECTOR('',#1049,10.);
#334=VECTOR('',#1050,10.);
#335=VECTOR('',#1051,10.);
#336=VECTOR('',#1052,10.);
#337=VECTOR('',#1055,10.);
#338=VECTOR('',#1056,10.);
#339=VECTOR('',#1057,10.);
#340=VECTOR('',#1060,10.);
#341=VECTOR('',#1061,10.);
#342=VECTOR('',#1062,10.);
#343=VECTOR('',#1065,10.);
#344=VECTOR('',#1066,10.);
#345=VECTOR('',#1071,10.);
#346=VECTOR('',#1072,10.);
#347=VECTOR('',#1073,10.);
#348=VECTOR('',#1074,10.);
#349=VECTOR('',#1077,10.);
#350=VECTOR('',#1078,10.);
#351=VECTOR('',#1079,10.);
#352=VECTOR('',#1082,10.);
#353=VECTOR('',#1083,10.);
#354=VECTOR('',#1084,10.);
#355=VECTOR('',#1087,10.);
#356=VECTOR('',#1088,10.);
#357=VECTOR('',#1101,10.);
#358=VECTOR('',#1104,10.);
#359=VECTOR('',#1105,10.);
#360=VECTOR('',#1106,10.);
#361=VECTOR('',#1119,3.);
#362=VECTOR('',#1122,2.75);
#363=VECTOR('',#1129,10.);
#364=CIRCLE('',#864,3.625);
#365=CIRCLE('',#865,3.125);
#366=CIRCLE('',#867,3.125);
#367=CIRCLE('',#904,2.5);
#368=CIRCLE('',#905,3.);
#369=CIRCLE('',#906,3.);
#370=CIRCLE('',#910,3.);
#371=CIRCLE('',#912,3.);
#372=CIRCLE('',#913,2.75);
#373=CIRCLE('',#916,2.75);
#374=VERTEX_POINT('',#1136);
#375=VERTEX_POINT('',#1138);
#376=VERTEX_POINT('',#1142);
#377=VERTEX_POINT('',#1146);
#378=VERTEX_POINT('',#1147);
#379=VERTEX_POINT('',#1149);
#380=VERTEX_POINT('',#1151);
#381=VERTEX_POINT('',#1153);
#382=VERTEX_POINT('',#1155);
#383=VERTEX_POINT('',#1159);
#384=VERTEX_POINT('',#1160);
#385=VERTEX_POINT('',#1162);
#386=VERTEX_POINT('',#1166);
#387=VERTEX_POINT('',#1167);
#388=VERTEX_POINT('',#1172);
#389=VERTEX_POINT('',#1173);
#390=VERTEX_POINT('',#1175);
#391=VERTEX_POINT('',#1179);
#392=VERTEX_POINT('',#1180);
#393=VERTEX_POINT('',#1198);
#394=VERTEX_POINT('',#1199);
#395=VERTEX_POINT('',#1201);
#396=VERTEX_POINT('',#1203);
#397=VERTEX_POINT('',#1207);
#398=VERTEX_POINT('',#1209);
#399=VERTEX_POINT('',#1213);
#400=VERTEX_POINT('',#1215);
#401=VERTEX_POINT('',#1223);
#402=VERTEX_POINT('',#1224);
#403=VERTEX_POINT('',#1226);
#404=VERTEX_POINT('',#1228);
#405=VERTEX_POINT('',#1232);
#406=VERTEX_POINT('',#1234);
#407=VERTEX_POINT('',#1238);
#408=VERTEX_POINT('',#1240);
#409=VERTEX_POINT('',#1248);
#410=VERTEX_POINT('',#1249);
#411=VERTEX_POINT('',#1251);
#412=VERTEX_POINT('',#1253);
#413=VERTEX_POINT('',#1257);
#414=VERTEX_POINT('',#1259);
#415=VERTEX_POINT('',#1263);
#416=VERTEX_POINT('',#1265);
#417=VERTEX_POINT('',#1273);
#418=VERTEX_POINT('',#1274);
#419=VERTEX_POINT('',#1276);
#420=VERTEX_POINT('',#1278);
#421=VERTEX_POINT('',#1282);
#422=VERTEX_POINT('',#1284);
#423=VERTEX_POINT('',#1288);
#424=VERTEX_POINT('',#1290);
#425=VERTEX_POINT('',#1298);
#426=VERTEX_POINT('',#1299);
#427=VERTEX_POINT('',#1301);
#428=VERTEX_POINT('',#1303);
#429=VERTEX_POINT('',#1307);
#430=VERTEX_POINT('',#1309);
#431=VERTEX_POINT('',#1313);
#432=VERTEX_POINT('',#1315);
#433=VERTEX_POINT('',#1323);
#434=VERTEX_POINT('',#1324);
#435=VERTEX_POINT('',#1328);
#436=VERTEX_POINT('',#1330);
#437=VERTEX_POINT('',#1334);
#438=VERTEX_POINT('',#1340);
#439=VERTEX_POINT('',#1342);
#440=VERTEX_POINT('',#1348);
#441=VERTEX_POINT('',#1350);
#442=VERTEX_POINT('',#1355);
#443=EDGE_CURVE('',#374,#374,#364,.T.);
#444=EDGE_CURVE('',#374,#375,#174,.T.);
#445=EDGE_CURVE('',#375,#375,#365,.T.);
#446=EDGE_CURVE('',#376,#376,#366,.T.);
#447=EDGE_CURVE('',#376,#375,#175,.T.);
#448=EDGE_CURVE('',#377,#378,#176,.T.);
#449=EDGE_CURVE('',#379,#377,#177,.T.);
#450=EDGE_CURVE('',#380,#379,#178,.T.);
#451=EDGE_CURVE('',#380,#381,#179,.T.);
#452=EDGE_CURVE('',#382,#381,#180,.T.);
#453=EDGE_CURVE('',#378,#382,#181,.T.);
#454=EDGE_CURVE('',#383,#384,#182,.T.);
#455=EDGE_CURVE('',#385,#383,#183,.T.);
#456=EDGE_CURVE('',#384,#385,#184,.T.);
#457=EDGE_CURVE('',#386,#387,#185,.T.);
#458=EDGE_CURVE('',#387,#385,#186,.T.);
#459=EDGE_CURVE('',#383,#386,#187,.T.);
#460=EDGE_CURVE('',#388,#389,#188,.T.);
#461=EDGE_CURVE('',#390,#388,#189,.T.);
#462=EDGE_CURVE('',#389,#390,#190,.T.);
#463=EDGE_CURVE('',#391,#392,#191,.T.);
#464=EDGE_CURVE('',#392,#390,#192,.T.);
#465=EDGE_CURVE('',#388,#391,#193,.T.);
#466=EDGE_CURVE('',#378,#389,#194,.T.);
#467=EDGE_CURVE('',#390,#377,#195,.T.);
#468=EDGE_CURVE('',#389,#384,#196,.T.);
#469=EDGE_CURVE('',#385,#388,#197,.T.);
#470=EDGE_CURVE('',#381,#383,#198,.T.);
#471=EDGE_CURVE('',#384,#382,#199,.T.);
#472=EDGE_CURVE('',#391,#387,#200,.T.);
#473=EDGE_CURVE('',#386,#380,#201,.T.);
#474=EDGE_CURVE('',#393,#394,#202,.T.);
#475=EDGE_CURVE('',#393,#395,#203,.T.);
#476=EDGE_CURVE('',#396,#395,#204,.T.);
#477=EDGE_CURVE('',#394,#396,#205,.T.);
#478=EDGE_CURVE('',#394,#397,#206,.T.);
#479=EDGE_CURVE('',#398,#396,#207,.T.);
#480=EDGE_CURVE('',#397,#398,#208,.T.);
#481=EDGE_CURVE('',#397,#399,#209,.T.);
#482=EDGE_CURVE('',#400,#398,#210,.T.);
#483=EDGE_CURVE('',#399,#400,#211,.T.);
#484=EDGE_CURVE('',#399,#393,#212,.T.);
#485=EDGE_CURVE('',#395,#400,#213,.T.);
#486=EDGE_CURVE('',#401,#402,#214,.T.);
#487=EDGE_CURVE('',#401,#403,#215,.T.);
#488=EDGE_CURVE('',#404,#403,#216,.T.);
#489=EDGE_CURVE('',#402,#404,#217,.T.);
#490=EDGE_CURVE('',#402,#405,#218,.T.);
#491=EDGE_CURVE('',#406,#404,#219,.T.);
#492=EDGE_CURVE('',#405,#406,#220,.T.);
#493=EDGE_CURVE('',#405,#407,#221,.T.);
#494=EDGE_CURVE('',#408,#406,#222,.T.);
#495=EDGE_CURVE('',#407,#408,#223,.T.);
#496=EDGE_CURVE('',#407,#401,#224,.T.);
#497=EDGE_CURVE('',#403,#408,#225,.T.);
#498=EDGE_CURVE('',#409,#410,#226,.T.);
#499=EDGE_CURVE('',#409,#411,#227,.T.);
#500=EDGE_CURVE('',#412,#411,#228,.T.);
#501=EDGE_CURVE('',#410,#412,#229,.T.);
#502=EDGE_CURVE('',#410,#413,#230,.T.);
#503=EDGE_CURVE('',#414,#412,#231,.T.);
#504=EDGE_CURVE('',#413,#414,#232,.T.);
#505=EDGE_CURVE('',#413,#415,#233,.T.);
#506=EDGE_CURVE('',#416,#414,#234,.T.);
#507=EDGE_CURVE('',#415,#416,#235,.T.);
#508=EDGE_CURVE('',#415,#409,#236,.T.);
#509=EDGE_CURVE('',#411,#416,#237,.T.);
#510=EDGE_CURVE('',#417,#418,#238,.T.);
#511=EDGE_CURVE('',#417,#419,#239,.T.);
#512=EDGE_CURVE('',#420,#419,#240,.T.);
#513=EDGE_CURVE('',#418,#420,#241,.T.);
#514=EDGE_CURVE('',#418,#421,#242,.T.);
#515=EDGE_CURVE('',#422,#420,#243,.T.);
#516=EDGE_CURVE('',#421,#422,#244,.T.);
#517=EDGE_CURVE('',#421,#423,#245,.T.);
#518=EDGE_CURVE('',#424,#422,#246,.T.);
#519=EDGE_CURVE('',#423,#424,#247,.T.);
#520=EDGE_CURVE('',#423,#417,#248,.T.);
#521=EDGE_CURVE('',#419,#424,#249,.T.);
#522=EDGE_CURVE('',#425,#426,#250,.T.);
#523=EDGE_CURVE('',#425,#427,#251,.T.);
#524=EDGE_CURVE('',#428,#427,#252,.T.);
#525=EDGE_CURVE('',#426,#428,#253,.T.);
#526=EDGE_CURVE('',#426,#429,#254,.T.);
#527=EDGE_CURVE('',#430,#428,#255,.T.);
#528=EDGE_CURVE('',#429,#430,#256,.T.);
#529=EDGE_CURVE('',#429,#431,#257,.T.);
#530=EDGE_CURVE('',#432,#430,#258,.T.);
#531=EDGE_CURVE('',#431,#432,#259,.T.);
#532=EDGE_CURVE('',#431,#425,#260,.T.);
#533=EDGE_CURVE('',#427,#432,#261,.T.);
#534=EDGE_CURVE('',#433,#434,#14,.T.);
#535=EDGE_CURVE('',#434,#435,#367,.T.);
#536=EDGE_CURVE('',#435,#436,#15,.T.);
#537=EDGE_CURVE('',#436,#437,#368,.T.);
#538=EDGE_CURVE('',#437,#433,#369,.T.);
#539=EDGE_CURVE('',#434,#435,#262,.T.);
#540=EDGE_CURVE('',#438,#433,#263,.T.);
#541=EDGE_CURVE('',#438,#439,#264,.T.);
#542=EDGE_CURVE('',#436,#439,#265,.T.);
#543=EDGE_CURVE('',#439,#438,#370,.T.);
#544=EDGE_CURVE('',#440,#440,#371,.T.);
#545=EDGE_CURVE('',#441,#441,#372,.T.);
#546=EDGE_CURVE('',#437,#440,#266,.T.);
#547=EDGE_CURVE('',#441,#442,#267,.T.);
#548=EDGE_CURVE('',#442,#442,#373,.T.);
#549=EDGE_CURVE('',#379,#392,#268,.T.);
#550=ORIENTED_EDGE('',*,*,#443,.T.);
#551=ORIENTED_EDGE('',*,*,#444,.T.);
#552=ORIENTED_EDGE('',*,*,#445,.T.);
#553=ORIENTED_EDGE('',*,*,#444,.F.);
#554=ORIENTED_EDGE('',*,*,#446,.F.);
#555=ORIENTED_EDGE('',*,*,#447,.T.);
#556=ORIENTED_EDGE('',*,*,#445,.F.);
#557=ORIENTED_EDGE('',*,*,#447,.F.);
#558=ORIENTED_EDGE('',*,*,#448,.F.);
#559=ORIENTED_EDGE('',*,*,#449,.F.);
#560=ORIENTED_EDGE('',*,*,#450,.F.);
#561=ORIENTED_EDGE('',*,*,#451,.T.);
#562=ORIENTED_EDGE('',*,*,#452,.F.);
#563=ORIENTED_EDGE('',*,*,#453,.F.);
#564=ORIENTED_EDGE('',*,*,#443,.F.);
#565=ORIENTED_EDGE('',*,*,#454,.F.);
#566=ORIENTED_EDGE('',*,*,#455,.F.);
#567=ORIENTED_EDGE('',*,*,#456,.F.);
#568=ORIENTED_EDGE('',*,*,#457,.T.);
#569=ORIENTED_EDGE('',*,*,#458,.T.);
#570=ORIENTED_EDGE('',*,*,#455,.T.);
#571=ORIENTED_EDGE('',*,*,#459,.T.);
#572=ORIENTED_EDGE('',*,*,#460,.F.);
#573=ORIENTED_EDGE('',*,*,#461,.F.);
#574=ORIENTED_EDGE('',*,*,#462,.F.);
#575=ORIENTED_EDGE('',*,*,#463,.T.);
#576=ORIENTED_EDGE('',*,*,#464,.T.);
#577=ORIENTED_EDGE('',*,*,#461,.T.);
#578=ORIENTED_EDGE('',*,*,#465,.T.);
#579=ORIENTED_EDGE('',*,*,#448,.T.);
#580=ORIENTED_EDGE('',*,*,#466,.T.);
#581=ORIENTED_EDGE('',*,*,#462,.T.);
#582=ORIENTED_EDGE('',*,*,#467,.T.);
#583=ORIENTED_EDGE('',*,*,#460,.T.);
#584=ORIENTED_EDGE('',*,*,#468,.T.);
#585=ORIENTED_EDGE('',*,*,#456,.T.);
#586=ORIENTED_EDGE('',*,*,#469,.T.);
#587=ORIENTED_EDGE('',*,*,#452,.T.);
#588=ORIENTED_EDGE('',*,*,#470,.T.);
#589=ORIENTED_EDGE('',*,*,#454,.T.);
#590=ORIENTED_EDGE('',*,*,#471,.T.);
#591=ORIENTED_EDGE('',*,*,#465,.F.);
#592=ORIENTED_EDGE('',*,*,#469,.F.);
#593=ORIENTED_EDGE('',*,*,#458,.F.);
#594=ORIENTED_EDGE('',*,*,#472,.F.);
#595=ORIENTED_EDGE('',*,*,#459,.F.);
#596=ORIENTED_EDGE('',*,*,#470,.F.);
#597=ORIENTED_EDGE('',*,*,#451,.F.);
#598=ORIENTED_EDGE('',*,*,#473,.F.);
#599=ORIENTED_EDGE('',*,*,#474,.F.);
#600=ORIENTED_EDGE('',*,*,#475,.T.);
#601=ORIENTED_EDGE('',*,*,#476,.F.);
#602=ORIENTED_EDGE('',*,*,#477,.F.);
#603=ORIENTED_EDGE('',*,*,#478,.F.);
#604=ORIENTED_EDGE('',*,*,#477,.T.);
#605=ORIENTED_EDGE('',*,*,#479,.F.);
#606=ORIENTED_EDGE('',*,*,#480,.F.);
#607=ORIENTED_EDGE('',*,*,#481,.F.);
#608=ORIENTED_EDGE('',*,*,#480,.T.);
#609=ORIENTED_EDGE('',*,*,#482,.F.);
#610=ORIENTED_EDGE('',*,*,#483,.F.);
#611=ORIENTED_EDGE('',*,*,#484,.F.);
#612=ORIENTED_EDGE('',*,*,#483,.T.);
#613=ORIENTED_EDGE('',*,*,#485,.F.);
#614=ORIENTED_EDGE('',*,*,#475,.F.);
#615=ORIENTED_EDGE('',*,*,#485,.T.);
#616=ORIENTED_EDGE('',*,*,#482,.T.);
#617=ORIENTED_EDGE('',*,*,#479,.T.);
#618=ORIENTED_EDGE('',*,*,#476,.T.);
#619=ORIENTED_EDGE('',*,*,#486,.F.);
#620=ORIENTED_EDGE('',*,*,#487,.T.);
#621=ORIENTED_EDGE('',*,*,#488,.F.);
#622=ORIENTED_EDGE('',*,*,#489,.F.);
#623=ORIENTED_EDGE('',*,*,#490,.F.);
#624=ORIENTED_EDGE('',*,*,#489,.T.);
#625=ORIENTED_EDGE('',*,*,#491,.F.);
#626=ORIENTED_EDGE('',*,*,#492,.F.);
#627=ORIENTED_EDGE('',*,*,#493,.F.);
#628=ORIENTED_EDGE('',*,*,#492,.T.);
#629=ORIENTED_EDGE('',*,*,#494,.F.);
#630=ORIENTED_EDGE('',*,*,#495,.F.);
#631=ORIENTED_EDGE('',*,*,#496,.F.);
#632=ORIENTED_EDGE('',*,*,#495,.T.);
#633=ORIENTED_EDGE('',*,*,#497,.F.);
#634=ORIENTED_EDGE('',*,*,#487,.F.);
#635=ORIENTED_EDGE('',*,*,#497,.T.);
#636=ORIENTED_EDGE('',*,*,#494,.T.);
#637=ORIENTED_EDGE('',*,*,#491,.T.);
#638=ORIENTED_EDGE('',*,*,#488,.T.);
#639=ORIENTED_EDGE('',*,*,#498,.F.);
#640=ORIENTED_EDGE('',*,*,#499,.T.);
#641=ORIENTED_EDGE('',*,*,#500,.F.);
#642=ORIENTED_EDGE('',*,*,#501,.F.);
#643=ORIENTED_EDGE('',*,*,#502,.F.);
#644=ORIENTED_EDGE('',*,*,#501,.T.);
#645=ORIENTED_EDGE('',*,*,#503,.F.);
#646=ORIENTED_EDGE('',*,*,#504,.F.);
#647=ORIENTED_EDGE('',*,*,#505,.F.);
#648=ORIENTED_EDGE('',*,*,#504,.T.);
#649=ORIENTED_EDGE('',*,*,#506,.F.);
#650=ORIENTED_EDGE('',*,*,#507,.F.);
#651=ORIENTED_EDGE('',*,*,#508,.F.);
#652=ORIENTED_EDGE('',*,*,#507,.T.);
#653=ORIENTED_EDGE('',*,*,#509,.F.);
#654=ORIENTED_EDGE('',*,*,#499,.F.);
#655=ORIENTED_EDGE('',*,*,#509,.T.);
#656=ORIENTED_EDGE('',*,*,#506,.T.);
#657=ORIENTED_EDGE('',*,*,#503,.T.);
#658=ORIENTED_EDGE('',*,*,#500,.T.);
#659=ORIENTED_EDGE('',*,*,#510,.F.);
#660=ORIENTED_EDGE('',*,*,#511,.T.);
#661=ORIENTED_EDGE('',*,*,#512,.F.);
#662=ORIENTED_EDGE('',*,*,#513,.F.);
#663=ORIENTED_EDGE('',*,*,#514,.F.);
#664=ORIENTED_EDGE('',*,*,#513,.T.);
#665=ORIENTED_EDGE('',*,*,#515,.F.);
#666=ORIENTED_EDGE('',*,*,#516,.F.);
#667=ORIENTED_EDGE('',*,*,#517,.F.);
#668=ORIENTED_EDGE('',*,*,#516,.T.);
#669=ORIENTED_EDGE('',*,*,#518,.F.);
#670=ORIENTED_EDGE('',*,*,#519,.F.);
#671=ORIENTED_EDGE('',*,*,#520,.F.);
#672=ORIENTED_EDGE('',*,*,#519,.T.);
#673=ORIENTED_EDGE('',*,*,#521,.F.);
#674=ORIENTED_EDGE('',*,*,#511,.F.);
#675=ORIENTED_EDGE('',*,*,#521,.T.);
#676=ORIENTED_EDGE('',*,*,#518,.T.);
#677=ORIENTED_EDGE('',*,*,#515,.T.);
#678=ORIENTED_EDGE('',*,*,#512,.T.);
#679=ORIENTED_EDGE('',*,*,#522,.F.);
#680=ORIENTED_EDGE('',*,*,#523,.T.);
#681=ORIENTED_EDGE('',*,*,#524,.F.);
#682=ORIENTED_EDGE('',*,*,#525,.F.);
#683=ORIENTED_EDGE('',*,*,#526,.F.);
#684=ORIENTED_EDGE('',*,*,#525,.T.);
#685=ORIENTED_EDGE('',*,*,#527,.F.);
#686=ORIENTED_EDGE('',*,*,#528,.F.);
#687=ORIENTED_EDGE('',*,*,#529,.F.);
#688=ORIENTED_EDGE('',*,*,#528,.T.);
#689=ORIENTED_EDGE('',*,*,#530,.F.);
#690=ORIENTED_EDGE('',*,*,#531,.F.);
#691=ORIENTED_EDGE('',*,*,#532,.F.);
#692=ORIENTED_EDGE('',*,*,#531,.T.);
#693=ORIENTED_EDGE('',*,*,#533,.F.);
#694=ORIENTED_EDGE('',*,*,#523,.F.);
#695=ORIENTED_EDGE('',*,*,#533,.T.);
#696=ORIENTED_EDGE('',*,*,#530,.T.);
#697=ORIENTED_EDGE('',*,*,#527,.T.);
#698=ORIENTED_EDGE('',*,*,#524,.T.);
#699=ORIENTED_EDGE('',*,*,#534,.T.);
#700=ORIENTED_EDGE('',*,*,#535,.T.);
#701=ORIENTED_EDGE('',*,*,#536,.T.);
#702=ORIENTED_EDGE('',*,*,#537,.T.);
#703=ORIENTED_EDGE('',*,*,#538,.T.);
#704=ORIENTED_EDGE('',*,*,#535,.F.);
#705=ORIENTED_EDGE('',*,*,#539,.T.);
#706=ORIENTED_EDGE('',*,*,#536,.F.);
#707=ORIENTED_EDGE('',*,*,#539,.F.);
#708=ORIENTED_EDGE('',*,*,#534,.F.);
#709=ORIENTED_EDGE('',*,*,#540,.F.);
#710=ORIENTED_EDGE('',*,*,#541,.T.);
#711=ORIENTED_EDGE('',*,*,#542,.F.);
#712=ORIENTED_EDGE('',*,*,#541,.F.);
#713=ORIENTED_EDGE('',*,*,#543,.F.);
#714=ORIENTED_EDGE('',*,*,#544,.F.);
#715=ORIENTED_EDGE('',*,*,#545,.T.);
#716=ORIENTED_EDGE('',*,*,#537,.F.);
#717=ORIENTED_EDGE('',*,*,#542,.T.);
#718=ORIENTED_EDGE('',*,*,#543,.T.);
#719=ORIENTED_EDGE('',*,*,#540,.T.);
#720=ORIENTED_EDGE('',*,*,#538,.F.);
#721=ORIENTED_EDGE('',*,*,#546,.T.);
#722=ORIENTED_EDGE('',*,*,#544,.T.);
#723=ORIENTED_EDGE('',*,*,#546,.F.);
#724=ORIENTED_EDGE('',*,*,#545,.F.);
#725=ORIENTED_EDGE('',*,*,#547,.T.);
#726=ORIENTED_EDGE('',*,*,#548,.F.);
#727=ORIENTED_EDGE('',*,*,#547,.F.);
#728=ORIENTED_EDGE('',*,*,#446,.T.);
#729=ORIENTED_EDGE('',*,*,#548,.T.);
#730=ORIENTED_EDGE('',*,*,#464,.F.);
#731=ORIENTED_EDGE('',*,*,#549,.F.);
#732=ORIENTED_EDGE('',*,*,#449,.T.);
#733=ORIENTED_EDGE('',*,*,#467,.F.);
#734=ORIENTED_EDGE('',*,*,#466,.F.);
#735=ORIENTED_EDGE('',*,*,#453,.T.);
#736=ORIENTED_EDGE('',*,*,#471,.F.);
#737=ORIENTED_EDGE('',*,*,#468,.F.);
#738=ORIENTED_EDGE('',*,*,#463,.F.);
#739=ORIENTED_EDGE('',*,*,#472,.T.);
#740=ORIENTED_EDGE('',*,*,#457,.F.);
#741=ORIENTED_EDGE('',*,*,#473,.T.);
#742=ORIENTED_EDGE('',*,*,#450,.T.);
#743=ORIENTED_EDGE('',*,*,#549,.T.);
#744=ORIENTED_EDGE('',*,*,#474,.T.);
#745=ORIENTED_EDGE('',*,*,#478,.T.);
#746=ORIENTED_EDGE('',*,*,#481,.T.);
#747=ORIENTED_EDGE('',*,*,#484,.T.);
#748=ORIENTED_EDGE('',*,*,#486,.T.);
#749=ORIENTED_EDGE('',*,*,#490,.T.);
#750=ORIENTED_EDGE('',*,*,#493,.T.);
#751=ORIENTED_EDGE('',*,*,#496,.T.);
#752=ORIENTED_EDGE('',*,*,#498,.T.);
#753=ORIENTED_EDGE('',*,*,#502,.T.);
#754=ORIENTED_EDGE('',*,*,#505,.T.);
#755=ORIENTED_EDGE('',*,*,#508,.T.);
#756=ORIENTED_EDGE('',*,*,#510,.T.);
#757=ORIENTED_EDGE('',*,*,#514,.T.);
#758=ORIENTED_EDGE('',*,*,#517,.T.);
#759=ORIENTED_EDGE('',*,*,#520,.T.);
#760=ORIENTED_EDGE('',*,*,#522,.T.);
#761=ORIENTED_EDGE('',*,*,#526,.T.);
#762=ORIENTED_EDGE('',*,*,#529,.T.);
#763=ORIENTED_EDGE('',*,*,#532,.T.);
#764=CONICAL_SURFACE('',#863,3.375,0.785398163397448);
#765=CONICAL_SURFACE('',#903,2.75,0.78539816339745);
#766=STYLED_ITEM('',(#1383),#801);
#767=STYLED_ITEM('',(#1383),#802);
#768=STYLED_ITEM('',(#1384),#813);
#769=STYLED_ITEM('',(#1384),#814);
#770=STYLED_ITEM('',(#1384),#815);
#771=STYLED_ITEM('',(#1384),#816);
#772=STYLED_ITEM('',(#1384),#817);
#773=STYLED_ITEM('',(#1384),#818);
#774=STYLED_ITEM('',(#1384),#819);
#775=STYLED_ITEM('',(#1384),#820);
#776=STYLED_ITEM('',(#1384),#821);
#777=STYLED_ITEM('',(#1384),#823);
#778=STYLED_ITEM('',(#1384),#824);
#779=STYLED_ITEM('',(#1384),#825);
#780=STYLED_ITEM('',(#1384),#826);
#781=STYLED_ITEM('',(#1384),#827);
#782=STYLED_ITEM('',(#1384),#828);
#783=STYLED_ITEM('',(#1384),#829);
#784=STYLED_ITEM('',(#1384),#830);
#785=STYLED_ITEM('',(#1384),#831);
#786=STYLED_ITEM('',(#1384),#832);
#787=STYLED_ITEM('',(#1384),#833);
#788=STYLED_ITEM('',(#1384),#834);
#789=STYLED_ITEM('',(#1384),#835);
#790=STYLED_ITEM('',(#1384),#836);
#791=STYLED_ITEM('',(#1384),#837);
#792=STYLED_ITEM('',(#1383),#838);
#793=STYLED_ITEM('',(#1383),#839);
#794=STYLED_ITEM('',(#1383),#840);
#795=STYLED_ITEM('',(#1383),#841);
#796=STYLED_ITEM('',(#1383),#842);
#797=STYLED_ITEM('',(#1383),#843);
#798=STYLED_ITEM('',(#1383),#844);
#799=STYLED_ITEM('',(#1383),#845);
#800=STYLED_ITEM('',(#1382),#13);
#801=ADVANCED_FACE('',(#70),#764,.T.);
#802=ADVANCED_FACE('',(#71),#67,.T.);
#803=ADVANCED_FACE('',(#72,#16),#24,.T.);
#804=ADVANCED_FACE('',(#73),#25,.T.);
#805=ADVANCED_FACE('',(#74),#26,.T.);
#806=ADVANCED_FACE('',(#75),#27,.T.);
#807=ADVANCED_FACE('',(#76),#28,.T.);
#808=ADVANCED_FACE('',(#77),#29,.T.);
#809=ADVANCED_FACE('',(#78),#30,.T.);
#810=ADVANCED_FACE('',(#79),#31,.T.);
#811=ADVANCED_FACE('',(#80),#32,.T.);
#812=ADVANCED_FACE('',(#81),#33,.T.);
#813=ADVANCED_FACE('',(#82),#34,.T.);
#814=ADVANCED_FACE('',(#83),#35,.T.);
#815=ADVANCED_FACE('',(#84),#36,.T.);
#816=ADVANCED_FACE('',(#85),#37,.T.);
#817=ADVANCED_FACE('',(#86),#38,.T.);
#818=ADVANCED_FACE('',(#87),#39,.T.);
#819=ADVANCED_FACE('',(#88),#40,.T.);
#820=ADVANCED_FACE('',(#89),#41,.T.);
#821=ADVANCED_FACE('',(#90),#42,.T.);
#822=ADVANCED_FACE('',(#91),#43,.T.);
#823=ADVANCED_FACE('',(#92),#44,.T.);
#824=ADVANCED_FACE('',(#93),#45,.T.);
#825=ADVANCED_FACE('',(#94),#46,.T.);
#826=ADVANCED_FACE('',(#95),#47,.T.);
#827=ADVANCED_FACE('',(#96),#48,.T.);
#828=ADVANCED_FACE('',(#97),#49,.T.);
#829=ADVANCED_FACE('',(#98),#50,.T.);
#830=ADVANCED_FACE('',(#99),#51,.T.);
#831=ADVANCED_FACE('',(#100),#52,.T.);
#832=ADVANCED_FACE('',(#101),#53,.T.);
#833=ADVANCED_FACE('',(#102),#54,.T.);
#834=ADVANCED_FACE('',(#103),#55,.T.);
#835=ADVANCED_FACE('',(#104),#56,.T.);
#836=ADVANCED_FACE('',(#105),#57,.T.);
#837=ADVANCED_FACE('',(#106),#58,.T.);
#838=ADVANCED_FACE('',(#107),#765,.T.);
#839=ADVANCED_FACE('',(#108),#59,.T.);
#840=ADVANCED_FACE('',(#109),#60,.F.);
#841=ADVANCED_FACE('',(#110),#61,.T.);
#842=ADVANCED_FACE('',(#111,#17),#62,.F.);
#843=ADVANCED_FACE('',(#112),#68,.T.);
#844=ADVANCED_FACE('',(#113),#69,.T.);
#845=ADVANCED_FACE('',(#114,#18),#63,.T.);
#846=ADVANCED_FACE('',(#115),#64,.T.);
#847=ADVANCED_FACE('',(#116),#65,.T.);
#848=ADVANCED_FACE('',(#117,#19,#20,#21,#22,#23),#66,.F.);
#849=CLOSED_SHELL('',(#801,#802,#803,#804,#805,#806,#807,#808,#809,#810,
#811,#812,#813,#814,#815,#816,#817,#818,#819,#820,#821,#822,#823,#824,#825,
#826,#827,#828,#829,#830,#831,#832,#833,#834,#835,#836,#837,#838,#839,#840,
#841,#842,#843,#844,#845,#846,#847,#848));
#850=DERIVED_UNIT_ELEMENT(#852,1.);
#851=DERIVED_UNIT_ELEMENT(#1368,-3.);
#852=(
MASS_UNIT()
NAMED_UNIT(*)
SI_UNIT(.KILO.,.GRAM.)
);
#853=DERIVED_UNIT((#850,#851));
#854=MEASURE_REPRESENTATION_ITEM('density measure',
POSITIVE_RATIO_MEASURE(7850.),#853);
#855=PROPERTY_DEFINITION_REPRESENTATION(#860,#857);
#856=PROPERTY_DEFINITION_REPRESENTATION(#861,#858);
#857=REPRESENTATION('material name',(#859),#1365);
#858=REPRESENTATION('density',(#854),#1365);
#859=DESCRIPTIVE_REPRESENTATION_ITEM('Steel','Steel');
#860=PROPERTY_DEFINITION('material property','material name',#1375);
#861=PROPERTY_DEFINITION('material property','density of part',#1375);
#862=AXIS2_PLACEMENT_3D('',#1134,#921,#922);
#863=AXIS2_PLACEMENT_3D('',#1135,#923,#924);
#864=AXIS2_PLACEMENT_3D('',#1137,#925,#926);
#865=AXIS2_PLACEMENT_3D('',#1140,#928,#929);
#866=AXIS2_PLACEMENT_3D('',#1141,#930,#931);
#867=AXIS2_PLACEMENT_3D('',#1143,#932,#933);
#868=AXIS2_PLACEMENT_3D('',#1145,#935,#936);
#869=AXIS2_PLACEMENT_3D('',#1158,#943,#944);
#870=AXIS2_PLACEMENT_3D('',#1165,#948,#949);
#871=AXIS2_PLACEMENT_3D('',#1171,#953,#954);
#872=AXIS2_PLACEMENT_3D('',#1178,#958,#959);
#873=AXIS2_PLACEMENT_3D('',#1184,#963,#964);
#874=AXIS2_PLACEMENT_3D('',#1187,#967,#968);
#875=AXIS2_PLACEMENT_3D('',#1190,#971,#972);
#876=AXIS2_PLACEMENT_3D('',#1193,#975,#976);
#877=AXIS2_PLACEMENT_3D('',#1195,#978,#979);
#878=AXIS2_PLACEMENT_3D('',#1197,#981,#982);
#879=AXIS2_PLACEMENT_3D('',#1206,#987,#988);
#880=AXIS2_PLACEMENT_3D('',#1212,#992,#993);
#881=AXIS2_PLACEMENT_3D('',#1218,#997,#998);
#882=AXIS2_PLACEMENT_3D('',#1221,#1001,#1002);
#883=AXIS2_PLACEMENT_3D('',#1222,#1003,#1004);
#884=AXIS2_PLACEMENT_3D('',#1231,#1009,#1010);
#885=AXIS2_PLACEMENT_3D('',#1237,#1014,#1015);
#886=AXIS2_PLACEMENT_3D('',#1243,#1019,#1020);
#887=AXIS2_PLACEMENT_3D('',#1246,#1023,#1024);
#888=AXIS2_PLACEMENT_3D('',#1247,#1025,#1026);
#889=AXIS2_PLACEMENT_3D('',#1256,#1031,#1032);
#890=AXIS2_PLACEMENT_3D('',#1262,#1036,#1037);
#891=AXIS2_PLACEMENT_3D('',#1268,#1041,#1042);
#892=AXIS2_PLACEMENT_3D('',#1271,#1045,#1046);
#893=AXIS2_PLACEMENT_3D('',#1272,#1047,#1048);
#894=AXIS2_PLACEMENT_3D('',#1281,#1053,#1054);
#895=AXIS2_PLACEMENT_3D('',#1287,#1058,#1059);
#896=AXIS2_PLACEMENT_3D('',#1293,#1063,#1064);
#897=AXIS2_PLACEMENT_3D('',#1296,#1067,#1068);
#898=AXIS2_PLACEMENT_3D('',#1297,#1069,#1070);
#899=AXIS2_PLACEMENT_3D('',#1306,#1075,#1076);
#900=AXIS2_PLACEMENT_3D('',#1312,#1080,#1081);
#901=AXIS2_PLACEMENT_3D('',#1318,#1085,#1086);
#902=AXIS2_PLACEMENT_3D('',#1321,#1089,#1090);
#903=AXIS2_PLACEMENT_3D('',#1322,#1091,#1092);
#904=AXIS2_PLACEMENT_3D('',#1329,#1093,#1094);
#905=AXIS2_PLACEMENT_3D('',#1335,#1095,#1096);
#906=AXIS2_PLACEMENT_3D('',#1336,#1097,#1098);
#907=AXIS2_PLACEMENT_3D('',#1337,#1099,#1100);
#908=AXIS2_PLACEMENT_3D('',#1339,#1102,#1103);
#909=AXIS2_PLACEMENT_3D('',#1345,#1107,#1108);
#910=AXIS2_PLACEMENT_3D('',#1346,#1109,#1110);
#911=AXIS2_PLACEMENT_3D('',#1347,#1111,#1112);
#912=AXIS2_PLACEMENT_3D('',#1349,#1113,#1114);
#913=AXIS2_PLACEMENT_3D('',#1351,#1115,#1116);
#914=AXIS2_PLACEMENT_3D('',#1352,#1117,#1118);
#915=AXIS2_PLACEMENT_3D('',#1354,#1120,#1121);
#916=AXIS2_PLACEMENT_3D('',#1357,#1123,#1124);
#917=AXIS2_PLACEMENT_3D('',#1358,#1125,#1126);
#918=AXIS2_PLACEMENT_3D('',#1359,#1127,#1128);
#919=AXIS2_PLACEMENT_3D('',#1361,#1130,#1131);
#920=AXIS2_PLACEMENT_3D('',#1362,#1132,#1133);
#921=DIRECTION('axis',(0.,0.,1.));
#922=DIRECTION('refdir',(1.,0.,0.));
#923=DIRECTION('center_axis',(-1.,0.,0.));
#924=DIRECTION('ref_axis',(0.,1.,0.));
#925=DIRECTION('center_axis',(1.,0.,0.));
#926=DIRECTION('ref_axis',(0.,1.,0.));
#927=DIRECTION('',(0.707106781186548,0.707106781186547,-8.65956056235493E-17));
#928=DIRECTION('center_axis',(-1.,0.,0.));
#929=DIRECTION('ref_axis',(0.,1.,0.));
#930=DIRECTION('center_axis',(1.,0.,0.));
#931=DIRECTION('ref_axis',(0.,1.,0.));
#932=DIRECTION('center_axis',(1.,0.,0.));
#933=DIRECTION('ref_axis',(0.,1.,0.));
#934=DIRECTION('',(-1.,0.,0.));
#935=DIRECTION('center_axis',(1.,0.,0.));
#936=DIRECTION('ref_axis',(0.,1.,0.));
#937=DIRECTION('',(0.,0.707106781186547,0.707106781186548));
#938=DIRECTION('',(0.,0.,1.));
#939=DIRECTION('',(0.,-1.,0.));
#940=DIRECTION('',(0.,0.,1.));
#941=DIRECTION('',(0.,0.707106781186547,-0.707106781186548));
#942=DIRECTION('',(0.,1.,0.));
#943=DIRECTION('center_axis',(-0.577350269189626,0.577350269189626,0.577350269189625));
#944=DIRECTION('ref_axis',(0.707106781186547,0.,0.707106781186548));
#945=DIRECTION('',(0.,-0.707106781186547,0.707106781186548));
#946=DIRECTION('',(0.707106781186547,0.707106781186547,0.));
#947=DIRECTION('',(-0.707106781186547,-7.85046229341887E-16,-0.707106781186547));
#948=DIRECTION('center_axis',(-0.707106781186548,0.707106781186548,0.));
#949=DIRECTION('ref_axis',(0.,0.,1.));
#950=DIRECTION('',(-0.707106781186548,-0.707106781186548,0.));
#951=DIRECTION('',(0.,0.,1.));
#952=DIRECTION('',(0.,0.,-1.));
#953=DIRECTION('center_axis',(-0.577350269189626,-0.577350269189626,0.577350269189626));
#954=DIRECTION('ref_axis',(0.707106781186547,0.,0.707106781186547));
#955=DIRECTION('',(0.707106781186547,-1.57009245868377E-15,0.707106781186547));
#956=DIRECTION('',(-0.707106781186548,0.707106781186547,0.));
#957=DIRECTION('',(0.,-0.707106781186547,-0.707106781186548));
#958=DIRECTION('center_axis',(-0.707106781186547,-0.707106781186548,0.));
#959=DIRECTION('ref_axis',(0.,0.,1.));
#960=DIRECTION('',(0.707106781186548,-0.707106781186547,0.));
#961=DIRECTION('',(0.,0.,1.));
#962=DIRECTION('',(0.,0.,-1.));
#963=DIRECTION('center_axis',(0.,-0.707106781186548,0.707106781186547));
#964=DIRECTION('ref_axis',(1.,0.,0.));
#965=DIRECTION('',(-1.,0.,0.));
#966=DIRECTION('',(1.,0.,0.));
#967=DIRECTION('center_axis',(-0.707106781186548,-3.23730403852325E-16,
0.707106781186548));
#968=DIRECTION('ref_axis',(0.707106781186548,0.,0.707106781186548));
#969=DIRECTION('',(-4.57823927680477E-16,1.,0.));
#970=DIRECTION('',(4.57823927680477E-16,-1.,0.));
#971=DIRECTION('center_axis',(0.,0.707106781186548,0.707106781186547));
#972=DIRECTION('ref_axis',(1.,0.,0.));
#973=DIRECTION('',(-1.,0.,0.));
#974=DIRECTION('',(1.,0.,0.));
#975=DIRECTION('center_axis',(-1.,-4.57823927680477E-16,0.));
#976=DIRECTION('ref_axis',(4.57823927680477E-16,-1.,0.));
#977=DIRECTION('',(-4.57823927680477E-16,1.,0.));
#978=DIRECTION('center_axis',(0.,1.,0.));
#979=DIRECTION('ref_axis',(-1.,0.,0.));
#980=DIRECTION('',(1.,0.,0.));
#981=DIRECTION('center_axis',(1.,0.,0.));
#982=DIRECTION('ref_axis',(0.,-1.,0.));
#983=DIRECTION('',(0.,1.,0.));
#984=DIRECTION('',(0.,0.,-1.));
#985=DIRECTION('',(0.,-1.,0.));
#986=DIRECTION('',(0.,0.,-1.));
#987=DIRECTION('center_axis',(0.,1.,0.));
#988=DIRECTION('ref_axis',(1.,0.,0.));
#989=DIRECTION('',(-1.,0.,0.));
#990=DIRECTION('',(1.,0.,0.));
#991=DIRECTION('',(0.,0.,-1.));
#992=DIRECTION('center_axis',(-1.,0.,0.));
#993=DIRECTION('ref_axis',(0.,1.,0.));
#994=DIRECTION('',(0.,-1.,0.));
#995=DIRECTION('',(0.,1.,0.));
#996=DIRECTION('',(0.,0.,-1.));
#997=DIRECTION('center_axis',(0.,-1.,0.));
#998=DIRECTION('ref_axis',(-1.,0.,0.));
#999=DIRECTION('',(1.,0.,0.));
#1000=DIRECTION('',(-1.,0.,0.));
#1001=DIRECTION('center_axis',(0.,0.,-1.));
#1002=DIRECTION('ref_axis',(-1.,0.,0.));
#1003=DIRECTION('center_axis',(1.,0.,0.));
#1004=DIRECTION('ref_axis',(0.,-1.,0.));
#1005=DIRECTION('',(0.,1.,0.));
#1006=DIRECTION('',(0.,0.,-1.));
#1007=DIRECTION('',(0.,-1.,0.));
#1008=DIRECTION('',(0.,0.,-1.));
#1009=DIRECTION('center_axis',(0.,1.,0.));
#1010=DIRECTION('ref_axis',(1.,0.,0.));
#1011=DIRECTION('',(-1.,0.,0.));
#1012=DIRECTION('',(1.,0.,0.));
#1013=DIRECTION('',(0.,0.,-1.));
#1014=DIRECTION('center_axis',(-1.,0.,0.));
#1015=DIRECTION('ref_axis',(0.,1.,0.));
#1016=DIRECTION('',(0.,-1.,0.));
#1017=DIRECTION('',(0.,1.,0.));
#1018=DIRECTION('',(0.,0.,-1.));
#1019=DIRECTION('center_axis',(0.,-1.,0.));
#1020=DIRECTION('ref_axis',(-1.,0.,0.));
#1021=DIRECTION('',(1.,0.,0.));
#1022=DIRECTION('',(-1.,0.,0.));
#1023=DIRECTION('center_axis',(0.,0.,-1.));
#1024=DIRECTION('ref_axis',(-1.,0.,0.));
#1025=DIRECTION('center_axis',(1.,0.,0.));
#1026=DIRECTION('ref_axis',(0.,-1.,0.));
#1027=DIRECTION('',(0.,1.,0.));
#1028=DIRECTION('',(0.,0.,-1.));
#1029=DIRECTION('',(0.,-1.,0.));
#1030=DIRECTION('',(0.,0.,-1.));
#1031=DIRECTION('center_axis',(0.,1.,0.));
#1032=DIRECTION('ref_axis',(1.,0.,0.));
#1033=DIRECTION('',(-1.,0.,0.));
#1034=DIRECTION('',(1.,0.,0.));
#1035=DIRECTION('',(0.,0.,-1.));
#1036=DIRECTION('center_axis',(-1.,0.,0.));
#1037=DIRECTION('ref_axis',(0.,1.,0.));
#1038=DIRECTION('',(0.,-1.,0.));
#1039=DIRECTION('',(0.,1.,0.));
#1040=DIRECTION('',(0.,0.,-1.));
#1041=DIRECTION('center_axis',(0.,-1.,0.));
#1042=DIRECTION('ref_axis',(-1.,0.,0.));
#1043=DIRECTION('',(1.,0.,0.));
#1044=DIRECTION('',(-1.,0.,0.));
#1045=DIRECTION('center_axis',(0.,0.,-1.));
#1046=DIRECTION('ref_axis',(-1.,0.,0.));
#1047=DIRECTION('center_axis',(1.,0.,0.));
#1048=DIRECTION('ref_axis',(0.,-1.,0.));
#1049=DIRECTION('',(0.,1.,0.));
#1050=DIRECTION('',(0.,0.,-1.));
#1051=DIRECTION('',(0.,-1.,0.));
#1052=DIRECTION('',(0.,0.,-1.));
#1053=DIRECTION('center_axis',(0.,1.,0.));
#1054=DIRECTION('ref_axis',(1.,0.,0.));
#1055=DIRECTION('',(-1.,0.,0.));
#1056=DIRECTION('',(1.,0.,0.));
#1057=DIRECTION('',(0.,0.,-1.));
#1058=DIRECTION('center_axis',(-1.,0.,0.));
#1059=DIRECTION('ref_axis',(0.,1.,0.));
#1060=DIRECTION('',(0.,-1.,0.));
#1061=DIRECTION('',(0.,1.,0.));
#1062=DIRECTION('',(0.,0.,-1.));
#1063=DIRECTION('center_axis',(0.,-1.,0.));
#1064=DIRECTION('ref_axis',(-1.,0.,0.));
#1065=DIRECTION('',(1.,0.,0.));
#1066=DIRECTION('',(-1.,0.,0.));
#1067=DIRECTION('center_axis',(0.,0.,-1.));
#1068=DIRECTION('ref_axis',(-1.,0.,0.));
#1069=DIRECTION('center_axis',(1.,0.,0.));
#1070=DIRECTION('ref_axis',(0.,-1.,0.));
#1071=DIRECTION('',(0.,1.,0.));
#1072=DIRECTION('',(0.,0.,-1.));
#1073=DIRECTION('',(0.,-1.,0.));
#1074=DIRECTION('',(0.,0.,-1.));
#1075=DIRECTION('center_axis',(0.,1.,0.));
#1076=DIRECTION('ref_axis',(1.,0.,0.));
#1077=DIRECTION('',(-1.,0.,0.));
#1078=DIRECTION('',(1.,0.,0.));
#1079=DIRECTION('',(0.,0.,-1.));
#1080=DIRECTION('center_axis',(-1.,0.,0.));
#1081=DIRECTION('ref_axis',(0.,1.,0.));
#1082=DIRECTION('',(0.,-1.,0.));
#1083=DIRECTION('',(0.,1.,0.));
#1084=DIRECTION('',(0.,0.,-1.));
#1085=DIRECTION('center_axis',(0.,-1.,0.));
#1086=DIRECTION('ref_axis',(-1.,0.,0.));
#1087=DIRECTION('',(1.,0.,0.));
#1088=DIRECTION('',(-1.,0.,0.));
#1089=DIRECTION('center_axis',(0.,0.,-1.));
#1090=DIRECTION('ref_axis',(-1.,0.,0.));
#1091=DIRECTION('center_axis',(-1.,0.,0.));
#1092=DIRECTION('ref_axis',(0.,6.12323399573677E-17,-1.));
#1093=DIRECTION('center_axis',(-1.,0.,0.));
#1094=DIRECTION('ref_axis',(0.,1.,0.));
#1095=DIRECTION('center_axis',(1.,0.,0.));
#1096=DIRECTION('ref_axis',(0.,1.,0.));
#1097=DIRECTION('center_axis',(1.,0.,0.));
#1098=DIRECTION('ref_axis',(0.,1.,0.));
#1099=DIRECTION('center_axis',(1.,0.,0.));
#1100=DIRECTION('ref_axis',(0.,1.,0.));
#1101=DIRECTION('',(0.,-1.,0.));
#1102=DIRECTION('center_axis',(0.,0.,-1.));
#1103=DIRECTION('ref_axis',(0.,-1.,0.));
#1104=DIRECTION('',(1.,0.,0.));
#1105=DIRECTION('',(0.,-1.,0.));
#1106=DIRECTION('',(-1.,0.,0.));
#1107=DIRECTION('center_axis',(1.,0.,0.));
#1108=DIRECTION('ref_axis',(0.,1.,0.));
#1109=DIRECTION('center_axis',(-1.,0.,0.));
#1110=DIRECTION('ref_axis',(0.,1.,0.));
#1111=DIRECTION('center_axis',(1.,0.,0.));
#1112=DIRECTION('ref_axis',(0.,1.,0.));
#1113=DIRECTION('center_axis',(1.,0.,0.));
#1114=DIRECTION('ref_axis',(0.,1.,0.));
#1115=DIRECTION('center_axis',(1.,0.,0.));
#1116=DIRECTION('ref_axis',(0.,1.,0.));
#1117=DIRECTION('center_axis',(1.,0.,0.));
#1118=DIRECTION('ref_axis',(0.,1.,0.));
#1119=DIRECTION('',(-1.,0.,0.));
#1120=DIRECTION('center_axis',(1.,0.,0.));
#1121=DIRECTION('ref_axis',(0.,1.,0.));
#1122=DIRECTION('',(-1.,0.,0.));
#1123=DIRECTION('center_axis',(-1.,0.,0.));
#1124=DIRECTION('ref_axis',(0.,1.,0.));
#1125=DIRECTION('center_axis',(1.,0.,0.));
#1126=DIRECTION('ref_axis',(0.,1.,0.));
#1127=DIRECTION('center_axis',(0.,-1.,0.));
#1128=DIRECTION('ref_axis',(1.,0.,0.));
#1129=DIRECTION('',(-1.,0.,0.));
#1130=DIRECTION('center_axis',(0.,0.,1.));
#1131=DIRECTION('ref_axis',(1.,0.,0.));
#1132=DIRECTION('center_axis',(0.,0.,1.));
#1133=DIRECTION('ref_axis',(1.,0.,0.));
#1134=CARTESIAN_POINT('',(0.,0.,0.));
#1135=CARTESIAN_POINT('Origin',(6.9,-3.9801020972289E-16,6.5));
#1136=CARTESIAN_POINT('',(6.65,-3.625,6.5));
#1137=CARTESIAN_POINT('Origin',(6.65,-3.9801020972289E-16,6.5));
#1138=CARTESIAN_POINT('',(7.15,-3.125,6.5));
#1139=CARTESIAN_POINT('',(6.9,-3.375,6.5));
#1140=CARTESIAN_POINT('Origin',(7.15,-3.9801020972289E-16,6.5));
#1141=CARTESIAN_POINT('Origin',(6.65,-3.9801020972289E-16,6.5));
#1142=CARTESIAN_POINT('',(13.65,-3.125,6.5));
#1143=CARTESIAN_POINT('Origin',(13.65,-3.9801020972289E-16,6.5));
#1144=CARTESIAN_POINT('',(6.65,-3.125,6.5));
#1145=CARTESIAN_POINT('Origin',(6.65,-4.85,0.));
#1146=CARTESIAN_POINT('',(6.65,-4.85,10.85));
#1147=CARTESIAN_POINT('',(6.65,-4.35,11.35));
#1148=CARTESIAN_POINT('',(6.65,-7.4375,8.2625));
#1149=CARTESIAN_POINT('',(6.65,-4.85,0.));
#1150=CARTESIAN_POINT('',(6.65,-4.85,0.));
#1151=CARTESIAN_POINT('',(6.65,4.85,0.));
#1152=CARTESIAN_POINT('',(6.65,4.85,0.));
#1153=CARTESIAN_POINT('',(6.65,4.85,10.85));
#1154=CARTESIAN_POINT('',(6.65,4.85,0.));
#1155=CARTESIAN_POINT('',(6.65,4.35,11.35));
#1156=CARTESIAN_POINT('',(6.65,5.0125,10.6875));
#1157=CARTESIAN_POINT('',(6.65,4.85,11.35));
#1158=CARTESIAN_POINT('Origin',(-6.65,4.35,10.85));
#1159=CARTESIAN_POINT('',(-6.15,4.85,10.85));
#1160=CARTESIAN_POINT('',(-6.15,4.35,11.35));
#1161=CARTESIAN_POINT('',(-6.15,4.85,10.85));
#1162=CARTESIAN_POINT('',(-6.65,4.35,10.85));
#1163=CARTESIAN_POINT('',(-6.65,4.35,10.85));
#1164=CARTESIAN_POINT('',(-6.15,4.35,11.35));
#1165=CARTESIAN_POINT('Origin',(-6.4,4.6,0.));
#1166=CARTESIAN_POINT('',(-6.15,4.85,0.));
#1167=CARTESIAN_POINT('',(-6.65,4.35,0.));
#1168=CARTESIAN_POINT('',(-5.95,5.05,0.));
#1169=CARTESIAN_POINT('',(-6.65,4.35,0.));
#1170=CARTESIAN_POINT('',(-6.15,4.85,0.));
#1171=CARTESIAN_POINT('Origin',(-6.15,-4.85,10.85));
#1172=CARTESIAN_POINT('',(-6.65,-4.35,10.85));
#1173=CARTESIAN_POINT('',(-6.15,-4.35,11.35));
#1174=CARTESIAN_POINT('',(-6.65,-4.35,10.85));
#1175=CARTESIAN_POINT('',(-6.15,-4.85,10.85));
#1176=CARTESIAN_POINT('',(-6.15,-4.85,10.85));
#1177=CARTESIAN_POINT('',(-6.15,-4.35,11.35));
#1178=CARTESIAN_POINT('Origin',(-6.4,-4.6,0.));
#1179=CARTESIAN_POINT('',(-6.65,-4.35,0.));
#1180=CARTESIAN_POINT('',(-6.15,-4.85,0.));
#1181=CARTESIAN_POINT('',(-5.95,-5.05,0.));
#1182=CARTESIAN_POINT('',(-6.15,-4.85,0.));
#1183=CARTESIAN_POINT('',(-6.65,-4.35,0.));
#1184=CARTESIAN_POINT('Origin',(-3.325,-4.6,11.1));
#1185=CARTESIAN_POINT('',(-3.325,-4.35,11.35));
#1186=CARTESIAN_POINT('',(-3.325,-4.85,10.85));
#1187=CARTESIAN_POINT('Origin',(-6.4,2.425,11.1));
#1188=CARTESIAN_POINT('',(-6.15,2.425,11.35));
#1189=CARTESIAN_POINT('',(-6.65,2.425,10.85));
#1190=CARTESIAN_POINT('Origin',(3.325,4.6,11.1));
#1191=CARTESIAN_POINT('',(3.325,4.85,10.85));
#1192=CARTESIAN_POINT('',(3.325,4.35,11.35));
#1193=CARTESIAN_POINT('Origin',(-6.65,4.85,0.));
#1194=CARTESIAN_POINT('',(-6.65,-4.85,0.));
#1195=CARTESIAN_POINT('Origin',(6.65,4.85,0.));
#1196=CARTESIAN_POINT('',(-6.65,4.85,0.));
#1197=CARTESIAN_POINT('Origin',(1.75000098887773,2.95,0.));
#1198=CARTESIAN_POINT('',(1.75000098887773,2.05,0.));
#1199=CARTESIAN_POINT('',(1.75000098887773,2.95,0.));
#1200=CARTESIAN_POINT('',(1.75000098887773,1.475,0.));
#1201=CARTESIAN_POINT('',(1.75000098887773,2.05,-3.5));
#1202=CARTESIAN_POINT('',(1.75000098887773,2.05,0.));
#1203=CARTESIAN_POINT('',(1.75000098887773,2.95,-3.5));
#1204=CARTESIAN_POINT('',(1.75000098887773,2.05,-3.5));
#1205=CARTESIAN_POINT('',(1.75000098887773,2.95,0.));
#1206=CARTESIAN_POINT('Origin',(1.55000098887773,2.95,0.));
#1207=CARTESIAN_POINT('',(1.55000098887773,2.95,0.));
#1208=CARTESIAN_POINT('',(0.775000494438865,2.95,0.));
#1209=CARTESIAN_POINT('',(1.55000098887773,2.95,-3.5));
#1210=CARTESIAN_POINT('',(1.75000098887773,2.95,-3.5));
#1211=CARTESIAN_POINT('',(1.55000098887773,2.95,0.));
#1212=CARTESIAN_POINT('Origin',(1.55000098887773,2.05,0.));
#1213=CARTESIAN_POINT('',(1.55000098887773,2.05,0.));
#1214=CARTESIAN_POINT('',(1.55000098887773,1.025,0.));
#1215=CARTESIAN_POINT('',(1.55000098887773,2.05,-3.5));
#1216=CARTESIAN_POINT('',(1.55000098887773,2.95,-3.5));
#1217=CARTESIAN_POINT('',(1.55000098887773,2.05,0.));
#1218=CARTESIAN_POINT('Origin',(1.75000098887773,2.05,0.));
#1219=CARTESIAN_POINT('',(0.875000494438865,2.05,0.));
#1220=CARTESIAN_POINT('',(1.55000098887773,2.05,-3.5));
#1221=CARTESIAN_POINT('Origin',(1.65000098887773,2.5,-3.5));
#1222=CARTESIAN_POINT('Origin',(-4.5,-2.05,0.));
#1223=CARTESIAN_POINT('',(-4.5,-2.95,0.));
#1224=CARTESIAN_POINT('',(-4.5,-2.05,0.));
#1225=CARTESIAN_POINT('',(-4.5,-1.025,0.));
#1226=CARTESIAN_POINT('',(-4.5,-2.95,-3.5));
#1227=CARTESIAN_POINT('',(-4.5,-2.95,0.));
#1228=CARTESIAN_POINT('',(-4.5,-2.05,-3.5));
#1229=CARTESIAN_POINT('',(-4.5,-2.95,-3.5));
#1230=CARTESIAN_POINT('',(-4.5,-2.05,0.));
#1231=CARTESIAN_POINT('Origin',(-4.7,-2.05,0.));
#1232=CARTESIAN_POINT('',(-4.7,-2.05,0.));
#1233=CARTESIAN_POINT('',(-2.35,-2.05,0.));
#1234=CARTESIAN_POINT('',(-4.7,-2.05,-3.5));
#1235=CARTESIAN_POINT('',(-4.5,-2.05,-3.5));
#1236=CARTESIAN_POINT('',(-4.7,-2.05,0.));
#1237=CARTESIAN_POINT('Origin',(-4.7,-2.95,0.));
#1238=CARTESIAN_POINT('',(-4.7,-2.95,0.));
#1239=CARTESIAN_POINT('',(-4.7,-1.475,0.));
#1240=CARTESIAN_POINT('',(-4.7,-2.95,-3.5));
#1241=CARTESIAN_POINT('',(-4.7,-2.05,-3.5));
#1242=CARTESIAN_POINT('',(-4.7,-2.95,0.));
#1243=CARTESIAN_POINT('Origin',(-4.5,-2.95,0.));
#1244=CARTESIAN_POINT('',(-2.25,-2.95,0.));
#1245=CARTESIAN_POINT('',(-4.7,-2.95,-3.5));
#1246=CARTESIAN_POINT('Origin',(-4.6,-2.5,-3.5));
#1247=CARTESIAN_POINT('Origin',(1.75000098887773,0.449999999999999,0.));
#1248=CARTESIAN_POINT('',(1.75000098887773,-0.450000000000002,0.));
#1249=CARTESIAN_POINT('',(1.75000098887773,0.449999999999999,0.));
#1250=CARTESIAN_POINT('',(1.75000098887773,0.225,0.));
#1251=CARTESIAN_POINT('',(1.75000098887773,-0.450000000000002,-3.5));
#1252=CARTESIAN_POINT('',(1.75000098887773,-0.450000000000002,0.));
#1253=CARTESIAN_POINT('',(1.75000098887773,0.449999999999999,-3.5));
#1254=CARTESIAN_POINT('',(1.75000098887773,-0.450000000000002,-3.5));
#1255=CARTESIAN_POINT('',(1.75000098887773,0.449999999999999,0.));
#1256=CARTESIAN_POINT('Origin',(1.55000098887773,0.449999999999999,0.));
#1257=CARTESIAN_POINT('',(1.55000098887773,0.449999999999999,0.));
#1258=CARTESIAN_POINT('',(0.775000494438865,0.449999999999999,0.));
#1259=CARTESIAN_POINT('',(1.55000098887773,0.449999999999999,-3.5));
#1260=CARTESIAN_POINT('',(1.75000098887773,0.449999999999999,-3.5));
#1261=CARTESIAN_POINT('',(1.55000098887773,0.449999999999999,0.));
#1262=CARTESIAN_POINT('Origin',(1.55000098887773,-0.450000000000002,0.));
#1263=CARTESIAN_POINT('',(1.55000098887773,-0.450000000000002,0.));
#1264=CARTESIAN_POINT('',(1.55000098887773,-0.225000000000001,0.));
#1265=CARTESIAN_POINT('',(1.55000098887773,-0.450000000000002,-3.5));
#1266=CARTESIAN_POINT('',(1.55000098887773,0.449999999999999,-3.5));
#1267=CARTESIAN_POINT('',(1.55000098887773,-0.450000000000002,0.));
#1268=CARTESIAN_POINT('Origin',(1.75000098887773,-0.450000000000002,0.));
#1269=CARTESIAN_POINT('',(0.875000494438865,-0.450000000000002,0.));
#1270=CARTESIAN_POINT('',(1.55000098887773,-0.450000000000002,-3.5));
#1271=CARTESIAN_POINT('Origin',(1.65000098887773,-1.87350135405495E-15,
-3.5));
#1272=CARTESIAN_POINT('Origin',(-4.5,2.95,0.));
#1273=CARTESIAN_POINT('',(-4.5,2.05,0.));
#1274=CARTESIAN_POINT('',(-4.5,2.95,0.));
#1275=CARTESIAN_POINT('',(-4.5,1.475,0.));
#1276=CARTESIAN_POINT('',(-4.5,2.05,-3.5));
#1277=CARTESIAN_POINT('',(-4.5,2.05,0.));
#1278=CARTESIAN_POINT('',(-4.5,2.95,-3.5));
#1279=CARTESIAN_POINT('',(-4.5,2.05,-3.5));
#1280=CARTESIAN_POINT('',(-4.5,2.95,0.));
#1281=CARTESIAN_POINT('Origin',(-4.7,2.95,0.));
#1282=CARTESIAN_POINT('',(-4.7,2.95,0.));
#1283=CARTESIAN_POINT('',(-2.35,2.95,0.));
#1284=CARTESIAN_POINT('',(-4.7,2.95,-3.5));
#1285=CARTESIAN_POINT('',(-4.5,2.95,-3.5));
#1286=CARTESIAN_POINT('',(-4.7,2.95,0.));
#1287=CARTESIAN_POINT('Origin',(-4.7,2.05,0.));
#1288=CARTESIAN_POINT('',(-4.7,2.05,0.));
#1289=CARTESIAN_POINT('',(-4.7,1.025,0.));
#1290=CARTESIAN_POINT('',(-4.7,2.05,-3.5));
#1291=CARTESIAN_POINT('',(-4.7,2.95,-3.5));
#1292=CARTESIAN_POINT('',(-4.7,2.05,0.));
#1293=CARTESIAN_POINT('Origin',(-4.5,2.05,0.));
#1294=CARTESIAN_POINT('',(-2.25,2.05,0.));
#1295=CARTESIAN_POINT('',(-4.7,2.05,-3.5));
#1296=CARTESIAN_POINT('Origin',(-4.6,2.5,-3.5));
#1297=CARTESIAN_POINT('Origin',(1.75000098887773,-2.05,0.));
#1298=CARTESIAN_POINT('',(1.75000098887773,-2.95,0.));
#1299=CARTESIAN_POINT('',(1.75000098887773,-2.05,0.));
#1300=CARTESIAN_POINT('',(1.75000098887773,-1.025,0.));
#1301=CARTESIAN_POINT('',(1.75000098887773,-2.95,-3.5));
#1302=CARTESIAN_POINT('',(1.75000098887773,-2.95,0.));
#1303=CARTESIAN_POINT('',(1.75000098887773,-2.05,-3.5));
#1304=CARTESIAN_POINT('',(1.75000098887773,-2.95,-3.5));
#1305=CARTESIAN_POINT('',(1.75000098887773,-2.05,0.));
#1306=CARTESIAN_POINT('Origin',(1.55000098887773,-2.05,0.));
#1307=CARTESIAN_POINT('',(1.55000098887773,-2.05,0.));
#1308=CARTESIAN_POINT('',(0.775000494438865,-2.05,0.));
#1309=CARTESIAN_POINT('',(1.55000098887773,-2.05,-3.5));
#1310=CARTESIAN_POINT('',(1.75000098887773,-2.05,-3.5));
#1311=CARTESIAN_POINT('',(1.55000098887773,-2.05,0.));
#1312=CARTESIAN_POINT('Origin',(1.55000098887773,-2.95,0.));
#1313=CARTESIAN_POINT('',(1.55000098887773,-2.95,0.));
#1314=CARTESIAN_POINT('',(1.55000098887773,-1.475,0.));
#1315=CARTESIAN_POINT('',(1.55000098887773,-2.95,-3.5));
#1316=CARTESIAN_POINT('',(1.55000098887773,-2.05,-3.5));
#1317=CARTESIAN_POINT('',(1.55000098887773,-2.95,0.));
#1318=CARTESIAN_POINT('Origin',(1.75000098887773,-2.95,0.));
#1319=CARTESIAN_POINT('',(0.875000494438865,-2.95,0.));
#1320=CARTESIAN_POINT('',(1.55000098887773,-2.95,-3.5));
#1321=CARTESIAN_POINT('Origin',(1.65000098887773,-2.5,-3.5));
#1322=CARTESIAN_POINT('Origin',(26.4,-3.9801020972289E-16,6.5));
#1323=CARTESIAN_POINT('',(26.15,2.59807621135332,8.));
#1324=CARTESIAN_POINT('',(26.65,2.,8.));
#1325=CARTESIAN_POINT('Ctrl Pts',(26.15,2.59807621135332,8.));
#1326=CARTESIAN_POINT('Ctrl Pts',(26.4325177413248,2.27185282334382,8.));
#1327=CARTESIAN_POINT('Ctrl Pts',(26.65,2.,8.));
#1328=CARTESIAN_POINT('',(26.65,-2.,8.));
#1329=CARTESIAN_POINT('Origin',(26.65,-3.9801020972289E-16,6.5));
#1330=CARTESIAN_POINT('',(26.15,-2.59807621135332,8.));
#1331=CARTESIAN_POINT('Ctrl Pts',(26.65,-2.,8.));
#1332=CARTESIAN_POINT('Ctrl Pts',(26.4325177413248,-2.27185282334383,8.));
#1333=CARTESIAN_POINT('Ctrl Pts',(26.15,-2.59807621135332,8.));
#1334=CARTESIAN_POINT('',(26.15,-3.,6.5));
#1335=CARTESIAN_POINT('Origin',(26.15,-3.9801020972289E-16,6.5));
#1336=CARTESIAN_POINT('Origin',(26.15,-3.9801020972289E-16,6.5));
#1337=CARTESIAN_POINT('Origin',(26.65,-5.55111512312578E-16,6.5));
#1338=CARTESIAN_POINT('',(26.65,1.29903810567666,8.));
#1339=CARTESIAN_POINT('Origin',(26.65,2.59807621135332,8.));
#1340=CARTESIAN_POINT('',(16.65,2.59807621135332,8.));
#1341=CARTESIAN_POINT('',(14.35,2.59807621135332,8.));
#1342=CARTESIAN_POINT('',(16.65,-2.59807621135332,8.));
#1343=CARTESIAN_POINT('',(16.65,-2.59807621135332,8.));
#1344=CARTESIAN_POINT('',(14.35,-2.59807621135332,8.));
#1345=CARTESIAN_POINT('Origin',(16.65,-5.55111512312578E-16,8.75));
#1346=CARTESIAN_POINT('Origin',(16.65,-3.9801020972289E-16,6.5));
#1347=CARTESIAN_POINT('Origin',(14.35,-5.55111512312578E-16,6.5));
#1348=CARTESIAN_POINT('',(14.35,-3.,6.5));
#1349=CARTESIAN_POINT('Origin',(14.35,-3.9801020972289E-16,6.5));
#1350=CARTESIAN_POINT('',(14.35,-2.75,6.5));
#1351=CARTESIAN_POINT('Origin',(14.35,-3.9801020972289E-16,6.5));
#1352=CARTESIAN_POINT('Origin',(14.35,-3.9801020972289E-16,6.5));
#1353=CARTESIAN_POINT('',(14.35,-3.,6.5));
#1354=CARTESIAN_POINT('Origin',(13.65,-3.9801020972289E-16,6.5));
#1355=CARTESIAN_POINT('',(13.65,-2.75,6.5));
#1356=CARTESIAN_POINT('',(13.65,-2.75,6.5));
#1357=CARTESIAN_POINT('Origin',(13.65,-3.9801020972289E-16,6.5));
#1358=CARTESIAN_POINT('Origin',(13.65,-5.55111512312578E-16,6.5));
#1359=CARTESIAN_POINT('Origin',(-6.65,-4.85,0.));
#1360=CARTESIAN_POINT('',(6.65,-4.85,0.));
#1361=CARTESIAN_POINT('Origin',(-1.11022302462516E-15,1.11022302462516E-15,
11.35));
#1362=CARTESIAN_POINT('Origin',(-1.11022302462516E-15,1.11022302462516E-15,
0.));
#1363=UNCERTAINTY_MEASURE_WITH_UNIT(LENGTH_MEASURE(0.01),#1367,
'DISTANCE_ACCURACY_VALUE',
'Maximum model space distance between geometric entities at asserted c
onnectivities');
#1364=UNCERTAINTY_MEASURE_WITH_UNIT(LENGTH_MEASURE(0.01),#1367,
'DISTANCE_ACCURACY_VALUE',
'Maximum model space distance between geometric entities at asserted c
onnectivities');
#1365=(
GEOMETRIC_REPRESENTATION_CONTEXT(3)
GLOBAL_UNCERTAINTY_ASSIGNED_CONTEXT((#1363))
GLOBAL_UNIT_ASSIGNED_CONTEXT((#1367,#1369,#1370))
REPRESENTATION_CONTEXT('','3D')
);
#1366=(
GEOMETRIC_REPRESENTATION_CONTEXT(3)
GLOBAL_UNCERTAINTY_ASSIGNED_CONTEXT((#1364))
GLOBAL_UNIT_ASSIGNED_CONTEXT((#1367,#1369,#1370))
REPRESENTATION_CONTEXT('','3D')
);
#1367=(
LENGTH_UNIT()
NAMED_UNIT(*)
SI_UNIT(.MILLI.,.METRE.)
);
#1368=(
LENGTH_UNIT()
NAMED_UNIT(*)
SI_UNIT($,.METRE.)
);
#1369=(
NAMED_UNIT(*)
PLANE_ANGLE_UNIT()
SI_UNIT($,.RADIAN.)
);
#1370=(
NAMED_UNIT(*)
SI_UNIT($,.STERADIAN.)
SOLID_ANGLE_UNIT()
);
#1371=SHAPE_DEFINITION_REPRESENTATION(#1372,#1373);
#1372=PRODUCT_DEFINITION_SHAPE('',$,#1375);
#1373=SHAPE_REPRESENTATION('',(#862),#1365);
#1374=PRODUCT_DEFINITION_CONTEXT('part definition',#1379,'design');
#1375=PRODUCT_DEFINITION('PEC09-2320F-S0015','PEC09-2320F-S0015 v1',#1376,
#1374);
#1376=PRODUCT_DEFINITION_FORMATION('',$,#1381);
#1377=PRODUCT_RELATED_PRODUCT_CATEGORY('PEC09-2320F-S0015 v1',
'PEC09-2320F-S0015 v1',(#1381));
#1378=APPLICATION_PROTOCOL_DEFINITION('international standard',
'automotive_design',2009,#1379);
#1379=APPLICATION_CONTEXT(
'Core Data for Automotive Mechanical Design Process');
#1380=PRODUCT_CONTEXT('part definition',#1379,'mechanical');
#1381=PRODUCT('PEC09-2320F-S0015','PEC09-2320F-S0015 v1',$,(#1380));
#1382=PRESENTATION_STYLE_ASSIGNMENT((#1385));
#1383=PRESENTATION_STYLE_ASSIGNMENT((#1386));
#1384=PRESENTATION_STYLE_ASSIGNMENT((#1387));
#1385=SURFACE_STYLE_USAGE(.BOTH.,#1388);
#1386=SURFACE_STYLE_USAGE(.BOTH.,#1389);
#1387=SURFACE_STYLE_USAGE(.BOTH.,#1390);
#1388=SURFACE_SIDE_STYLE('',(#1391));
#1389=SURFACE_SIDE_STYLE('',(#1392));
#1390=SURFACE_SIDE_STYLE('',(#1393));
#1391=SURFACE_STYLE_FILL_AREA(#1394);
#1392=SURFACE_STYLE_FILL_AREA(#1395);
#1393=SURFACE_STYLE_FILL_AREA(#1396);
#1394=FILL_AREA_STYLE(
'EPX 150 - Air Baked (with Carbon M2 M3 L1 3D Printers)',(#1397));
#1395=FILL_AREA_STYLE('Aluminum - Polished',(#1398));
#1396=FILL_AREA_STYLE('Gold - Polished',(#1399));
#1397=FILL_AREA_STYLE_COLOUR(
'EPX 150 - Air Baked (with Carbon M2 M3 L1 3D Printers)',#1400);
#1398=FILL_AREA_STYLE_COLOUR('Aluminum - Polished',#1401);
#1399=FILL_AREA_STYLE_COLOUR('Gold - Polished',#1402);
#1400=COLOUR_RGB(
'EPX 150 - Air Baked (with Carbon M2 M3 L1 3D Printers)',0.247058823529412,
0.247058823529412,0.247058823529412);
#1401=COLOUR_RGB('Aluminum - Polished',0.96078431372549,0.96078431372549,
0.964705882352941);
#1402=COLOUR_RGB('Gold - Polished',0.956862745098039,0.898039215686275,
0.654901960784314);
ENDSEC;
END-ISO-10303-21;
