ISO-10303-21;
HEADER;
/* Generated by software containing ST-Developer
 * from STEP Tools, Inc. (www.steptools.com) 
 */

FILE_DESCRIPTION(
/* description */ (''),
/* implementation_level */ '2;1');

FILE_NAME(
/* name */ 'WSON-8(8mm x 6mm).step',
/* time_stamp */ '2026-03-02T19:58:16+09:00',
/* author */ (''),
/* organization */ (''),
/* preprocessor_version */ 'ST-DEVELOPER v20.1',
/* originating_system */ 'Autodesk Translation Framework v14.24.0.0',
/* authorisation */ '');

FILE_SCHEMA (('AUTOMOTIVE_DESIGN { 1 0 10303 214 3 1 1 }','MODEL_BASED_INTEGRATED_MANUFACTURING_SCHEMA'));
ENDSEC;

DATA;
#10=MECHANICAL_DESIGN_GEOMETRIC_PRESENTATION_REPRESENTATION('',(#15,#16,
#17,#18,#19,#20,#21,#22,#23,#24),#1390);
#11=SHAPE_REPRESENTATION_RELATIONSHIP('SRR','None',#1397,#12);
#12=ADVANCED_BREP_SHAPE_REPRESENTATION('',(#13),#1389);
#13=MANIFOLD_SOLID_BREP('Body1',#878);
#14=FACE_BOUND('',#73,.T.);
#15=STYLED_ITEM('',(#1407),#838);
#16=STYLED_ITEM('',(#1407),#843);
#17=STYLED_ITEM('',(#1407),#847);
#18=STYLED_ITEM('',(#1407),#851);
#19=STYLED_ITEM('',(#1407),#855);
#20=STYLED_ITEM('',(#1407),#859);
#21=STYLED_ITEM('',(#1407),#863);
#22=STYLED_ITEM('',(#1407),#867);
#23=STYLED_ITEM('',(#1407),#872);
#24=STYLED_ITEM('',(#1406),#13);
#25=FACE_OUTER_BOUND('',#68,.T.);
#26=FACE_OUTER_BOUND('',#69,.T.);
#27=FACE_OUTER_BOUND('',#70,.T.);
#28=FACE_OUTER_BOUND('',#71,.T.);
#29=FACE_OUTER_BOUND('',#72,.T.);
#30=FACE_OUTER_BOUND('',#74,.T.);
#31=FACE_OUTER_BOUND('',#75,.T.);
#32=FACE_OUTER_BOUND('',#76,.T.);
#33=FACE_OUTER_BOUND('',#77,.T.);
#34=FACE_OUTER_BOUND('',#78,.T.);
#35=FACE_OUTER_BOUND('',#79,.T.);
#36=FACE_OUTER_BOUND('',#80,.T.);
#37=FACE_OUTER_BOUND('',#81,.T.);
#38=FACE_OUTER_BOUND('',#82,.T.);
#39=FACE_OUTER_BOUND('',#83,.T.);
#40=FACE_OUTER_BOUND('',#84,.T.);
#41=FACE_OUTER_BOUND('',#85,.T.);
#42=FACE_OUTER_BOUND('',#86,.T.);
#43=FACE_OUTER_BOUND('',#87,.T.);
#44=FACE_OUTER_BOUND('',#88,.T.);
#45=FACE_OUTER_BOUND('',#89,.T.);
#46=FACE_OUTER_BOUND('',#90,.T.);
#47=FACE_OUTER_BOUND('',#91,.T.);
#48=FACE_OUTER_BOUND('',#92,.T.);
#49=FACE_OUTER_BOUND('',#93,.T.);
#50=FACE_OUTER_BOUND('',#94,.T.);
#51=FACE_OUTER_BOUND('',#95,.T.);
#52=FACE_OUTER_BOUND('',#96,.T.);
#53=FACE_OUTER_BOUND('',#97,.T.);
#54=FACE_OUTER_BOUND('',#98,.T.);
#55=FACE_OUTER_BOUND('',#99,.T.);
#56=FACE_OUTER_BOUND('',#100,.T.);
#57=FACE_OUTER_BOUND('',#101,.T.);
#58=FACE_OUTER_BOUND('',#102,.T.);
#59=FACE_OUTER_BOUND('',#103,.T.);
#60=FACE_OUTER_BOUND('',#104,.T.);
#61=FACE_OUTER_BOUND('',#105,.T.);
#62=FACE_OUTER_BOUND('',#106,.T.);
#63=FACE_OUTER_BOUND('',#107,.T.);
#64=FACE_OUTER_BOUND('',#108,.T.);
#65=FACE_OUTER_BOUND('',#109,.T.);
#66=FACE_OUTER_BOUND('',#110,.T.);
#67=FACE_OUTER_BOUND('',#111,.T.);
#68=EDGE_LOOP('',(#552,#553,#554,#555));
#69=EDGE_LOOP('',(#556,#557,#558,#559));
#70=EDGE_LOOP('',(#560,#561,#562,#563));
#71=EDGE_LOOP('',(#564,#565,#566,#567));
#72=EDGE_LOOP('',(#568,#569,#570,#571,#572,#573,#574,#575,#576,#577,#578,
#579,#580,#581,#582,#583,#584,#585,#586,#587,#588,#589,#590,#591,#592,#593,
#594,#595,#596,#597,#598,#599,#600,#601,#602,#603));
#73=EDGE_LOOP('',(#604,#605,#606,#607));
#74=EDGE_LOOP('',(#608,#609,#610,#611));
#75=EDGE_LOOP('',(#612,#613,#614,#615));
#76=EDGE_LOOP('',(#616,#617,#618,#619));
#77=EDGE_LOOP('',(#620,#621,#622,#623));
#78=EDGE_LOOP('',(#624,#625,#626,#627));
#79=EDGE_LOOP('',(#628,#629,#630,#631));
#80=EDGE_LOOP('',(#632,#633,#634,#635));
#81=EDGE_LOOP('',(#636,#637,#638,#639));
#82=EDGE_LOOP('',(#640,#641,#642,#643));
#83=EDGE_LOOP('',(#644,#645,#646,#647));
#84=EDGE_LOOP('',(#648,#649,#650,#651));
#85=EDGE_LOOP('',(#652,#653,#654,#655));
#86=EDGE_LOOP('',(#656,#657,#658,#659));
#87=EDGE_LOOP('',(#660,#661,#662,#663));
#88=EDGE_LOOP('',(#664,#665,#666,#667));
#89=EDGE_LOOP('',(#668,#669,#670,#671));
#90=EDGE_LOOP('',(#672,#673,#674,#675));
#91=EDGE_LOOP('',(#676,#677,#678,#679));
#92=EDGE_LOOP('',(#680,#681,#682,#683));
#93=EDGE_LOOP('',(#684,#685,#686,#687));
#94=EDGE_LOOP('',(#688,#689,#690,#691));
#95=EDGE_LOOP('',(#692,#693,#694,#695));
#96=EDGE_LOOP('',(#696,#697,#698,#699));
#97=EDGE_LOOP('',(#700,#701,#702,#703));
#98=EDGE_LOOP('',(#704,#705,#706,#707));
#99=EDGE_LOOP('',(#708,#709,#710,#711));
#100=EDGE_LOOP('',(#712,#713,#714,#715));
#101=EDGE_LOOP('',(#716,#717,#718,#719));
#102=EDGE_LOOP('',(#720,#721,#722,#723));
#103=EDGE_LOOP('',(#724,#725,#726,#727));
#104=EDGE_LOOP('',(#728,#729,#730,#731));
#105=EDGE_LOOP('',(#732,#733,#734,#735));
#106=EDGE_LOOP('',(#736,#737,#738,#739));
#107=EDGE_LOOP('',(#740,#741,#742,#743,#744,#745,#746,#747,#748,#749,#750,
#751,#752,#753,#754,#755,#756,#757,#758,#759));
#108=EDGE_LOOP('',(#760,#761,#762,#763));
#109=EDGE_LOOP('',(#764,#765,#766,#767,#768,#769,#770,#771,#772,#773,#774,
#775,#776,#777,#778,#779,#780,#781,#782,#783));
#110=EDGE_LOOP('',(#784,#785,#786,#787));
#111=EDGE_LOOP('',(#788,#789,#790,#791));
#112=LINE('',#1147,#232);
#113=LINE('',#1149,#233);
#114=LINE('',#1151,#234);
#115=LINE('',#1152,#235);
#116=LINE('',#1155,#236);
#117=LINE('',#1157,#237);
#118=LINE('',#1158,#238);
#119=LINE('',#1161,#239);
#120=LINE('',#1163,#240);
#121=LINE('',#1164,#241);
#122=LINE('',#1166,#242);
#123=LINE('',#1169,#243);
#124=LINE('',#1171,#244);
#125=LINE('',#1173,#245);
#126=LINE('',#1175,#246);
#127=LINE('',#1177,#247);
#128=LINE('',#1179,#248);
#129=LINE('',#1181,#249);
#130=LINE('',#1183,#250);
#131=LINE('',#1185,#251);
#132=LINE('',#1187,#252);
#133=LINE('',#1189,#253);
#134=LINE('',#1191,#254);
#135=LINE('',#1193,#255);
#136=LINE('',#1195,#256);
#137=LINE('',#1197,#257);
#138=LINE('',#1199,#258);
#139=LINE('',#1201,#259);
#140=LINE('',#1203,#260);
#141=LINE('',#1205,#261);
#142=LINE('',#1207,#262);
#143=LINE('',#1209,#263);
#144=LINE('',#1211,#264);
#145=LINE('',#1213,#265);
#146=LINE('',#1215,#266);
#147=LINE('',#1217,#267);
#148=LINE('',#1219,#268);
#149=LINE('',#1221,#269);
#150=LINE('',#1223,#270);
#151=LINE('',#1225,#271);
#152=LINE('',#1227,#272);
#153=LINE('',#1229,#273);
#154=LINE('',#1231,#274);
#155=LINE('',#1232,#275);
#156=LINE('',#1235,#276);
#157=LINE('',#1237,#277);
#158=LINE('',#1239,#278);
#159=LINE('',#1240,#279);
#160=LINE('',#1243,#280);
#161=LINE('',#1245,#281);
#162=LINE('',#1246,#282);
#163=LINE('',#1249,#283);
#164=LINE('',#1250,#284);
#165=LINE('',#1253,#285);
#166=LINE('',#1254,#286);
#167=LINE('',#1256,#287);
#168=LINE('',#1259,#288);
#169=LINE('',#1261,#289);
#170=LINE('',#1262,#290);
#171=LINE('',#1265,#291);
#172=LINE('',#1266,#292);
#173=LINE('',#1269,#293);
#174=LINE('',#1270,#294);
#175=LINE('',#1272,#295);
#176=LINE('',#1275,#296);
#177=LINE('',#1277,#297);
#178=LINE('',#1278,#298);
#179=LINE('',#1281,#299);
#180=LINE('',#1282,#300);
#181=LINE('',#1285,#301);
#182=LINE('',#1286,#302);
#183=LINE('',#1288,#303);
#184=LINE('',#1291,#304);
#185=LINE('',#1293,#305);
#186=LINE('',#1294,#306);
#187=LINE('',#1297,#307);
#188=LINE('',#1298,#308);
#189=LINE('',#1301,#309);
#190=LINE('',#1302,#310);
#191=LINE('',#1304,#311);
#192=LINE('',#1307,#312);
#193=LINE('',#1309,#313);
#194=LINE('',#1310,#314);
#195=LINE('',#1313,#315);
#196=LINE('',#1314,#316);
#197=LINE('',#1317,#317);
#198=LINE('',#1318,#318);
#199=LINE('',#1320,#319);
#200=LINE('',#1323,#320);
#201=LINE('',#1325,#321);
#202=LINE('',#1326,#322);
#203=LINE('',#1329,#323);
#204=LINE('',#1330,#324);
#205=LINE('',#1333,#325);
#206=LINE('',#1334,#326);
#207=LINE('',#1336,#327);
#208=LINE('',#1339,#328);
#209=LINE('',#1341,#329);
#210=LINE('',#1342,#330);
#211=LINE('',#1345,#331);
#212=LINE('',#1346,#332);
#213=LINE('',#1349,#333);
#214=LINE('',#1350,#334);
#215=LINE('',#1352,#335);
#216=LINE('',#1355,#336);
#217=LINE('',#1357,#337);
#218=LINE('',#1358,#338);
#219=LINE('',#1361,#339);
#220=LINE('',#1362,#340);
#221=LINE('',#1365,#341);
#222=LINE('',#1366,#342);
#223=LINE('',#1368,#343);
#224=LINE('',#1372,#344);
#225=LINE('',#1374,#345);
#226=LINE('',#1375,#346);
#227=LINE('',#1378,#347);
#228=LINE('',#1379,#348);
#229=LINE('',#1382,#349);
#230=LINE('',#1383,#350);
#231=LINE('',#1385,#351);
#232=VECTOR('',#939,10.);
#233=VECTOR('',#940,10.);
#234=VECTOR('',#941,10.);
#235=VECTOR('',#942,10.);
#236=VECTOR('',#945,10.);
#237=VECTOR('',#946,10.);
#238=VECTOR('',#947,10.);
#239=VECTOR('',#950,10.);
#240=VECTOR('',#951,10.);
#241=VECTOR('',#952,10.);
#242=VECTOR('',#955,10.);
#243=VECTOR('',#958,10.);
#244=VECTOR('',#959,10.);
#245=VECTOR('',#960,10.);
#246=VECTOR('',#961,10.);
#247=VECTOR('',#962,10.);
#248=VECTOR('',#963,10.);
#249=VECTOR('',#964,10.);
#250=VECTOR('',#965,10.);
#251=VECTOR('',#966,10.);
#252=VECTOR('',#967,10.);
#253=VECTOR('',#968,10.);
#254=VECTOR('',#969,10.);
#255=VECTOR('',#970,10.);
#256=VECTOR('',#971,10.);
#257=VECTOR('',#972,10.);
#258=VECTOR('',#973,10.);
#259=VECTOR('',#974,10.);
#260=VECTOR('',#975,10.);
#261=VECTOR('',#976,10.);
#262=VECTOR('',#977,10.);
#263=VECTOR('',#978,10.);
#264=VECTOR('',#979,10.);
#265=VECTOR('',#980,10.);
#266=VECTOR('',#981,10.);
#267=VECTOR('',#982,10.);
#268=VECTOR('',#983,10.);
#269=VECTOR('',#984,10.);
#270=VECTOR('',#985,10.);
#271=VECTOR('',#986,10.);
#272=VECTOR('',#987,10.);
#273=VECTOR('',#988,10.);
#274=VECTOR('',#989,10.);
#275=VECTOR('',#990,10.);
#276=VECTOR('',#991,10.);
#277=VECTOR('',#992,10.);
#278=VECTOR('',#993,10.);
#279=VECTOR('',#994,10.);
#280=VECTOR('',#997,10.);
#281=VECTOR('',#998,10.);
#282=VECTOR('',#999,10.);
#283=VECTOR('',#1002,10.);
#284=VECTOR('',#1003,10.);
#285=VECTOR('',#1006,10.);
#286=VECTOR('',#1007,10.);
#287=VECTOR('',#1010,10.);
#288=VECTOR('',#1013,10.);
#289=VECTOR('',#1014,10.);
#290=VECTOR('',#1015,10.);
#291=VECTOR('',#1018,10.);
#292=VECTOR('',#1019,10.);
#293=VECTOR('',#1022,10.);
#294=VECTOR('',#1023,10.);
#295=VECTOR('',#1026,10.);
#296=VECTOR('',#1029,10.);
#297=VECTOR('',#1030,10.);
#298=VECTOR('',#1031,10.);
#299=VECTOR('',#1034,10.);
#300=VECTOR('',#1035,10.);
#301=VECTOR('',#1038,10.);
#302=VECTOR('',#1039,10.);
#303=VECTOR('',#1042,10.);
#304=VECTOR('',#1045,10.);
#305=VECTOR('',#1046,10.);
#306=VECTOR('',#1047,10.);
#307=VECTOR('',#1050,10.);
#308=VECTOR('',#1051,10.);
#309=VECTOR('',#1054,10.);
#310=VECTOR('',#1055,10.);
#311=VECTOR('',#1058,10.);
#312=VECTOR('',#1061,10.);
#313=VECTOR('',#1062,10.);
#314=VECTOR('',#1063,10.);
#315=VECTOR('',#1066,10.);
#316=VECTOR('',#1067,10.);
#317=VECTOR('',#1070,10.);
#318=VECTOR('',#1071,10.);
#319=VECTOR('',#1074,10.);
#320=VECTOR('',#1077,10.);
#321=VECTOR('',#1078,10.);
#322=VECTOR('',#1079,10.);
#323=VECTOR('',#1082,10.);
#324=VECTOR('',#1083,10.);
#325=VECTOR('',#1086,10.);
#326=VECTOR('',#1087,10.);
#327=VECTOR('',#1090,10.);
#328=VECTOR('',#1093,10.);
#329=VECTOR('',#1094,10.);
#330=VECTOR('',#1095,10.);
#331=VECTOR('',#1098,10.);
#332=VECTOR('',#1099,10.);
#333=VECTOR('',#1102,10.);
#334=VECTOR('',#1103,10.);
#335=VECTOR('',#1106,10.);
#336=VECTOR('',#1109,10.);
#337=VECTOR('',#1110,10.);
#338=VECTOR('',#1111,10.);
#339=VECTOR('',#1114,10.);
#340=VECTOR('',#1115,10.);
#341=VECTOR('',#1118,10.);
#342=VECTOR('',#1119,10.);
#343=VECTOR('',#1122,10.);
#344=VECTOR('',#1127,10.);
#345=VECTOR('',#1128,10.);
#346=VECTOR('',#1129,10.);
#347=VECTOR('',#1132,10.);
#348=VECTOR('',#1133,10.);
#349=VECTOR('',#1136,10.);
#350=VECTOR('',#1137,10.);
#351=VECTOR('',#1140,10.);
#352=VERTEX_POINT('',#1145);
#353=VERTEX_POINT('',#1146);
#354=VERTEX_POINT('',#1148);
#355=VERTEX_POINT('',#1150);
#356=VERTEX_POINT('',#1154);
#357=VERTEX_POINT('',#1156);
#358=VERTEX_POINT('',#1160);
#359=VERTEX_POINT('',#1162);
#360=VERTEX_POINT('',#1168);
#361=VERTEX_POINT('',#1170);
#362=VERTEX_POINT('',#1172);
#363=VERTEX_POINT('',#1174);
#364=VERTEX_POINT('',#1176);
#365=VERTEX_POINT('',#1178);
#366=VERTEX_POINT('',#1180);
#367=VERTEX_POINT('',#1182);
#368=VERTEX_POINT('',#1184);
#369=VERTEX_POINT('',#1186);
#370=VERTEX_POINT('',#1188);
#371=VERTEX_POINT('',#1190);
#372=VERTEX_POINT('',#1192);
#373=VERTEX_POINT('',#1194);
#374=VERTEX_POINT('',#1196);
#375=VERTEX_POINT('',#1198);
#376=VERTEX_POINT('',#1200);
#377=VERTEX_POINT('',#1202);
#378=VERTEX_POINT('',#1204);
#379=VERTEX_POINT('',#1206);
#380=VERTEX_POINT('',#1208);
#381=VERTEX_POINT('',#1210);
#382=VERTEX_POINT('',#1212);
#383=VERTEX_POINT('',#1214);
#384=VERTEX_POINT('',#1216);
#385=VERTEX_POINT('',#1218);
#386=VERTEX_POINT('',#1220);
#387=VERTEX_POINT('',#1222);
#388=VERTEX_POINT('',#1224);
#389=VERTEX_POINT('',#1226);
#390=VERTEX_POINT('',#1228);
#391=VERTEX_POINT('',#1230);
#392=VERTEX_POINT('',#1233);
#393=VERTEX_POINT('',#1234);
#394=VERTEX_POINT('',#1236);
#395=VERTEX_POINT('',#1238);
#396=VERTEX_POINT('',#1242);
#397=VERTEX_POINT('',#1244);
#398=VERTEX_POINT('',#1248);
#399=VERTEX_POINT('',#1252);
#400=VERTEX_POINT('',#1258);
#401=VERTEX_POINT('',#1260);
#402=VERTEX_POINT('',#1264);
#403=VERTEX_POINT('',#1268);
#404=VERTEX_POINT('',#1274);
#405=VERTEX_POINT('',#1276);
#406=VERTEX_POINT('',#1280);
#407=VERTEX_POINT('',#1284);
#408=VERTEX_POINT('',#1290);
#409=VERTEX_POINT('',#1292);
#410=VERTEX_POINT('',#1296);
#411=VERTEX_POINT('',#1300);
#412=VERTEX_POINT('',#1306);
#413=VERTEX_POINT('',#1308);
#414=VERTEX_POINT('',#1312);
#415=VERTEX_POINT('',#1316);
#416=VERTEX_POINT('',#1322);
#417=VERTEX_POINT('',#1324);
#418=VERTEX_POINT('',#1328);
#419=VERTEX_POINT('',#1332);
#420=VERTEX_POINT('',#1338);
#421=VERTEX_POINT('',#1340);
#422=VERTEX_POINT('',#1344);
#423=VERTEX_POINT('',#1348);
#424=VERTEX_POINT('',#1354);
#425=VERTEX_POINT('',#1356);
#426=VERTEX_POINT('',#1360);
#427=VERTEX_POINT('',#1364);
#428=VERTEX_POINT('',#1371);
#429=VERTEX_POINT('',#1373);
#430=VERTEX_POINT('',#1377);
#431=VERTEX_POINT('',#1381);
#432=EDGE_CURVE('',#352,#353,#112,.T.);
#433=EDGE_CURVE('',#352,#354,#113,.T.);
#434=EDGE_CURVE('',#354,#355,#114,.T.);
#435=EDGE_CURVE('',#353,#355,#115,.T.);
#436=EDGE_CURVE('',#356,#352,#116,.T.);
#437=EDGE_CURVE('',#356,#357,#117,.T.);
#438=EDGE_CURVE('',#357,#354,#118,.T.);
#439=EDGE_CURVE('',#358,#356,#119,.T.);
#440=EDGE_CURVE('',#358,#359,#120,.T.);
#441=EDGE_CURVE('',#359,#357,#121,.T.);
#442=EDGE_CURVE('',#355,#359,#122,.T.);
#443=EDGE_CURVE('',#353,#360,#123,.T.);
#444=EDGE_CURVE('',#360,#361,#124,.T.);
#445=EDGE_CURVE('',#361,#362,#125,.T.);
#446=EDGE_CURVE('',#362,#363,#126,.T.);
#447=EDGE_CURVE('',#363,#364,#127,.T.);
#448=EDGE_CURVE('',#364,#365,#128,.T.);
#449=EDGE_CURVE('',#365,#366,#129,.T.);
#450=EDGE_CURVE('',#366,#367,#130,.T.);
#451=EDGE_CURVE('',#367,#368,#131,.T.);
#452=EDGE_CURVE('',#368,#369,#132,.T.);
#453=EDGE_CURVE('',#369,#370,#133,.T.);
#454=EDGE_CURVE('',#370,#371,#134,.T.);
#455=EDGE_CURVE('',#371,#372,#135,.T.);
#456=EDGE_CURVE('',#372,#373,#136,.T.);
#457=EDGE_CURVE('',#373,#374,#137,.T.);
#458=EDGE_CURVE('',#374,#375,#138,.T.);
#459=EDGE_CURVE('',#375,#376,#139,.T.);
#460=EDGE_CURVE('',#376,#377,#140,.T.);
#461=EDGE_CURVE('',#377,#378,#141,.T.);
#462=EDGE_CURVE('',#378,#379,#142,.T.);
#463=EDGE_CURVE('',#379,#380,#143,.T.);
#464=EDGE_CURVE('',#380,#381,#144,.T.);
#465=EDGE_CURVE('',#381,#382,#145,.T.);
#466=EDGE_CURVE('',#382,#383,#146,.T.);
#467=EDGE_CURVE('',#383,#384,#147,.T.);
#468=EDGE_CURVE('',#384,#385,#148,.T.);
#469=EDGE_CURVE('',#385,#386,#149,.T.);
#470=EDGE_CURVE('',#386,#387,#150,.T.);
#471=EDGE_CURVE('',#387,#388,#151,.T.);
#472=EDGE_CURVE('',#388,#389,#152,.T.);
#473=EDGE_CURVE('',#389,#390,#153,.T.);
#474=EDGE_CURVE('',#390,#391,#154,.T.);
#475=EDGE_CURVE('',#391,#358,#155,.T.);
#476=EDGE_CURVE('',#392,#393,#156,.T.);
#477=EDGE_CURVE('',#393,#394,#157,.T.);
#478=EDGE_CURVE('',#394,#395,#158,.T.);
#479=EDGE_CURVE('',#395,#392,#159,.T.);
#480=EDGE_CURVE('',#362,#396,#160,.T.);
#481=EDGE_CURVE('',#396,#397,#161,.T.);
#482=EDGE_CURVE('',#363,#397,#162,.T.);
#483=EDGE_CURVE('',#361,#398,#163,.T.);
#484=EDGE_CURVE('',#398,#396,#164,.T.);
#485=EDGE_CURVE('',#360,#399,#165,.T.);
#486=EDGE_CURVE('',#399,#398,#166,.T.);
#487=EDGE_CURVE('',#397,#399,#167,.T.);
#488=EDGE_CURVE('',#366,#400,#168,.T.);
#489=EDGE_CURVE('',#400,#401,#169,.T.);
#490=EDGE_CURVE('',#367,#401,#170,.T.);
#491=EDGE_CURVE('',#365,#402,#171,.T.);
#492=EDGE_CURVE('',#402,#400,#172,.T.);
#493=EDGE_CURVE('',#364,#403,#173,.T.);
#494=EDGE_CURVE('',#403,#402,#174,.T.);
#495=EDGE_CURVE('',#401,#403,#175,.T.);
#496=EDGE_CURVE('',#386,#404,#176,.T.);
#497=EDGE_CURVE('',#405,#404,#177,.T.);
#498=EDGE_CURVE('',#387,#405,#178,.T.);
#499=EDGE_CURVE('',#406,#405,#179,.T.);
#500=EDGE_CURVE('',#388,#406,#180,.T.);
#501=EDGE_CURVE('',#407,#406,#181,.T.);
#502=EDGE_CURVE('',#389,#407,#182,.T.);
#503=EDGE_CURVE('',#404,#407,#183,.T.);
#504=EDGE_CURVE('',#382,#408,#184,.T.);
#505=EDGE_CURVE('',#409,#408,#185,.T.);
#506=EDGE_CURVE('',#383,#409,#186,.T.);
#507=EDGE_CURVE('',#410,#409,#187,.T.);
#508=EDGE_CURVE('',#384,#410,#188,.T.);
#509=EDGE_CURVE('',#411,#410,#189,.T.);
#510=EDGE_CURVE('',#385,#411,#190,.T.);
#511=EDGE_CURVE('',#408,#411,#191,.T.);
#512=EDGE_CURVE('',#378,#412,#192,.T.);
#513=EDGE_CURVE('',#413,#412,#193,.T.);
#514=EDGE_CURVE('',#379,#413,#194,.T.);
#515=EDGE_CURVE('',#414,#413,#195,.T.);
#516=EDGE_CURVE('',#380,#414,#196,.T.);
#517=EDGE_CURVE('',#415,#414,#197,.T.);
#518=EDGE_CURVE('',#381,#415,#198,.T.);
#519=EDGE_CURVE('',#412,#415,#199,.T.);
#520=EDGE_CURVE('',#370,#416,#200,.T.);
#521=EDGE_CURVE('',#416,#417,#201,.T.);
#522=EDGE_CURVE('',#371,#417,#202,.T.);
#523=EDGE_CURVE('',#369,#418,#203,.T.);
#524=EDGE_CURVE('',#418,#416,#204,.T.);
#525=EDGE_CURVE('',#368,#419,#205,.T.);
#526=EDGE_CURVE('',#419,#418,#206,.T.);
#527=EDGE_CURVE('',#417,#419,#207,.T.);
#528=EDGE_CURVE('',#374,#420,#208,.T.);
#529=EDGE_CURVE('',#421,#420,#209,.T.);
#530=EDGE_CURVE('',#375,#421,#210,.T.);
#531=EDGE_CURVE('',#422,#421,#211,.T.);
#532=EDGE_CURVE('',#376,#422,#212,.T.);
#533=EDGE_CURVE('',#423,#422,#213,.T.);
#534=EDGE_CURVE('',#377,#423,#214,.T.);
#535=EDGE_CURVE('',#420,#423,#215,.T.);
#536=EDGE_CURVE('',#392,#424,#216,.T.);
#537=EDGE_CURVE('',#425,#424,#217,.T.);
#538=EDGE_CURVE('',#393,#425,#218,.T.);
#539=EDGE_CURVE('',#426,#425,#219,.T.);
#540=EDGE_CURVE('',#394,#426,#220,.T.);
#541=EDGE_CURVE('',#427,#426,#221,.T.);
#542=EDGE_CURVE('',#395,#427,#222,.T.);
#543=EDGE_CURVE('',#424,#427,#223,.T.);
#544=EDGE_CURVE('',#391,#428,#224,.T.);
#545=EDGE_CURVE('',#429,#428,#225,.T.);
#546=EDGE_CURVE('',#372,#429,#226,.T.);
#547=EDGE_CURVE('',#430,#429,#227,.T.);
#548=EDGE_CURVE('',#373,#430,#228,.T.);
#549=EDGE_CURVE('',#431,#430,#229,.T.);
#550=EDGE_CURVE('',#390,#431,#230,.T.);
#551=EDGE_CURVE('',#428,#431,#231,.T.);
#552=ORIENTED_EDGE('',*,*,#432,.F.);
#553=ORIENTED_EDGE('',*,*,#433,.T.);
#554=ORIENTED_EDGE('',*,*,#434,.T.);
#555=ORIENTED_EDGE('',*,*,#435,.F.);
#556=ORIENTED_EDGE('',*,*,#436,.F.);
#557=ORIENTED_EDGE('',*,*,#437,.T.);
#558=ORIENTED_EDGE('',*,*,#438,.T.);
#559=ORIENTED_EDGE('',*,*,#433,.F.);
#560=ORIENTED_EDGE('',*,*,#439,.F.);
#561=ORIENTED_EDGE('',*,*,#440,.T.);
#562=ORIENTED_EDGE('',*,*,#441,.T.);
#563=ORIENTED_EDGE('',*,*,#437,.F.);
#564=ORIENTED_EDGE('',*,*,#442,.F.);
#565=ORIENTED_EDGE('',*,*,#434,.F.);
#566=ORIENTED_EDGE('',*,*,#438,.F.);
#567=ORIENTED_EDGE('',*,*,#441,.F.);
#568=ORIENTED_EDGE('',*,*,#439,.T.);
#569=ORIENTED_EDGE('',*,*,#436,.T.);
#570=ORIENTED_EDGE('',*,*,#432,.T.);
#571=ORIENTED_EDGE('',*,*,#443,.T.);
#572=ORIENTED_EDGE('',*,*,#444,.T.);
#573=ORIENTED_EDGE('',*,*,#445,.T.);
#574=ORIENTED_EDGE('',*,*,#446,.T.);
#575=ORIENTED_EDGE('',*,*,#447,.T.);
#576=ORIENTED_EDGE('',*,*,#448,.T.);
#577=ORIENTED_EDGE('',*,*,#449,.T.);
#578=ORIENTED_EDGE('',*,*,#450,.T.);
#579=ORIENTED_EDGE('',*,*,#451,.T.);
#580=ORIENTED_EDGE('',*,*,#452,.T.);
#581=ORIENTED_EDGE('',*,*,#453,.T.);
#582=ORIENTED_EDGE('',*,*,#454,.T.);
#583=ORIENTED_EDGE('',*,*,#455,.T.);
#584=ORIENTED_EDGE('',*,*,#456,.T.);
#585=ORIENTED_EDGE('',*,*,#457,.T.);
#586=ORIENTED_EDGE('',*,*,#458,.T.);
#587=ORIENTED_EDGE('',*,*,#459,.T.);
#588=ORIENTED_EDGE('',*,*,#460,.T.);
#589=ORIENTED_EDGE('',*,*,#461,.T.);
#590=ORIENTED_EDGE('',*,*,#462,.T.);
#591=ORIENTED_EDGE('',*,*,#463,.T.);
#592=ORIENTED_EDGE('',*,*,#464,.T.);
#593=ORIENTED_EDGE('',*,*,#465,.T.);
#594=ORIENTED_EDGE('',*,*,#466,.T.);
#595=ORIENTED_EDGE('',*,*,#467,.T.);
#596=ORIENTED_EDGE('',*,*,#468,.T.);
#597=ORIENTED_EDGE('',*,*,#469,.T.);
#598=ORIENTED_EDGE('',*,*,#470,.T.);
#599=ORIENTED_EDGE('',*,*,#471,.T.);
#600=ORIENTED_EDGE('',*,*,#472,.T.);
#601=ORIENTED_EDGE('',*,*,#473,.T.);
#602=ORIENTED_EDGE('',*,*,#474,.T.);
#603=ORIENTED_EDGE('',*,*,#475,.T.);
#604=ORIENTED_EDGE('',*,*,#476,.T.);
#605=ORIENTED_EDGE('',*,*,#477,.T.);
#606=ORIENTED_EDGE('',*,*,#478,.T.);
#607=ORIENTED_EDGE('',*,*,#479,.T.);
#608=ORIENTED_EDGE('',*,*,#446,.F.);
#609=ORIENTED_EDGE('',*,*,#480,.T.);
#610=ORIENTED_EDGE('',*,*,#481,.T.);
#611=ORIENTED_EDGE('',*,*,#482,.F.);
#612=ORIENTED_EDGE('',*,*,#445,.F.);
#613=ORIENTED_EDGE('',*,*,#483,.T.);
#614=ORIENTED_EDGE('',*,*,#484,.T.);
#615=ORIENTED_EDGE('',*,*,#480,.F.);
#616=ORIENTED_EDGE('',*,*,#444,.F.);
#617=ORIENTED_EDGE('',*,*,#485,.T.);
#618=ORIENTED_EDGE('',*,*,#486,.T.);
#619=ORIENTED_EDGE('',*,*,#483,.F.);
#620=ORIENTED_EDGE('',*,*,#487,.F.);
#621=ORIENTED_EDGE('',*,*,#481,.F.);
#622=ORIENTED_EDGE('',*,*,#484,.F.);
#623=ORIENTED_EDGE('',*,*,#486,.F.);
#624=ORIENTED_EDGE('',*,*,#450,.F.);
#625=ORIENTED_EDGE('',*,*,#488,.T.);
#626=ORIENTED_EDGE('',*,*,#489,.T.);
#627=ORIENTED_EDGE('',*,*,#490,.F.);
#628=ORIENTED_EDGE('',*,*,#449,.F.);
#629=ORIENTED_EDGE('',*,*,#491,.T.);
#630=ORIENTED_EDGE('',*,*,#492,.T.);
#631=ORIENTED_EDGE('',*,*,#488,.F.);
#632=ORIENTED_EDGE('',*,*,#448,.F.);
#633=ORIENTED_EDGE('',*,*,#493,.T.);
#634=ORIENTED_EDGE('',*,*,#494,.T.);
#635=ORIENTED_EDGE('',*,*,#491,.F.);
#636=ORIENTED_EDGE('',*,*,#495,.F.);
#637=ORIENTED_EDGE('',*,*,#489,.F.);
#638=ORIENTED_EDGE('',*,*,#492,.F.);
#639=ORIENTED_EDGE('',*,*,#494,.F.);
#640=ORIENTED_EDGE('',*,*,#470,.F.);
#641=ORIENTED_EDGE('',*,*,#496,.T.);
#642=ORIENTED_EDGE('',*,*,#497,.F.);
#643=ORIENTED_EDGE('',*,*,#498,.F.);
#644=ORIENTED_EDGE('',*,*,#471,.F.);
#645=ORIENTED_EDGE('',*,*,#498,.T.);
#646=ORIENTED_EDGE('',*,*,#499,.F.);
#647=ORIENTED_EDGE('',*,*,#500,.F.);
#648=ORIENTED_EDGE('',*,*,#472,.F.);
#649=ORIENTED_EDGE('',*,*,#500,.T.);
#650=ORIENTED_EDGE('',*,*,#501,.F.);
#651=ORIENTED_EDGE('',*,*,#502,.F.);
#652=ORIENTED_EDGE('',*,*,#503,.T.);
#653=ORIENTED_EDGE('',*,*,#501,.T.);
#654=ORIENTED_EDGE('',*,*,#499,.T.);
#655=ORIENTED_EDGE('',*,*,#497,.T.);
#656=ORIENTED_EDGE('',*,*,#466,.F.);
#657=ORIENTED_EDGE('',*,*,#504,.T.);
#658=ORIENTED_EDGE('',*,*,#505,.F.);
#659=ORIENTED_EDGE('',*,*,#506,.F.);
#660=ORIENTED_EDGE('',*,*,#467,.F.);
#661=ORIENTED_EDGE('',*,*,#506,.T.);
#662=ORIENTED_EDGE('',*,*,#507,.F.);
#663=ORIENTED_EDGE('',*,*,#508,.F.);
#664=ORIENTED_EDGE('',*,*,#468,.F.);
#665=ORIENTED_EDGE('',*,*,#508,.T.);
#666=ORIENTED_EDGE('',*,*,#509,.F.);
#667=ORIENTED_EDGE('',*,*,#510,.F.);
#668=ORIENTED_EDGE('',*,*,#511,.T.);
#669=ORIENTED_EDGE('',*,*,#509,.T.);
#670=ORIENTED_EDGE('',*,*,#507,.T.);
#671=ORIENTED_EDGE('',*,*,#505,.T.);
#672=ORIENTED_EDGE('',*,*,#462,.F.);
#673=ORIENTED_EDGE('',*,*,#512,.T.);
#674=ORIENTED_EDGE('',*,*,#513,.F.);
#675=ORIENTED_EDGE('',*,*,#514,.F.);
#676=ORIENTED_EDGE('',*,*,#463,.F.);
#677=ORIENTED_EDGE('',*,*,#514,.T.);
#678=ORIENTED_EDGE('',*,*,#515,.F.);
#679=ORIENTED_EDGE('',*,*,#516,.F.);
#680=ORIENTED_EDGE('',*,*,#464,.F.);
#681=ORIENTED_EDGE('',*,*,#516,.T.);
#682=ORIENTED_EDGE('',*,*,#517,.F.);
#683=ORIENTED_EDGE('',*,*,#518,.F.);
#684=ORIENTED_EDGE('',*,*,#519,.T.);
#685=ORIENTED_EDGE('',*,*,#517,.T.);
#686=ORIENTED_EDGE('',*,*,#515,.T.);
#687=ORIENTED_EDGE('',*,*,#513,.T.);
#688=ORIENTED_EDGE('',*,*,#454,.F.);
#689=ORIENTED_EDGE('',*,*,#520,.T.);
#690=ORIENTED_EDGE('',*,*,#521,.T.);
#691=ORIENTED_EDGE('',*,*,#522,.F.);
#692=ORIENTED_EDGE('',*,*,#453,.F.);
#693=ORIENTED_EDGE('',*,*,#523,.T.);
#694=ORIENTED_EDGE('',*,*,#524,.T.);
#695=ORIENTED_EDGE('',*,*,#520,.F.);
#696=ORIENTED_EDGE('',*,*,#452,.F.);
#697=ORIENTED_EDGE('',*,*,#525,.T.);
#698=ORIENTED_EDGE('',*,*,#526,.T.);
#699=ORIENTED_EDGE('',*,*,#523,.F.);
#700=ORIENTED_EDGE('',*,*,#527,.F.);
#701=ORIENTED_EDGE('',*,*,#521,.F.);
#702=ORIENTED_EDGE('',*,*,#524,.F.);
#703=ORIENTED_EDGE('',*,*,#526,.F.);
#704=ORIENTED_EDGE('',*,*,#458,.F.);
#705=ORIENTED_EDGE('',*,*,#528,.T.);
#706=ORIENTED_EDGE('',*,*,#529,.F.);
#707=ORIENTED_EDGE('',*,*,#530,.F.);
#708=ORIENTED_EDGE('',*,*,#459,.F.);
#709=ORIENTED_EDGE('',*,*,#530,.T.);
#710=ORIENTED_EDGE('',*,*,#531,.F.);
#711=ORIENTED_EDGE('',*,*,#532,.F.);
#712=ORIENTED_EDGE('',*,*,#460,.F.);
#713=ORIENTED_EDGE('',*,*,#532,.T.);
#714=ORIENTED_EDGE('',*,*,#533,.F.);
#715=ORIENTED_EDGE('',*,*,#534,.F.);
#716=ORIENTED_EDGE('',*,*,#535,.T.);
#717=ORIENTED_EDGE('',*,*,#533,.T.);
#718=ORIENTED_EDGE('',*,*,#531,.T.);
#719=ORIENTED_EDGE('',*,*,#529,.T.);
#720=ORIENTED_EDGE('',*,*,#476,.F.);
#721=ORIENTED_EDGE('',*,*,#536,.T.);
#722=ORIENTED_EDGE('',*,*,#537,.F.);
#723=ORIENTED_EDGE('',*,*,#538,.F.);
#724=ORIENTED_EDGE('',*,*,#477,.F.);
#725=ORIENTED_EDGE('',*,*,#538,.T.);
#726=ORIENTED_EDGE('',*,*,#539,.F.);
#727=ORIENTED_EDGE('',*,*,#540,.F.);
#728=ORIENTED_EDGE('',*,*,#478,.F.);
#729=ORIENTED_EDGE('',*,*,#540,.T.);
#730=ORIENTED_EDGE('',*,*,#541,.F.);
#731=ORIENTED_EDGE('',*,*,#542,.F.);
#732=ORIENTED_EDGE('',*,*,#479,.F.);
#733=ORIENTED_EDGE('',*,*,#542,.T.);
#734=ORIENTED_EDGE('',*,*,#543,.F.);
#735=ORIENTED_EDGE('',*,*,#536,.F.);
#736=ORIENTED_EDGE('',*,*,#543,.T.);
#737=ORIENTED_EDGE('',*,*,#541,.T.);
#738=ORIENTED_EDGE('',*,*,#539,.T.);
#739=ORIENTED_EDGE('',*,*,#537,.T.);
#740=ORIENTED_EDGE('',*,*,#475,.F.);
#741=ORIENTED_EDGE('',*,*,#544,.T.);
#742=ORIENTED_EDGE('',*,*,#545,.F.);
#743=ORIENTED_EDGE('',*,*,#546,.F.);
#744=ORIENTED_EDGE('',*,*,#455,.F.);
#745=ORIENTED_EDGE('',*,*,#522,.T.);
#746=ORIENTED_EDGE('',*,*,#527,.T.);
#747=ORIENTED_EDGE('',*,*,#525,.F.);
#748=ORIENTED_EDGE('',*,*,#451,.F.);
#749=ORIENTED_EDGE('',*,*,#490,.T.);
#750=ORIENTED_EDGE('',*,*,#495,.T.);
#751=ORIENTED_EDGE('',*,*,#493,.F.);
#752=ORIENTED_EDGE('',*,*,#447,.F.);
#753=ORIENTED_EDGE('',*,*,#482,.T.);
#754=ORIENTED_EDGE('',*,*,#487,.T.);
#755=ORIENTED_EDGE('',*,*,#485,.F.);
#756=ORIENTED_EDGE('',*,*,#443,.F.);
#757=ORIENTED_EDGE('',*,*,#435,.T.);
#758=ORIENTED_EDGE('',*,*,#442,.T.);
#759=ORIENTED_EDGE('',*,*,#440,.F.);
#760=ORIENTED_EDGE('',*,*,#456,.F.);
#761=ORIENTED_EDGE('',*,*,#546,.T.);
#762=ORIENTED_EDGE('',*,*,#547,.F.);
#763=ORIENTED_EDGE('',*,*,#548,.F.);
#764=ORIENTED_EDGE('',*,*,#457,.F.);
#765=ORIENTED_EDGE('',*,*,#548,.T.);
#766=ORIENTED_EDGE('',*,*,#549,.F.);
#767=ORIENTED_EDGE('',*,*,#550,.F.);
#768=ORIENTED_EDGE('',*,*,#473,.F.);
#769=ORIENTED_EDGE('',*,*,#502,.T.);
#770=ORIENTED_EDGE('',*,*,#503,.F.);
#771=ORIENTED_EDGE('',*,*,#496,.F.);
#772=ORIENTED_EDGE('',*,*,#469,.F.);
#773=ORIENTED_EDGE('',*,*,#510,.T.);
#774=ORIENTED_EDGE('',*,*,#511,.F.);
#775=ORIENTED_EDGE('',*,*,#504,.F.);
#776=ORIENTED_EDGE('',*,*,#465,.F.);
#777=ORIENTED_EDGE('',*,*,#518,.T.);
#778=ORIENTED_EDGE('',*,*,#519,.F.);
#779=ORIENTED_EDGE('',*,*,#512,.F.);
#780=ORIENTED_EDGE('',*,*,#461,.F.);
#781=ORIENTED_EDGE('',*,*,#534,.T.);
#782=ORIENTED_EDGE('',*,*,#535,.F.);
#783=ORIENTED_EDGE('',*,*,#528,.F.);
#784=ORIENTED_EDGE('',*,*,#474,.F.);
#785=ORIENTED_EDGE('',*,*,#550,.T.);
#786=ORIENTED_EDGE('',*,*,#551,.F.);
#787=ORIENTED_EDGE('',*,*,#544,.F.);
#788=ORIENTED_EDGE('',*,*,#551,.T.);
#789=ORIENTED_EDGE('',*,*,#549,.T.);
#790=ORIENTED_EDGE('',*,*,#547,.T.);
#791=ORIENTED_EDGE('',*,*,#545,.T.);
#792=PLANE('',#892);
#793=PLANE('',#893);
#794=PLANE('',#894);
#795=PLANE('',#895);
#796=PLANE('',#896);
#797=PLANE('',#897);
#798=PLANE('',#898);
#799=PLANE('',#899);
#800=PLANE('',#900);
#801=PLANE('',#901);
#802=PLANE('',#902);
#803=PLANE('',#903);
#804=PLANE('',#904);
#805=PLANE('',#905);
#806=PLANE('',#906);
#807=PLANE('',#907);
#808=PLANE('',#908);
#809=PLANE('',#909);
#810=PLANE('',#910);
#811=PLANE('',#911);
#812=PLANE('',#912);
#813=PLANE('',#913);
#814=PLANE('',#914);
#815=PLANE('',#915);
#816=PLANE('',#916);
#817=PLANE('',#917);
#818=PLANE('',#918);
#819=PLANE('',#919);
#820=PLANE('',#920);
#821=PLANE('',#921);
#822=PLANE('',#922);
#823=PLANE('',#923);
#824=PLANE('',#924);
#825=PLANE('',#925);
#826=PLANE('',#926);
#827=PLANE('',#927);
#828=PLANE('',#928);
#829=PLANE('',#929);
#830=PLANE('',#930);
#831=PLANE('',#931);
#832=PLANE('',#932);
#833=PLANE('',#933);
#834=PLANE('',#934);
#835=ADVANCED_FACE('',(#25),#792,.F.);
#836=ADVANCED_FACE('',(#26),#793,.F.);
#837=ADVANCED_FACE('',(#27),#794,.F.);
#838=ADVANCED_FACE('',(#28),#795,.F.);
#839=ADVANCED_FACE('',(#29,#14),#796,.F.);
#840=ADVANCED_FACE('',(#30),#797,.F.);
#841=ADVANCED_FACE('',(#31),#798,.F.);
#842=ADVANCED_FACE('',(#32),#799,.F.);
#843=ADVANCED_FACE('',(#33),#800,.F.);
#844=ADVANCED_FACE('',(#34),#801,.F.);
#845=ADVANCED_FACE('',(#35),#802,.F.);
#846=ADVANCED_FACE('',(#36),#803,.F.);
#847=ADVANCED_FACE('',(#37),#804,.F.);
#848=ADVANCED_FACE('',(#38),#805,.T.);
#849=ADVANCED_FACE('',(#39),#806,.T.);
#850=ADVANCED_FACE('',(#40),#807,.T.);
#851=ADVANCED_FACE('',(#41),#808,.T.);
#852=ADVANCED_FACE('',(#42),#809,.T.);
#853=ADVANCED_FACE('',(#43),#810,.T.);
#854=ADVANCED_FACE('',(#44),#811,.T.);
#855=ADVANCED_FACE('',(#45),#812,.T.);
#856=ADVANCED_FACE('',(#46),#813,.T.);
#857=ADVANCED_FACE('',(#47),#814,.T.);
#858=ADVANCED_FACE('',(#48),#815,.T.);
#859=ADVANCED_FACE('',(#49),#816,.T.);
#860=ADVANCED_FACE('',(#50),#817,.F.);
#861=ADVANCED_FACE('',(#51),#818,.F.);
#862=ADVANCED_FACE('',(#52),#819,.F.);
#863=ADVANCED_FACE('',(#53),#820,.F.);
#864=ADVANCED_FACE('',(#54),#821,.T.);
#865=ADVANCED_FACE('',(#55),#822,.T.);
#866=ADVANCED_FACE('',(#56),#823,.T.);
#867=ADVANCED_FACE('',(#57),#824,.T.);
#868=ADVANCED_FACE('',(#58),#825,.T.);
#869=ADVANCED_FACE('',(#59),#826,.T.);
#870=ADVANCED_FACE('',(#60),#827,.T.);
#871=ADVANCED_FACE('',(#61),#828,.T.);
#872=ADVANCED_FACE('',(#62),#829,.T.);
#873=ADVANCED_FACE('',(#63),#830,.T.);
#874=ADVANCED_FACE('',(#64),#831,.T.);
#875=ADVANCED_FACE('',(#65),#832,.T.);
#876=ADVANCED_FACE('',(#66),#833,.T.);
#877=ADVANCED_FACE('',(#67),#834,.T.);
#878=CLOSED_SHELL('',(#835,#836,#837,#838,#839,#840,#841,#842,#843,#844,
#845,#846,#847,#848,#849,#850,#851,#852,#853,#854,#855,#856,#857,#858,#859,
#860,#861,#862,#863,#864,#865,#866,#867,#868,#869,#870,#871,#872,#873,#874,
#875,#876,#877));
#879=DERIVED_UNIT_ELEMENT(#881,1.);
#880=DERIVED_UNIT_ELEMENT(#1392,-3.);
#881=(
MASS_UNIT()
NAMED_UNIT(*)
SI_UNIT(.KILO.,.GRAM.)
);
#882=DERIVED_UNIT((#879,#880));
#883=MEASURE_REPRESENTATION_ITEM('density measure',
POSITIVE_RATIO_MEASURE(6020.),#882);
#884=PROPERTY_DEFINITION_REPRESENTATION(#889,#886);
#885=PROPERTY_DEFINITION_REPRESENTATION(#890,#887);
#886=REPRESENTATION('material name',(#888),#1389);
#887=REPRESENTATION('density',(#883),#1389);
#888=DESCRIPTIVE_REPRESENTATION_ITEM('Discrete Component',
'Discrete Component');
#889=PROPERTY_DEFINITION('material property','material name',#1399);
#890=PROPERTY_DEFINITION('material property','density of part',#1399);
#891=AXIS2_PLACEMENT_3D('',#1143,#935,#936);
#892=AXIS2_PLACEMENT_3D('',#1144,#937,#938);
#893=AXIS2_PLACEMENT_3D('',#1153,#943,#944);
#894=AXIS2_PLACEMENT_3D('',#1159,#948,#949);
#895=AXIS2_PLACEMENT_3D('',#1165,#953,#954);
#896=AXIS2_PLACEMENT_3D('',#1167,#956,#957);
#897=AXIS2_PLACEMENT_3D('',#1241,#995,#996);
#898=AXIS2_PLACEMENT_3D('',#1247,#1000,#1001);
#899=AXIS2_PLACEMENT_3D('',#1251,#1004,#1005);
#900=AXIS2_PLACEMENT_3D('',#1255,#1008,#1009);
#901=AXIS2_PLACEMENT_3D('',#1257,#1011,#1012);
#902=AXIS2_PLACEMENT_3D('',#1263,#1016,#1017);
#903=AXIS2_PLACEMENT_3D('',#1267,#1020,#1021);
#904=AXIS2_PLACEMENT_3D('',#1271,#1024,#1025);
#905=AXIS2_PLACEMENT_3D('',#1273,#1027,#1028);
#906=AXIS2_PLACEMENT_3D('',#1279,#1032,#1033);
#907=AXIS2_PLACEMENT_3D('',#1283,#1036,#1037);
#908=AXIS2_PLACEMENT_3D('',#1287,#1040,#1041);
#909=AXIS2_PLACEMENT_3D('',#1289,#1043,#1044);
#910=AXIS2_PLACEMENT_3D('',#1295,#1048,#1049);
#911=AXIS2_PLACEMENT_3D('',#1299,#1052,#1053);
#912=AXIS2_PLACEMENT_3D('',#1303,#1056,#1057);
#913=AXIS2_PLACEMENT_3D('',#1305,#1059,#1060);
#914=AXIS2_PLACEMENT_3D('',#1311,#1064,#1065);
#915=AXIS2_PLACEMENT_3D('',#1315,#1068,#1069);
#916=AXIS2_PLACEMENT_3D('',#1319,#1072,#1073);
#917=AXIS2_PLACEMENT_3D('',#1321,#1075,#1076);
#918=AXIS2_PLACEMENT_3D('',#1327,#1080,#1081);
#919=AXIS2_PLACEMENT_3D('',#1331,#1084,#1085);
#920=AXIS2_PLACEMENT_3D('',#1335,#1088,#1089);
#921=AXIS2_PLACEMENT_3D('',#1337,#1091,#1092);
#922=AXIS2_PLACEMENT_3D('',#1343,#1096,#1097);
#923=AXIS2_PLACEMENT_3D('',#1347,#1100,#1101);
#924=AXIS2_PLACEMENT_3D('',#1351,#1104,#1105);
#925=AXIS2_PLACEMENT_3D('',#1353,#1107,#1108);
#926=AXIS2_PLACEMENT_3D('',#1359,#1112,#1113);
#927=AXIS2_PLACEMENT_3D('',#1363,#1116,#1117);
#928=AXIS2_PLACEMENT_3D('',#1367,#1120,#1121);
#929=AXIS2_PLACEMENT_3D('',#1369,#1123,#1124);
#930=AXIS2_PLACEMENT_3D('',#1370,#1125,#1126);
#931=AXIS2_PLACEMENT_3D('',#1376,#1130,#1131);
#932=AXIS2_PLACEMENT_3D('',#1380,#1134,#1135);
#933=AXIS2_PLACEMENT_3D('',#1384,#1138,#1139);
#934=AXIS2_PLACEMENT_3D('',#1386,#1141,#1142);
#935=DIRECTION('axis',(0.,0.,1.));
#936=DIRECTION('refdir',(1.,0.,0.));
#937=DIRECTION('center_axis',(5.55111512312578E-16,1.,0.));
#938=DIRECTION('ref_axis',(1.,-5.55111512312578E-16,0.));
#939=DIRECTION('',(1.,-5.55111512312578E-16,0.));
#940=DIRECTION('',(0.,0.,-1.));
#941=DIRECTION('',(1.,-5.55111512312578E-16,0.));
#942=DIRECTION('',(0.,0.,-1.));
#943=DIRECTION('center_axis',(1.,0.,0.));
#944=DIRECTION('ref_axis',(0.,-1.,0.));
#945=DIRECTION('',(0.,-1.,0.));
#946=DIRECTION('',(0.,0.,-1.));
#947=DIRECTION('',(0.,-1.,0.));
#948=DIRECTION('center_axis',(-5.55111512312578E-16,-1.,0.));
#949=DIRECTION('ref_axis',(-1.,5.55111512312578E-16,0.));
#950=DIRECTION('',(-1.,5.55111512312578E-16,0.));
#951=DIRECTION('',(0.,0.,-1.));
#952=DIRECTION('',(-1.,5.55111512312578E-16,0.));
#953=DIRECTION('center_axis',(0.,0.,1.));
#954=DIRECTION('ref_axis',(1.,0.,0.));
#955=DIRECTION('',(0.,1.,0.));
#956=DIRECTION('center_axis',(0.,0.,1.));
#957=DIRECTION('ref_axis',(1.,0.,0.));
#958=DIRECTION('',(0.,-1.,0.));
#959=DIRECTION('',(-1.,5.55111512312578E-16,0.));
#960=DIRECTION('',(0.,-1.,0.));
#961=DIRECTION('',(1.,-5.55111512312578E-16,0.));
#962=DIRECTION('',(0.,-1.,0.));
#963=DIRECTION('',(-1.,5.55111512312578E-16,0.));
#964=DIRECTION('',(0.,-1.,0.));
#965=DIRECTION('',(1.,-5.55111512312578E-16,0.));
#966=DIRECTION('',(0.,-1.,0.));
#967=DIRECTION('',(-1.,5.55111512312578E-16,0.));
#968=DIRECTION('',(0.,-1.,0.));
#969=DIRECTION('',(1.,-5.55111512312578E-16,0.));
#970=DIRECTION('',(0.,-1.,0.));
#971=DIRECTION('',(-1.,0.,0.));
#972=DIRECTION('',(0.,1.,0.));
#973=DIRECTION('',(1.,5.55111512312578E-16,0.));
#974=DIRECTION('',(0.,1.,0.));
#975=DIRECTION('',(-1.,-5.55111512312578E-16,0.));
#976=DIRECTION('',(0.,1.,0.));
#977=DIRECTION('',(1.,5.55111512312578E-16,0.));
#978=DIRECTION('',(0.,1.,0.));
#979=DIRECTION('',(-1.,-5.55111512312578E-16,0.));
#980=DIRECTION('',(0.,1.,0.));
#981=DIRECTION('',(1.,5.55111512312578E-16,0.));
#982=DIRECTION('',(0.,1.,0.));
#983=DIRECTION('',(-1.,-5.55111512312578E-16,0.));
#984=DIRECTION('',(0.,1.,0.));
#985=DIRECTION('',(1.,5.55111512312578E-16,0.));
#986=DIRECTION('',(0.,1.,0.));
#987=DIRECTION('',(-1.,-5.55111512312578E-16,0.));
#988=DIRECTION('',(0.,1.,0.));
#989=DIRECTION('',(1.,0.,0.));
#990=DIRECTION('',(0.,-1.,0.));
#991=DIRECTION('',(-6.45478502689045E-17,1.,0.));
#992=DIRECTION('',(-1.,-8.16340459283203E-17,0.));
#993=DIRECTION('',(-6.45478502689045E-17,-1.,0.));
#994=DIRECTION('',(1.,0.,0.));
#995=DIRECTION('center_axis',(5.55111512312578E-16,1.,0.));
#996=DIRECTION('ref_axis',(1.,-5.55111512312578E-16,0.));
#997=DIRECTION('',(0.,0.,-1.));
#998=DIRECTION('',(1.,-5.55111512312578E-16,0.));
#999=DIRECTION('',(0.,0.,-1.));
#1000=DIRECTION('center_axis',(1.,0.,0.));
#1001=DIRECTION('ref_axis',(0.,-1.,0.));
#1002=DIRECTION('',(0.,0.,-1.));
#1003=DIRECTION('',(0.,-1.,0.));
#1004=DIRECTION('center_axis',(-5.55111512312578E-16,-1.,0.));
#1005=DIRECTION('ref_axis',(-1.,5.55111512312578E-16,0.));
#1006=DIRECTION('',(0.,0.,-1.));
#1007=DIRECTION('',(-1.,5.55111512312578E-16,0.));
#1008=DIRECTION('center_axis',(0.,0.,1.));
#1009=DIRECTION('ref_axis',(1.,0.,0.));
#1010=DIRECTION('',(0.,1.,0.));
#1011=DIRECTION('center_axis',(5.55111512312578E-16,1.,0.));
#1012=DIRECTION('ref_axis',(1.,-5.55111512312578E-16,0.));
#1013=DIRECTION('',(0.,0.,-1.));
#1014=DIRECTION('',(1.,-5.55111512312578E-16,0.));
#1015=DIRECTION('',(0.,0.,-1.));
#1016=DIRECTION('center_axis',(1.,0.,0.));
#1017=DIRECTION('ref_axis',(0.,-1.,0.));
#1018=DIRECTION('',(0.,0.,-1.));
#1019=DIRECTION('',(0.,-1.,0.));
#1020=DIRECTION('center_axis',(-5.55111512312578E-16,-1.,0.));
#1021=DIRECTION('ref_axis',(-1.,5.55111512312578E-16,0.));
#1022=DIRECTION('',(0.,0.,-1.));
#1023=DIRECTION('',(-1.,5.55111512312578E-16,0.));
#1024=DIRECTION('center_axis',(0.,0.,1.));
#1025=DIRECTION('ref_axis',(1.,0.,0.));
#1026=DIRECTION('',(0.,1.,0.));
#1027=DIRECTION('center_axis',(5.55111512312578E-16,-1.,0.));
#1028=DIRECTION('ref_axis',(-1.,-5.55111512312578E-16,0.));
#1029=DIRECTION('',(0.,0.,-1.));
#1030=DIRECTION('',(-1.,-5.55111512312578E-16,0.));
#1031=DIRECTION('',(0.,0.,-1.));
#1032=DIRECTION('center_axis',(1.,0.,0.));
#1033=DIRECTION('ref_axis',(0.,-1.,0.));
#1034=DIRECTION('',(0.,-1.,0.));
#1035=DIRECTION('',(0.,0.,-1.));
#1036=DIRECTION('center_axis',(-5.55111512312578E-16,1.,0.));
#1037=DIRECTION('ref_axis',(1.,5.55111512312578E-16,0.));
#1038=DIRECTION('',(1.,5.55111512312578E-16,0.));
#1039=DIRECTION('',(0.,0.,-1.));
#1040=DIRECTION('center_axis',(0.,0.,-1.));
#1041=DIRECTION('ref_axis',(-1.,0.,0.));
#1042=DIRECTION('',(0.,1.,0.));
#1043=DIRECTION('center_axis',(5.55111512312578E-16,-1.,0.));
#1044=DIRECTION('ref_axis',(-1.,-5.55111512312578E-16,0.));
#1045=DIRECTION('',(0.,0.,-1.));
#1046=DIRECTION('',(-1.,-5.55111512312578E-16,0.));
#1047=DIRECTION('',(0.,0.,-1.));
#1048=DIRECTION('center_axis',(1.,0.,0.));
#1049=DIRECTION('ref_axis',(0.,-1.,0.));
#1050=DIRECTION('',(0.,-1.,0.));
#1051=DIRECTION('',(0.,0.,-1.));
#1052=DIRECTION('center_axis',(-5.55111512312578E-16,1.,0.));
#1053=DIRECTION('ref_axis',(1.,5.55111512312578E-16,0.));
#1054=DIRECTION('',(1.,5.55111512312578E-16,0.));
#1055=DIRECTION('',(0.,0.,-1.));
#1056=DIRECTION('center_axis',(0.,0.,-1.));
#1057=DIRECTION('ref_axis',(-1.,0.,0.));
#1058=DIRECTION('',(0.,1.,0.));
#1059=DIRECTION('center_axis',(5.55111512312578E-16,-1.,0.));
#1060=DIRECTION('ref_axis',(-1.,-5.55111512312578E-16,0.));
#1061=DIRECTION('',(0.,0.,-1.));
#1062=DIRECTION('',(-1.,-5.55111512312578E-16,0.));
#1063=DIRECTION('',(0.,0.,-1.));
#1064=DIRECTION('center_axis',(1.,0.,0.));
#1065=DIRECTION('ref_axis',(0.,-1.,0.));
#1066=DIRECTION('',(0.,-1.,0.));
#1067=DIRECTION('',(0.,0.,-1.));
#1068=DIRECTION('center_axis',(-5.55111512312578E-16,1.,0.));
#1069=DIRECTION('ref_axis',(1.,5.55111512312578E-16,0.));
#1070=DIRECTION('',(1.,5.55111512312578E-16,0.));
#1071=DIRECTION('',(0.,0.,-1.));
#1072=DIRECTION('center_axis',(0.,0.,-1.));
#1073=DIRECTION('ref_axis',(-1.,0.,0.));
#1074=DIRECTION('',(0.,1.,0.));
#1075=DIRECTION('center_axis',(5.55111512312578E-16,1.,0.));
#1076=DIRECTION('ref_axis',(1.,-5.55111512312578E-16,0.));
#1077=DIRECTION('',(0.,0.,-1.));
#1078=DIRECTION('',(1.,-5.55111512312578E-16,0.));
#1079=DIRECTION('',(0.,0.,-1.));
#1080=DIRECTION('center_axis',(1.,0.,0.));
#1081=DIRECTION('ref_axis',(0.,-1.,0.));
#1082=DIRECTION('',(0.,0.,-1.));
#1083=DIRECTION('',(0.,-1.,0.));
#1084=DIRECTION('center_axis',(-5.55111512312578E-16,-1.,0.));
#1085=DIRECTION('ref_axis',(-1.,5.55111512312578E-16,0.));
#1086=DIRECTION('',(0.,0.,-1.));
#1087=DIRECTION('',(-1.,5.55111512312578E-16,0.));
#1088=DIRECTION('center_axis',(0.,0.,1.));
#1089=DIRECTION('ref_axis',(1.,0.,0.));
#1090=DIRECTION('',(0.,1.,0.));
#1091=DIRECTION('center_axis',(5.55111512312578E-16,-1.,0.));
#1092=DIRECTION('ref_axis',(-1.,-5.55111512312578E-16,0.));
#1093=DIRECTION('',(0.,0.,-1.));
#1094=DIRECTION('',(-1.,-5.55111512312578E-16,0.));
#1095=DIRECTION('',(0.,0.,-1.));
#1096=DIRECTION('center_axis',(1.,0.,0.));
#1097=DIRECTION('ref_axis',(0.,-1.,0.));
#1098=DIRECTION('',(0.,-1.,0.));
#1099=DIRECTION('',(0.,0.,-1.));
#1100=DIRECTION('center_axis',(-5.55111512312578E-16,1.,0.));
#1101=DIRECTION('ref_axis',(1.,5.55111512312578E-16,0.));
#1102=DIRECTION('',(1.,5.55111512312578E-16,0.));
#1103=DIRECTION('',(0.,0.,-1.));
#1104=DIRECTION('center_axis',(0.,0.,-1.));
#1105=DIRECTION('ref_axis',(-1.,0.,0.));
#1106=DIRECTION('',(0.,1.,0.));
#1107=DIRECTION('center_axis',(1.,6.45478502689045E-17,0.));
#1108=DIRECTION('ref_axis',(6.45478502689045E-17,-1.,0.));
#1109=DIRECTION('',(0.,0.,-1.));
#1110=DIRECTION('',(6.45478502689045E-17,-1.,0.));
#1111=DIRECTION('',(0.,0.,-1.));
#1112=DIRECTION('center_axis',(-8.16340459283203E-17,1.,0.));
#1113=DIRECTION('ref_axis',(1.,8.16340459283203E-17,0.));
#1114=DIRECTION('',(1.,8.16340459283203E-17,0.));
#1115=DIRECTION('',(0.,0.,-1.));
#1116=DIRECTION('center_axis',(-1.,6.45478502689045E-17,0.));
#1117=DIRECTION('ref_axis',(6.45478502689045E-17,1.,0.));
#1118=DIRECTION('',(6.45478502689045E-17,1.,0.));
#1119=DIRECTION('',(0.,0.,-1.));
#1120=DIRECTION('center_axis',(0.,-1.,0.));
#1121=DIRECTION('ref_axis',(-1.,0.,0.));
#1122=DIRECTION('',(-1.,0.,0.));
#1123=DIRECTION('center_axis',(0.,0.,-1.));
#1124=DIRECTION('ref_axis',(-1.,0.,0.));
#1125=DIRECTION('center_axis',(1.,0.,0.));
#1126=DIRECTION('ref_axis',(0.,1.,0.));
#1127=DIRECTION('',(0.,0.,1.));
#1128=DIRECTION('',(0.,1.,0.));
#1129=DIRECTION('',(0.,0.,1.));
#1130=DIRECTION('center_axis',(0.,-1.,0.));
#1131=DIRECTION('ref_axis',(1.,0.,0.));
#1132=DIRECTION('',(1.,0.,0.));
#1133=DIRECTION('',(0.,0.,1.));
#1134=DIRECTION('center_axis',(-1.,0.,0.));
#1135=DIRECTION('ref_axis',(0.,-1.,0.));
#1136=DIRECTION('',(0.,-1.,0.));
#1137=DIRECTION('',(0.,0.,1.));
#1138=DIRECTION('center_axis',(0.,1.,0.));
#1139=DIRECTION('ref_axis',(-1.,0.,0.));
#1140=DIRECTION('',(-1.,0.,0.));
#1141=DIRECTION('center_axis',(0.,0.,1.));
#1142=DIRECTION('ref_axis',(1.,0.,0.));
#1143=CARTESIAN_POINT('',(0.,0.,0.));
#1144=CARTESIAN_POINT('Origin',(3.5,1.705,0.));
#1145=CARTESIAN_POINT('',(3.5,1.705,0.));
#1146=CARTESIAN_POINT('',(4.,1.705,0.));
#1147=CARTESIAN_POINT('',(1.75,1.705,0.));
#1148=CARTESIAN_POINT('',(3.5,1.705,-0.02));
#1149=CARTESIAN_POINT('',(3.5,1.705,0.));
#1150=CARTESIAN_POINT('',(4.,1.705,-0.02));
#1151=CARTESIAN_POINT('',(3.5,1.705,-0.02));
#1152=CARTESIAN_POINT('',(4.,1.705,0.));
#1153=CARTESIAN_POINT('Origin',(3.5,2.105,0.));
#1154=CARTESIAN_POINT('',(3.5,2.105,0.));
#1155=CARTESIAN_POINT('',(3.5,1.0525,0.));
#1156=CARTESIAN_POINT('',(3.5,2.105,-0.02));
#1157=CARTESIAN_POINT('',(3.5,2.105,0.));
#1158=CARTESIAN_POINT('',(3.5,2.105,-0.02));
#1159=CARTESIAN_POINT('Origin',(4.,2.105,0.));
#1160=CARTESIAN_POINT('',(4.,2.105,0.));
#1161=CARTESIAN_POINT('',(2.,2.105,0.));
#1162=CARTESIAN_POINT('',(4.,2.105,-0.02));
#1163=CARTESIAN_POINT('',(4.,2.105,0.));
#1164=CARTESIAN_POINT('',(4.,2.105,-0.02));
#1165=CARTESIAN_POINT('Origin',(3.75,1.905,-0.02));
#1166=CARTESIAN_POINT('',(4.,1.705,-0.02));
#1167=CARTESIAN_POINT('Origin',(-5.55111512312578E-16,-5.55111512312578E-16,
0.));
#1168=CARTESIAN_POINT('',(4.,0.835,0.));
#1169=CARTESIAN_POINT('',(4.,3.,0.));
#1170=CARTESIAN_POINT('',(3.5,0.835,0.));
#1171=CARTESIAN_POINT('',(2.,0.835000000000001,0.));
#1172=CARTESIAN_POINT('',(3.5,0.435,0.));
#1173=CARTESIAN_POINT('',(3.5,0.4175,0.));
#1174=CARTESIAN_POINT('',(4.,0.435,0.));
#1175=CARTESIAN_POINT('',(1.75,0.435000000000001,0.));
#1176=CARTESIAN_POINT('',(4.,-0.435,0.));
#1177=CARTESIAN_POINT('',(4.,3.,0.));
#1178=CARTESIAN_POINT('',(3.5,-0.435,0.));
#1179=CARTESIAN_POINT('',(2.,-0.434999999999999,0.));
#1180=CARTESIAN_POINT('',(3.5,-0.835,0.));
#1181=CARTESIAN_POINT('',(3.5,-0.2175,0.));
#1182=CARTESIAN_POINT('',(4.,-0.835,0.));
#1183=CARTESIAN_POINT('',(1.75,-0.834999999999999,0.));
#1184=CARTESIAN_POINT('',(4.,-1.705,0.));
#1185=CARTESIAN_POINT('',(4.,3.,0.));
#1186=CARTESIAN_POINT('',(3.5,-1.705,0.));
#1187=CARTESIAN_POINT('',(2.,-1.705,0.));
#1188=CARTESIAN_POINT('',(3.5,-2.105,0.));
#1189=CARTESIAN_POINT('',(3.5,-0.8525,0.));
#1190=CARTESIAN_POINT('',(4.,-2.105,0.));
#1191=CARTESIAN_POINT('',(1.75,-2.105,0.));
#1192=CARTESIAN_POINT('',(4.,-3.,0.));
#1193=CARTESIAN_POINT('',(4.,3.,0.));
#1194=CARTESIAN_POINT('',(-4.,-3.,0.));
#1195=CARTESIAN_POINT('',(4.,-3.,0.));
#1196=CARTESIAN_POINT('',(-4.,-2.105,0.));
#1197=CARTESIAN_POINT('',(-4.,-3.,0.));
#1198=CARTESIAN_POINT('',(-3.5,-2.105,0.));
#1199=CARTESIAN_POINT('',(-1.75,-2.105,0.));
#1200=CARTESIAN_POINT('',(-3.5,-1.705,0.));
#1201=CARTESIAN_POINT('',(-3.5,-0.8525,0.));
#1202=CARTESIAN_POINT('',(-4.,-1.705,0.));
#1203=CARTESIAN_POINT('',(-2.,-1.705,0.));
#1204=CARTESIAN_POINT('',(-4.,-0.835,0.));
#1205=CARTESIAN_POINT('',(-4.,-3.,0.));
#1206=CARTESIAN_POINT('',(-3.5,-0.835,0.));
#1207=CARTESIAN_POINT('',(-1.75,-0.834999999999999,0.));
#1208=CARTESIAN_POINT('',(-3.5,-0.435,0.));
#1209=CARTESIAN_POINT('',(-3.5,-0.2175,0.));
#1210=CARTESIAN_POINT('',(-4.,-0.435,0.));
#1211=CARTESIAN_POINT('',(-2.,-0.434999999999999,0.));
#1212=CARTESIAN_POINT('',(-4.,0.435,0.));
#1213=CARTESIAN_POINT('',(-4.,-3.,0.));
#1214=CARTESIAN_POINT('',(-3.5,0.435,0.));
#1215=CARTESIAN_POINT('',(-1.75,0.435000000000001,0.));
#1216=CARTESIAN_POINT('',(-3.5,0.835,0.));
#1217=CARTESIAN_POINT('',(-3.5,0.4175,0.));
#1218=CARTESIAN_POINT('',(-4.,0.835,0.));
#1219=CARTESIAN_POINT('',(-2.,0.835000000000001,0.));
#1220=CARTESIAN_POINT('',(-4.,1.705,0.));
#1221=CARTESIAN_POINT('',(-4.,-3.,0.));
#1222=CARTESIAN_POINT('',(-3.5,1.705,0.));
#1223=CARTESIAN_POINT('',(-1.75,1.705,0.));
#1224=CARTESIAN_POINT('',(-3.5,2.105,0.));
#1225=CARTESIAN_POINT('',(-3.5,1.0525,0.));
#1226=CARTESIAN_POINT('',(-4.,2.105,0.));
#1227=CARTESIAN_POINT('',(-2.,2.105,0.));
#1228=CARTESIAN_POINT('',(-4.,3.,0.));
#1229=CARTESIAN_POINT('',(-4.,-3.,0.));
#1230=CARTESIAN_POINT('',(4.,3.,0.));
#1231=CARTESIAN_POINT('',(-4.,3.,0.));
#1232=CARTESIAN_POINT('',(4.,3.,0.));
#1233=CARTESIAN_POINT('',(1.7,-2.15,0.));
#1234=CARTESIAN_POINT('',(1.7,2.15,0.));
#1235=CARTESIAN_POINT('',(1.7,1.075,0.));
#1236=CARTESIAN_POINT('',(-1.7,2.15,0.));
#1237=CARTESIAN_POINT('',(-0.85,2.15,0.));
#1238=CARTESIAN_POINT('',(-1.7,-2.15,0.));
#1239=CARTESIAN_POINT('',(-1.7,-1.075,0.));
#1240=CARTESIAN_POINT('',(0.85,-2.15,0.));
#1241=CARTESIAN_POINT('Origin',(3.5,0.435,0.));
#1242=CARTESIAN_POINT('',(3.5,0.435,-0.02));
#1243=CARTESIAN_POINT('',(3.5,0.435,0.));
#1244=CARTESIAN_POINT('',(4.,0.435,-0.02));
#1245=CARTESIAN_POINT('',(3.5,0.435,-0.02));
#1246=CARTESIAN_POINT('',(4.,0.435,0.));
#1247=CARTESIAN_POINT('Origin',(3.5,0.835,0.));
#1248=CARTESIAN_POINT('',(3.5,0.835,-0.02));
#1249=CARTESIAN_POINT('',(3.5,0.835,0.));
#1250=CARTESIAN_POINT('',(3.5,0.835,-0.02));
#1251=CARTESIAN_POINT('Origin',(4.,0.835,0.));
#1252=CARTESIAN_POINT('',(4.,0.835,-0.02));
#1253=CARTESIAN_POINT('',(4.,0.835,0.));
#1254=CARTESIAN_POINT('',(4.,0.835,-0.02));
#1255=CARTESIAN_POINT('Origin',(3.75,0.635,-0.02));
#1256=CARTESIAN_POINT('',(4.,0.435,-0.02));
#1257=CARTESIAN_POINT('Origin',(3.5,-0.835,0.));
#1258=CARTESIAN_POINT('',(3.5,-0.835,-0.02));
#1259=CARTESIAN_POINT('',(3.5,-0.835,0.));
#1260=CARTESIAN_POINT('',(4.,-0.835,-0.02));
#1261=CARTESIAN_POINT('',(3.5,-0.835,-0.02));
#1262=CARTESIAN_POINT('',(4.,-0.835,0.));
#1263=CARTESIAN_POINT('Origin',(3.5,-0.435,0.));
#1264=CARTESIAN_POINT('',(3.5,-0.435,-0.02));
#1265=CARTESIAN_POINT('',(3.5,-0.435,0.));
#1266=CARTESIAN_POINT('',(3.5,-0.435,-0.02));
#1267=CARTESIAN_POINT('Origin',(4.,-0.435,0.));
#1268=CARTESIAN_POINT('',(4.,-0.435,-0.02));
#1269=CARTESIAN_POINT('',(4.,-0.435,0.));
#1270=CARTESIAN_POINT('',(4.,-0.435,-0.02));
#1271=CARTESIAN_POINT('Origin',(3.75,-0.635,-0.02));
#1272=CARTESIAN_POINT('',(4.,-0.835,-0.02));
#1273=CARTESIAN_POINT('Origin',(-3.5,1.705,0.));
#1274=CARTESIAN_POINT('',(-4.,1.705,-0.02));
#1275=CARTESIAN_POINT('',(-4.,1.705,0.));
#1276=CARTESIAN_POINT('',(-3.5,1.705,-0.02));
#1277=CARTESIAN_POINT('',(-3.5,1.705,-0.02));
#1278=CARTESIAN_POINT('',(-3.5,1.705,0.));
#1279=CARTESIAN_POINT('Origin',(-3.5,2.105,0.));
#1280=CARTESIAN_POINT('',(-3.5,2.105,-0.02));
#1281=CARTESIAN_POINT('',(-3.5,2.105,-0.02));
#1282=CARTESIAN_POINT('',(-3.5,2.105,0.));
#1283=CARTESIAN_POINT('Origin',(-4.,2.105,0.));
#1284=CARTESIAN_POINT('',(-4.,2.105,-0.02));
#1285=CARTESIAN_POINT('',(-4.,2.105,-0.02));
#1286=CARTESIAN_POINT('',(-4.,2.105,0.));
#1287=CARTESIAN_POINT('Origin',(-3.75,1.905,-0.02));
#1288=CARTESIAN_POINT('',(-4.,1.705,-0.02));
#1289=CARTESIAN_POINT('Origin',(-3.5,0.435,0.));
#1290=CARTESIAN_POINT('',(-4.,0.435,-0.02));
#1291=CARTESIAN_POINT('',(-4.,0.435,0.));
#1292=CARTESIAN_POINT('',(-3.5,0.435,-0.02));
#1293=CARTESIAN_POINT('',(-3.5,0.435,-0.02));
#1294=CARTESIAN_POINT('',(-3.5,0.435,0.));
#1295=CARTESIAN_POINT('Origin',(-3.5,0.835,0.));
#1296=CARTESIAN_POINT('',(-3.5,0.835,-0.02));
#1297=CARTESIAN_POINT('',(-3.5,0.835,-0.02));
#1298=CARTESIAN_POINT('',(-3.5,0.835,0.));
#1299=CARTESIAN_POINT('Origin',(-4.,0.835,0.));
#1300=CARTESIAN_POINT('',(-4.,0.835,-0.02));
#1301=CARTESIAN_POINT('',(-4.,0.835,-0.02));
#1302=CARTESIAN_POINT('',(-4.,0.835,0.));
#1303=CARTESIAN_POINT('Origin',(-3.75,0.635,-0.02));
#1304=CARTESIAN_POINT('',(-4.,0.435,-0.02));
#1305=CARTESIAN_POINT('Origin',(-3.5,-0.835,0.));
#1306=CARTESIAN_POINT('',(-4.,-0.835,-0.02));
#1307=CARTESIAN_POINT('',(-4.,-0.835,0.));
#1308=CARTESIAN_POINT('',(-3.5,-0.835,-0.02));
#1309=CARTESIAN_POINT('',(-3.5,-0.835,-0.02));
#1310=CARTESIAN_POINT('',(-3.5,-0.835,0.));
#1311=CARTESIAN_POINT('Origin',(-3.5,-0.435,0.));
#1312=CARTESIAN_POINT('',(-3.5,-0.435,-0.02));
#1313=CARTESIAN_POINT('',(-3.5,-0.435,-0.02));
#1314=CARTESIAN_POINT('',(-3.5,-0.435,0.));
#1315=CARTESIAN_POINT('Origin',(-4.,-0.435,0.));
#1316=CARTESIAN_POINT('',(-4.,-0.435,-0.02));
#1317=CARTESIAN_POINT('',(-4.,-0.435,-0.02));
#1318=CARTESIAN_POINT('',(-4.,-0.435,0.));
#1319=CARTESIAN_POINT('Origin',(-3.75,-0.635,-0.02));
#1320=CARTESIAN_POINT('',(-4.,-0.835,-0.02));
#1321=CARTESIAN_POINT('Origin',(3.5,-2.105,0.));
#1322=CARTESIAN_POINT('',(3.5,-2.105,-0.02));
#1323=CARTESIAN_POINT('',(3.5,-2.105,0.));
#1324=CARTESIAN_POINT('',(4.,-2.105,-0.02));
#1325=CARTESIAN_POINT('',(3.5,-2.105,-0.02));
#1326=CARTESIAN_POINT('',(4.,-2.105,0.));
#1327=CARTESIAN_POINT('Origin',(3.5,-1.705,0.));
#1328=CARTESIAN_POINT('',(3.5,-1.705,-0.02));
#1329=CARTESIAN_POINT('',(3.5,-1.705,0.));
#1330=CARTESIAN_POINT('',(3.5,-1.705,-0.02));
#1331=CARTESIAN_POINT('Origin',(4.,-1.705,0.));
#1332=CARTESIAN_POINT('',(4.,-1.705,-0.02));
#1333=CARTESIAN_POINT('',(4.,-1.705,0.));
#1334=CARTESIAN_POINT('',(4.,-1.705,-0.02));
#1335=CARTESIAN_POINT('Origin',(3.75,-1.905,-0.02));
#1336=CARTESIAN_POINT('',(4.,-2.105,-0.02));
#1337=CARTESIAN_POINT('Origin',(-3.5,-2.105,0.));
#1338=CARTESIAN_POINT('',(-4.,-2.105,-0.02));
#1339=CARTESIAN_POINT('',(-4.,-2.105,0.));
#1340=CARTESIAN_POINT('',(-3.5,-2.105,-0.02));
#1341=CARTESIAN_POINT('',(-3.5,-2.105,-0.02));
#1342=CARTESIAN_POINT('',(-3.5,-2.105,0.));
#1343=CARTESIAN_POINT('Origin',(-3.5,-1.705,0.));
#1344=CARTESIAN_POINT('',(-3.5,-1.705,-0.02));
#1345=CARTESIAN_POINT('',(-3.5,-1.705,-0.02));
#1346=CARTESIAN_POINT('',(-3.5,-1.705,0.));
#1347=CARTESIAN_POINT('Origin',(-4.,-1.705,0.));
#1348=CARTESIAN_POINT('',(-4.,-1.705,-0.02));
#1349=CARTESIAN_POINT('',(-4.,-1.705,-0.02));
#1350=CARTESIAN_POINT('',(-4.,-1.705,0.));
#1351=CARTESIAN_POINT('Origin',(-3.75,-1.905,-0.02));
#1352=CARTESIAN_POINT('',(-4.,-2.105,-0.02));
#1353=CARTESIAN_POINT('Origin',(1.7,2.15,0.));
#1354=CARTESIAN_POINT('',(1.7,-2.15,-0.02));
#1355=CARTESIAN_POINT('',(1.7,-2.15,0.));
#1356=CARTESIAN_POINT('',(1.7,2.15,-0.02));
#1357=CARTESIAN_POINT('',(1.7,-2.15,-0.02));
#1358=CARTESIAN_POINT('',(1.7,2.15,0.));
#1359=CARTESIAN_POINT('Origin',(-1.7,2.15,0.));
#1360=CARTESIAN_POINT('',(-1.7,2.15,-0.02));
#1361=CARTESIAN_POINT('',(1.7,2.15,-0.02));
#1362=CARTESIAN_POINT('',(-1.7,2.15,0.));
#1363=CARTESIAN_POINT('Origin',(-1.7,-2.15,0.));
#1364=CARTESIAN_POINT('',(-1.7,-2.15,-0.02));
#1365=CARTESIAN_POINT('',(-1.7,2.15,-0.02));
#1366=CARTESIAN_POINT('',(-1.7,-2.15,0.));
#1367=CARTESIAN_POINT('Origin',(1.7,-2.15,0.));
#1368=CARTESIAN_POINT('',(-1.7,-2.15,-0.02));
#1369=CARTESIAN_POINT('Origin',(0.,0.,-0.02));
#1370=CARTESIAN_POINT('Origin',(4.,-3.,0.));
#1371=CARTESIAN_POINT('',(4.,3.,0.75));
#1372=CARTESIAN_POINT('',(4.,3.,0.));
#1373=CARTESIAN_POINT('',(4.,-3.,0.75));
#1374=CARTESIAN_POINT('',(4.,3.,0.75));
#1375=CARTESIAN_POINT('',(4.,-3.,0.));
#1376=CARTESIAN_POINT('Origin',(-4.,-3.,0.));
#1377=CARTESIAN_POINT('',(-4.,-3.,0.75));
#1378=CARTESIAN_POINT('',(4.,-3.,0.75));
#1379=CARTESIAN_POINT('',(-4.,-3.,0.));
#1380=CARTESIAN_POINT('Origin',(-4.,3.,0.));
#1381=CARTESIAN_POINT('',(-4.,3.,0.75));
#1382=CARTESIAN_POINT('',(-4.,-3.,0.75));
#1383=CARTESIAN_POINT('',(-4.,3.,0.));
#1384=CARTESIAN_POINT('Origin',(4.,3.,0.));
#1385=CARTESIAN_POINT('',(-4.,3.,0.75));
#1386=CARTESIAN_POINT('Origin',(-5.55111512312578E-16,-5.55111512312578E-16,
0.75));
#1387=UNCERTAINTY_MEASURE_WITH_UNIT(LENGTH_MEASURE(0.01),#1391,
'DISTANCE_ACCURACY_VALUE',
'Maximum model space distance between geometric entities at asserted c
onnectivities');
#1388=UNCERTAINTY_MEASURE_WITH_UNIT(LENGTH_MEASURE(0.01),#1391,
'DISTANCE_ACCURACY_VALUE',
'Maximum model space distance between geometric entities at asserted c
onnectivities');
#1389=(
GEOMETRIC_REPRESENTATION_CONTEXT(3)
GLOBAL_UNCERTAINTY_ASSIGNED_CONTEXT((#1387))
GLOBAL_UNIT_ASSIGNED_CONTEXT((#1391,#1393,#1394))
REPRESENTATION_CONTEXT('','3D')
);
#1390=(
GEOMETRIC_REPRESENTATION_CONTEXT(3)
GLOBAL_UNCERTAINTY_ASSIGNED_CONTEXT((#1388))
GLOBAL_UNIT_ASSIGNED_CONTEXT((#1391,#1393,#1394))
REPRESENTATION_CONTEXT('','3D')
);
#1391=(
LENGTH_UNIT()
NAMED_UNIT(*)
SI_UNIT(.MILLI.,.METRE.)
);
#1392=(
LENGTH_UNIT()
NAMED_UNIT(*)
SI_UNIT($,.METRE.)
);
#1393=(
NAMED_UNIT(*)
PLANE_ANGLE_UNIT()
SI_UNIT($,.RADIAN.)
);
#1394=(
NAMED_UNIT(*)
SI_UNIT($,.STERADIAN.)
SOLID_ANGLE_UNIT()
);
#1395=SHAPE_DEFINITION_REPRESENTATION(#1396,#1397);
#1396=PRODUCT_DEFINITION_SHAPE('',$,#1399);
#1397=SHAPE_REPRESENTATION('',(#891),#1389);
#1398=PRODUCT_DEFINITION_CONTEXT('part definition',#1403,'design');
#1399=PRODUCT_DEFINITION('WSON-8(8mm x 6mm)','WSON-8(8mm x 6mm) v2',#1400,
#1398);
#1400=PRODUCT_DEFINITION_FORMATION('',$,#1405);
#1401=PRODUCT_RELATED_PRODUCT_CATEGORY('WSON-8(8mm x 6mm) v2',
'WSON-8(8mm x 6mm) v2',(#1405));
#1402=APPLICATION_PROTOCOL_DEFINITION('international standard',
'automotive_design',2009,#1403);
#1403=APPLICATION_CONTEXT(
'Core Data for Automotive Mechanical Design Process');
#1404=PRODUCT_CONTEXT('part definition',#1403,'mechanical');
#1405=PRODUCT('WSON-8(8mm x 6mm)','WSON-8(8mm x 6mm) v2',$,(#1404));
#1406=PRESENTATION_STYLE_ASSIGNMENT((#1408));
#1407=PRESENTATION_STYLE_ASSIGNMENT((#1409));
#1408=SURFACE_STYLE_USAGE(.BOTH.,#1410);
#1409=SURFACE_STYLE_USAGE(.BOTH.,#1411);
#1410=SURFACE_SIDE_STYLE('',(#1412));
#1411=SURFACE_SIDE_STYLE('',(#1413));
#1412=SURFACE_STYLE_FILL_AREA(#1414);
#1413=SURFACE_STYLE_FILL_AREA(#1415);
#1414=FILL_AREA_STYLE('Plastic - Matte (Black)',(#1416));
#1415=FILL_AREA_STYLE('Aluminum - Polished',(#1417));
#1416=FILL_AREA_STYLE_COLOUR('Plastic - Matte (Black)',#1418);
#1417=FILL_AREA_STYLE_COLOUR('Aluminum - Polished',#1419);
#1418=COLOUR_RGB('Plastic - Matte (Black)',0.0980392156862745,0.0980392156862745,
0.0980392156862745);
#1419=COLOUR_RGB('Aluminum - Polished',0.96078431372549,0.96078431372549,
0.964705882352941);
ENDSEC;
END-ISO-10303-21;
