%TF.GenerationSoftware,KiCad,Pcbnew,9.0.7*%
%TF.CreationDate,2026-03-16T08:42:18+09:00*%
%TF.ProjectId,Precision Clock,50726563-6973-4696-9f6e-20436c6f636b,v0*%
%TF.SameCoordinates,Original*%
%TF.FileFunction,Soldermask,Bot*%
%TF.FilePolarity,Negative*%
%FSLAX46Y46*%
G04 Gerber Fmt 4.6, Leading zero omitted, Abs format (unit mm)*
G04 Created by KiCad (PCBNEW 9.0.7) date 2026-03-16 08:42:18*
%MOMM*%
%LPD*%
G01*
G04 APERTURE LIST*
%ADD10C,3.200000*%
%ADD11C,1.800000*%
%ADD12O,2.100000X1.100000*%
%ADD13O,2.600000X1.100000*%
%ADD14R,2.000000X2.000000*%
%ADD15C,2.000000*%
%ADD16R,5.080000X2.420000*%
%ADD17R,1.800000X1.800000*%
G04 APERTURE END LIST*
D10*
%TO.C,H1*%
X255000000Y-77500000D03*
%TD*%
%TO.C,H2*%
X45000000Y-77500000D03*
%TD*%
%TO.C,H3*%
X45000000Y-100000000D03*
%TD*%
%TO.C,H4*%
X255000000Y-122500000D03*
%TD*%
%TO.C,H5*%
X45000000Y-122500000D03*
%TD*%
D11*
%TO.C,SW4*%
X58000000Y-108750000D03*
X58000000Y-113750000D03*
X58000000Y-111250000D03*
X63000000Y-108750000D03*
X63000000Y-113750000D03*
%TD*%
D12*
%TO.C,J2*%
X252695000Y-115320000D03*
D13*
X258055000Y-115320000D03*
D12*
X252695000Y-106680000D03*
D13*
X258055000Y-106680000D03*
%TD*%
D11*
%TO.C,SW1*%
X58000000Y-86250000D03*
X58000000Y-91250000D03*
X58000000Y-88750000D03*
X63000000Y-86250000D03*
X63000000Y-91250000D03*
%TD*%
D14*
%TO.C,LS1*%
X95000000Y-100000000D03*
D15*
X85000000Y-100000000D03*
%TD*%
D16*
%TO.C,J1*%
X255180000Y-92880000D03*
X255180000Y-84120000D03*
%TD*%
D15*
%TO.C,U12*%
X138376620Y-120320000D03*
X135836620Y-120320000D03*
X133296620Y-120320000D03*
X130756620Y-120320000D03*
X128216620Y-120320000D03*
X128216620Y-79680000D03*
X130756620Y-79680000D03*
X133296620Y-79680000D03*
X135836620Y-79680000D03*
X138376620Y-79680000D03*
%TD*%
%TO.C,U11*%
X104978310Y-120320000D03*
X102438310Y-120320000D03*
X99898310Y-120320000D03*
X97358310Y-120320000D03*
X94818310Y-120320000D03*
X94818310Y-79680000D03*
X97358310Y-79680000D03*
X99898310Y-79680000D03*
X102438310Y-79680000D03*
X104978310Y-79680000D03*
%TD*%
%TO.C,U10*%
X71580000Y-120320000D03*
X69040000Y-120320000D03*
X66500000Y-120320000D03*
X63960000Y-120320000D03*
X61420000Y-120320000D03*
X61420000Y-79680000D03*
X63960000Y-79680000D03*
X66500000Y-79680000D03*
X69040000Y-79680000D03*
X71580000Y-79680000D03*
%TD*%
%TO.C,U15*%
X238571550Y-120320000D03*
X236031550Y-120320000D03*
X233491550Y-120320000D03*
X230951550Y-120320000D03*
X228411550Y-120320000D03*
X228411550Y-79680000D03*
X230951550Y-79680000D03*
X233491550Y-79680000D03*
X236031550Y-79680000D03*
X238571550Y-79680000D03*
%TD*%
%TO.C,U14*%
X205173240Y-120320000D03*
X202633240Y-120320000D03*
X200093240Y-120320000D03*
X197553240Y-120320000D03*
X195013240Y-120320000D03*
X195013240Y-79680000D03*
X197553240Y-79680000D03*
X200093240Y-79680000D03*
X202633240Y-79680000D03*
X205173240Y-79680000D03*
%TD*%
D17*
%TO.C,Q4*%
X253750000Y-100000000D03*
D11*
X256290000Y-100000000D03*
%TD*%
D15*
%TO.C,U13*%
X171774930Y-120320000D03*
X169234930Y-120320000D03*
X166694930Y-120320000D03*
X164154930Y-120320000D03*
X161614930Y-120320000D03*
X161614930Y-79680000D03*
X164154930Y-79680000D03*
X166694930Y-79680000D03*
X169234930Y-79680000D03*
X171774930Y-79680000D03*
%TD*%
M02*
