M48
; DRILL file {KiCad 9.0.7-1.fc43} date 2026-03-14T20:35:14+0900
; FORMAT={-:-/ absolute / inch / decimal}
; #@! TF.CreationDate,2026-03-14T20:35:14+09:00
; #@! TF.GenerationSoftware,Kicad,Pcbnew,9.0.7-1.fc43
; #@! TF.FileFunction,Plated,1,4,PTH
FMAT,2
INCH
; #@! TA.AperFunction,Plated,PTH,ViaDrill
T1C0.0118
; #@! TA.AperFunction,Plated,PTH,ComponentDrill
T2C0.0181
; #@! TA.AperFunction,Plated,PTH,ComponentDrill
T3C0.0236
; #@! TA.AperFunction,Plated,PTH,ComponentDrill
T4C0.0315
; #@! TA.AperFunction,Plated,PTH,ComponentDrill
T5C0.0354
; #@! TA.AperFunction,Plated,PTH,ComponentDrill
T6C0.0394
%
G90
G05
T1
X2.1949Y-4.7047
X2.1949Y-4.7441
X2.1949Y-4.7835
X2.313Y-3.1299
X2.5984Y-3.0236
X2.6673Y-3.5433
X2.6673Y-3.6024
X2.6673Y-4.4291
X2.6673Y-4.498
X2.7067Y-3.5039
X2.7067Y-4.3898
X2.7461Y-3.6516
X2.7461Y-4.5472
X2.7854Y-3.5433
X2.7854Y-3.6024
X2.7854Y-4.4291
X2.7854Y-4.498
X2.8248Y-3.5039
X2.8248Y-4.3898
X2.8346Y-3.7992
X2.8504Y-4.5984
X2.8839Y-3.3366
X2.8839Y-4.2224
X2.9035Y-4.4291
X2.9035Y-4.498
X2.9134Y-3.5433
X2.9134Y-3.6024
X2.9429Y-3.5039
X2.9429Y-4.3898
X2.9921Y-3.9272
X2.9921Y-3.9567
X2.9921Y-3.9862
X3.002Y-3.3366
X3.002Y-4.2224
X3.1181Y-4.5669
X3.1299Y-4.439
X3.1398Y-3.8976
X3.1496Y-3.1299
X3.1791Y-4.439
X3.189Y-3.252
X3.5039Y-3.4449
X3.5138Y-4.7047
X3.5138Y-4.7441
X3.5138Y-4.7835
X3.5433Y-4.1142
X3.5433Y-4.1929
X3.5925Y-4.1535
X3.622Y-3.1398
X3.937Y-3.8484
X3.9862Y-3.8976
X4.252Y-3.1024
X4.4291Y-3.7008
X4.4331Y-3.6457
X4.8327Y-4.7047
X4.8327Y-4.7441
X4.8327Y-4.7835
X5.1102Y-3.4173
X5.2756Y-3.0157
X5.2854Y-3.7598
X5.2854Y-3.8091
X5.3248Y-3.7205
X5.3248Y-3.8878
X5.3248Y-4.0059
X5.3248Y-4.0354
X5.3248Y-4.065
X5.3248Y-4.0945
X5.3543Y-3.8878
X5.3642Y-4.1732
X5.3642Y-4.2126
X5.3642Y-4.252
X5.3839Y-3.5433
X5.3839Y-3.7205
X5.4232Y-3.6024
X5.5512Y-3.5984
X5.5758Y-3.6467
X5.6014Y-3.6929
X6.0728Y-3.7598
X6.0728Y-3.8091
X6.1122Y-3.7205
X6.1122Y-3.8878
X6.1122Y-4.0059
X6.1122Y-4.0354
X6.1122Y-4.065
X6.1122Y-4.0945
X6.1417Y-3.8878
X6.1516Y-4.1732
X6.1516Y-4.2126
X6.1516Y-4.252
X6.1516Y-4.7047
X6.1516Y-4.7441
X6.1516Y-4.7835
X6.1713Y-3.5433
X6.1713Y-3.7205
X6.2106Y-3.6024
X6.2598Y-3.1398
X6.3287Y-4.1339
X6.3622Y-3.5984
X6.3622Y-3.6457
X6.3632Y-3.6929
X6.3681Y-4.1339
X6.4075Y-4.1339
X6.4961Y-3.9961
X6.5354Y-3.2283
X6.6614Y-3.3307
X6.7165Y-3.3268
X6.8602Y-3.1398
X6.8602Y-3.7598
X6.8602Y-3.8091
X6.8996Y-3.7205
X6.8996Y-3.8878
X6.8996Y-4.0059
X6.8996Y-4.0354
X6.8996Y-4.065
X6.8996Y-4.0945
X6.9291Y-3.8878
X6.939Y-4.1732
X6.939Y-4.2126
X6.939Y-4.252
X6.9587Y-3.5433
X6.9587Y-3.7205
X6.998Y-3.5925
X7.1575Y-3.5984
X7.1575Y-3.6457
X7.1762Y-3.6929
X7.3228Y-3.189
X7.3819Y-3.2283
X7.4016Y-3.7795
X7.4606Y-3.7795
X7.4606Y-3.8287
X7.4705Y-4.7047
X7.4705Y-4.7441
X7.4705Y-4.7835
X7.5Y-3.2677
X7.6181Y-4.252
X7.6378Y-3.6614
X7.6378Y-3.7992
X7.6378Y-3.8386
X7.6378Y-3.874
X7.6378Y-3.9173
X7.6378Y-3.9567
X7.6378Y-3.9961
X7.6969Y-3.3858
X7.6969Y-3.6614
X7.7165Y-4.0551
X7.7165Y-4.2126
X7.7165Y-4.3504
X7.7559Y-4.0945
X7.7953Y-3.5827
X7.815Y-4.2913
X7.8346Y-3.5827
X7.8346Y-4.4685
X7.8543Y-3.6417
X7.874Y-3.8976
X7.874Y-3.937
X7.9035Y-3.3563
X7.9035Y-3.5728
X7.9134Y-4.0354
X7.9134Y-4.252
X7.9134Y-4.2913
X7.9134Y-4.3504
X7.9232Y-3.8386
X7.9429Y-3.3563
X7.9429Y-3.5728
X7.9429Y-3.6811
X7.9528Y-3.9567
X7.9528Y-3.9961
X7.9823Y-3.3563
X7.9823Y-3.5728
X7.9823Y-3.8878
X8.0118Y-3.8386
X8.0512Y-3.8681
X8.0571Y-3.9134
X8.0571Y-3.9528
X8.061Y-3.3465
X8.1004Y-3.3465
X8.1004Y-3.6417
X8.1201Y-3.7795
X8.1398Y-4.2028
X8.1398Y-4.252
X8.1496Y-3.6122
X8.1693Y-3.1398
X8.189Y-3.3858
X8.189Y-3.4449
X8.189Y-3.75
X8.2185Y-3.75
X8.2283Y-4.1732
X8.2776Y-3.7598
X8.2776Y-4.5571
X8.2874Y-3.9173
X8.2972Y-4.0256
X8.3268Y-3.7697
X8.3366Y-3.9173
X8.3366Y-4.0256
X8.3366Y-4.1732
X8.3366Y-4.5571
X8.3386Y-4.4331
X8.3386Y-4.4646
X8.3386Y-4.4961
X8.3465Y-3.6122
X8.3661Y-3.9173
X8.3661Y-4.5571
X8.3701Y-4.4331
X8.3701Y-4.4646
X8.3701Y-4.4961
X8.372Y-3.8287
X8.376Y-3.7697
X8.3957Y-3.9173
X8.3957Y-4.2815
X8.4055Y-3.1594
X8.4449Y-4.0256
X8.4744Y-4.5571
X8.4941Y-3.2087
X8.4941Y-3.248
X8.5236Y-3.1299
X8.563Y-3.9961
X8.5728Y-4.5571
X8.5748Y-4.4331
X8.5748Y-4.4646
X8.5827Y-3.563
X8.5827Y-4.3307
X8.5827Y-4.3898
X8.6063Y-4.4331
X8.6063Y-4.4646
X8.6063Y-4.4961
X8.6122Y-4.3602
X8.6122Y-4.3898
X8.6378Y-4.4331
X8.6378Y-4.4646
X8.6378Y-4.4961
X8.6417Y-4.3307
X8.6417Y-4.3602
X8.6417Y-4.3898
X8.6516Y-3.6122
X8.6614Y-3.1299
X8.6614Y-3.9173
X8.6693Y-4.4961
X8.6713Y-4.5571
X8.7008Y-3.2579
X8.7402Y-4.1535
X8.7697Y-4.7047
X8.7697Y-4.7441
X8.7697Y-4.7835
X8.7795Y-3.1594
X8.7795Y-3.2087
X8.7874Y-4.5512
X8.7984Y-4.0157
X8.7992Y-3.8386
X8.8268Y-4.5512
X8.8287Y-3.937
X8.8386Y-4.3189
X8.8686Y-4.5271
X8.878Y-3.563
X8.8976Y-3.1299
X8.9567Y-3.3957
X8.9665Y-4.1831
X9.0157Y-4.1831
X9.0157Y-4.3543
X9.0233Y-3.3071
X9.063Y-3.0315
X9.063Y-4.5118
X9.0748Y-3.3465
X9.1142Y-3.6811
X9.1142Y-3.937
X9.1142Y-4.5118
X9.1634Y-3.5925
X9.1642Y-3.5539
X9.1969Y-4.4252
X9.2028Y-3.7697
X9.2028Y-4.1043
X9.2047Y-4.5197
X9.2224Y-3.6417
X9.2323Y-4.4252
X9.2506Y-4.5152
X9.252Y-4.5984
X9.2717Y-4.1043
X9.2913Y-3.7697
X9.2913Y-4.5984
X9.2992Y-4.4252
X9.3012Y-4.3071
X9.3386Y-4.5984
X9.3406Y-3.7697
X9.3413Y-4.1043
X9.3878Y-3.5315
X9.3878Y-3.5748
X9.3898Y-3.2677
X9.3898Y-3.3071
X9.3913Y-3.7677
X9.3913Y-4.1043
X9.3976Y-4.3701
X9.3976Y-4.4094
X9.4016Y-4.5984
X9.4587Y-4.1043
X9.4882Y-3.1398
X9.4921Y-4.3701
X9.4921Y-4.4094
X9.498Y-4.685
X9.5748Y-4.1732
X9.5965Y-4.685
X9.6063Y-3.2283
X9.6063Y-3.2677
X9.6063Y-3.3071
X9.6063Y-3.3465
X9.6063Y-3.3858
X9.6063Y-3.4252
X9.6063Y-3.4646
X9.6063Y-3.5039
X9.6063Y-3.5433
X9.6063Y-3.5827
X9.6063Y-3.622
X9.6161Y-3.8878
X9.626Y-3.6614
X9.6299Y-4.3307
X9.6299Y-4.3701
X9.6299Y-4.4094
X9.6299Y-4.5276
X9.6457Y-3.2283
X9.6654Y-3.6614
X9.6654Y-4.5571
X9.6693Y-4.4567
X9.6693Y-4.5118
X9.685Y-3.2283
X9.7047Y-3.6614
X9.7244Y-3.2283
X9.7441Y-3.6614
X9.7441Y-3.878
X9.7441Y-4.4685
X9.7441Y-4.498
X9.7638Y-3.2283
X9.7638Y-3.2677
X9.7638Y-3.3071
X9.7638Y-3.3465
X9.7638Y-3.3858
X9.7736Y-4.2618
X9.7736Y-4.2913
X9.7736Y-4.4685
X9.7736Y-4.498
X9.7835Y-3.622
X9.8031Y-3.3858
X9.8031Y-4.1732
X9.8031Y-4.2618
X9.8031Y-4.2913
X9.8031Y-4.4685
X9.8031Y-4.498
X9.8228Y-3.622
X9.8228Y-4.3602
X9.8327Y-4.2618
X9.8327Y-4.2913
X9.8425Y-3.3858
X9.8524Y-4.3912
X9.8622Y-3.622
X9.8819Y-3.3858
X9.8917Y-3.8287
X9.8917Y-4.3504
X9.9016Y-3.4252
X9.9016Y-3.4646
X9.9016Y-3.5039
X9.9016Y-3.5433
X9.9016Y-3.6024
X10.0236Y-4.3209
X10.0295Y-4.3799
T2
X9.911Y-3.3118
X9.911Y-3.6567
T4
X3.3465Y-3.937
X3.7402Y-3.937
T5
X9.9902Y-3.937
X10.0902Y-3.937
T6
X2.2835Y-3.3957
X2.2835Y-3.4941
X2.2835Y-3.5925
X2.2835Y-4.2815
X2.2835Y-4.3799
X2.2835Y-4.4783
X2.4181Y-3.137
X2.4181Y-4.737
X2.4803Y-3.3957
X2.4803Y-3.5925
X2.4803Y-4.2815
X2.4803Y-4.4783
X2.5181Y-3.137
X2.5181Y-4.737
X2.6181Y-3.137
X2.6181Y-4.737
X2.7181Y-3.137
X2.7181Y-4.737
X2.8181Y-3.137
X2.8181Y-4.737
X3.733Y-3.137
X3.733Y-4.737
X3.833Y-3.137
X3.833Y-4.737
X3.933Y-3.137
X3.933Y-4.737
X4.033Y-3.137
X4.033Y-4.737
X4.133Y-3.137
X4.133Y-4.737
X5.0479Y-3.137
X5.0479Y-4.737
X5.1479Y-3.137
X5.1479Y-4.737
X5.2479Y-3.137
X5.2479Y-4.737
X5.3479Y-3.137
X5.3479Y-4.737
X5.4479Y-3.137
X5.4479Y-4.737
X6.3628Y-3.137
X6.3628Y-4.737
X6.4628Y-3.137
X6.4628Y-4.737
X6.5628Y-3.137
X6.5628Y-4.737
X6.6628Y-3.137
X6.6628Y-4.737
X6.7628Y-3.137
X6.7628Y-4.737
X7.6777Y-3.137
X7.6777Y-4.737
X7.7777Y-3.137
X7.7777Y-4.737
X7.8777Y-3.137
X7.8777Y-4.737
X7.9777Y-3.137
X7.9777Y-4.737
X8.0777Y-3.137
X8.0777Y-4.737
X8.9926Y-3.137
X8.9926Y-4.737
X9.0926Y-3.137
X9.0926Y-4.737
X9.1926Y-3.137
X9.1926Y-4.737
X9.2926Y-3.137
X9.2926Y-4.737
X9.3926Y-3.137
X9.3926Y-4.737
T3
G00X9.9289Y-4.2
M15
G01X9.9683Y-4.2
M16
G05
G00X9.9289Y-4.5402
M15
G01X9.9683Y-4.5402
M16
G05
G00X10.1301Y-4.2
M15
G01X10.1892Y-4.2
M16
G05
G00X10.1301Y-4.5402
M15
G01X10.1892Y-4.5402
M16
G05
M30
