ISO-10303-21;
HEADER;
/* Generated by software containing ST-Developer
 * from STEP Tools, Inc. (www.steptools.com) 
 */

FILE_DESCRIPTION(
/* description */ (''),
/* implementation_level */ '2;1');

FILE_NAME(
/* name */ 'PEC09-2320F-T0015.step',
/* time_stamp */ '2026-02-25T10:48:56+09:00',
/* author */ (''),
/* organization */ (''),
/* preprocessor_version */ 'ST-DEVELOPER v20.1',
/* originating_system */ 'Autodesk Translation Framework v14.24.0.0',
/* authorisation */ '');

FILE_SCHEMA (('AUTOMOTIVE_DESIGN { 1 0 10303 214 3 1 1 }'));
ENDSEC;

DATA;
#10=MECHANICAL_DESIGN_GEOMETRIC_PRESENTATION_REPRESENTATION('',(#779,#780,
#781,#782,#783,#784,#785,#786,#787,#788,#789,#790,#791,#792,#793,#794,#795,
#796,#797,#798,#799,#800,#801,#802,#803,#804,#805,#806,#807,#808,#809,#810,
#811,#812,#813,#814),#1392);
#11=SHAPE_REPRESENTATION_RELATIONSHIP('SRR','None',#1399,#12);
#12=ADVANCED_BREP_SHAPE_REPRESENTATION('',(#13),#1391);
#13=MANIFOLD_SOLID_BREP('Body1',#864);
#14=(
BOUNDED_CURVE()
B_SPLINE_CURVE(2,(#1354,#1355,#1356),.UNSPECIFIED.,.F.,.F.)
B_SPLINE_CURVE_WITH_KNOTS((3,3),(1.27334943707046,1.44369845966195),
 .UNSPECIFIED.)
CURVE()
GEOMETRIC_REPRESENTATION_ITEM()
RATIONAL_B_SPLINE_CURVE((1.08094657368444,1.04588781380074,1.))
REPRESENTATION_ITEM('')
);
#15=(
BOUNDED_CURVE()
B_SPLINE_CURVE(2,(#1360,#1361,#1362),.UNSPECIFIED.,.F.,.F.)
B_SPLINE_CURVE_WITH_KNOTS((3,3),(0.,0.170349022591494),.UNSPECIFIED.)
CURVE()
GEOMETRIC_REPRESENTATION_ITEM()
RATIONAL_B_SPLINE_CURVE((1.,1.04588781380075,1.08094657368445))
REPRESENTATION_ITEM('')
);
#16=FACE_BOUND('',#122,.T.);
#17=FACE_BOUND('',#125,.T.);
#18=FACE_BOUND('',#165,.T.);
#19=FACE_BOUND('',#171,.T.);
#20=FACE_BOUND('',#172,.T.);
#21=FACE_BOUND('',#173,.T.);
#22=FACE_BOUND('',#174,.T.);
#23=FACE_BOUND('',#175,.T.);
#24=PLANE('',#883);
#25=PLANE('',#887);
#26=PLANE('',#888);
#27=PLANE('',#889);
#28=PLANE('',#890);
#29=PLANE('',#891);
#30=PLANE('',#892);
#31=PLANE('',#893);
#32=PLANE('',#894);
#33=PLANE('',#895);
#34=PLANE('',#896);
#35=PLANE('',#897);
#36=PLANE('',#898);
#37=PLANE('',#899);
#38=PLANE('',#900);
#39=PLANE('',#901);
#40=PLANE('',#902);
#41=PLANE('',#903);
#42=PLANE('',#904);
#43=PLANE('',#905);
#44=PLANE('',#906);
#45=PLANE('',#907);
#46=PLANE('',#908);
#47=PLANE('',#909);
#48=PLANE('',#910);
#49=PLANE('',#911);
#50=PLANE('',#912);
#51=PLANE('',#913);
#52=PLANE('',#914);
#53=PLANE('',#915);
#54=PLANE('',#916);
#55=PLANE('',#917);
#56=PLANE('',#918);
#57=PLANE('',#919);
#58=PLANE('',#920);
#59=PLANE('',#921);
#60=PLANE('',#926);
#61=PLANE('',#927);
#62=PLANE('',#928);
#63=PLANE('',#930);
#64=PLANE('',#935);
#65=PLANE('',#936);
#66=PLANE('',#937);
#67=CYLINDRICAL_SURFACE('',#881,3.125);
#68=CYLINDRICAL_SURFACE('',#933,3.);
#69=CYLINDRICAL_SURFACE('',#934,2.75);
#70=FACE_OUTER_BOUND('',#119,.T.);
#71=FACE_OUTER_BOUND('',#120,.T.);
#72=FACE_OUTER_BOUND('',#121,.T.);
#73=FACE_OUTER_BOUND('',#123,.T.);
#74=FACE_OUTER_BOUND('',#124,.T.);
#75=FACE_OUTER_BOUND('',#126,.T.);
#76=FACE_OUTER_BOUND('',#127,.T.);
#77=FACE_OUTER_BOUND('',#128,.T.);
#78=FACE_OUTER_BOUND('',#129,.T.);
#79=FACE_OUTER_BOUND('',#130,.T.);
#80=FACE_OUTER_BOUND('',#131,.T.);
#81=FACE_OUTER_BOUND('',#132,.T.);
#82=FACE_OUTER_BOUND('',#133,.T.);
#83=FACE_OUTER_BOUND('',#134,.T.);
#84=FACE_OUTER_BOUND('',#135,.T.);
#85=FACE_OUTER_BOUND('',#136,.T.);
#86=FACE_OUTER_BOUND('',#137,.T.);
#87=FACE_OUTER_BOUND('',#138,.T.);
#88=FACE_OUTER_BOUND('',#139,.T.);
#89=FACE_OUTER_BOUND('',#140,.T.);
#90=FACE_OUTER_BOUND('',#141,.T.);
#91=FACE_OUTER_BOUND('',#142,.T.);
#92=FACE_OUTER_BOUND('',#143,.T.);
#93=FACE_OUTER_BOUND('',#144,.T.);
#94=FACE_OUTER_BOUND('',#145,.T.);
#95=FACE_OUTER_BOUND('',#146,.T.);
#96=FACE_OUTER_BOUND('',#147,.T.);
#97=FACE_OUTER_BOUND('',#148,.T.);
#98=FACE_OUTER_BOUND('',#149,.T.);
#99=FACE_OUTER_BOUND('',#150,.T.);
#100=FACE_OUTER_BOUND('',#151,.T.);
#101=FACE_OUTER_BOUND('',#152,.T.);
#102=FACE_OUTER_BOUND('',#153,.T.);
#103=FACE_OUTER_BOUND('',#154,.T.);
#104=FACE_OUTER_BOUND('',#155,.T.);
#105=FACE_OUTER_BOUND('',#156,.T.);
#106=FACE_OUTER_BOUND('',#157,.T.);
#107=FACE_OUTER_BOUND('',#158,.T.);
#108=FACE_OUTER_BOUND('',#159,.T.);
#109=FACE_OUTER_BOUND('',#160,.T.);
#110=FACE_OUTER_BOUND('',#161,.T.);
#111=FACE_OUTER_BOUND('',#162,.T.);
#112=FACE_OUTER_BOUND('',#163,.T.);
#113=FACE_OUTER_BOUND('',#164,.T.);
#114=FACE_OUTER_BOUND('',#166,.T.);
#115=FACE_OUTER_BOUND('',#167,.T.);
#116=FACE_OUTER_BOUND('',#168,.T.);
#117=FACE_OUTER_BOUND('',#169,.T.);
#118=FACE_OUTER_BOUND('',#170,.T.);
#119=EDGE_LOOP('',(#558,#559,#560,#561));
#120=EDGE_LOOP('',(#562,#563,#564,#565));
#121=EDGE_LOOP('',(#566));
#122=EDGE_LOOP('',(#567));
#123=EDGE_LOOP('',(#568,#569,#570,#571));
#124=EDGE_LOOP('',(#572,#573,#574,#575,#576,#577));
#125=EDGE_LOOP('',(#578));
#126=EDGE_LOOP('',(#579,#580,#581));
#127=EDGE_LOOP('',(#582,#583,#584,#585));
#128=EDGE_LOOP('',(#586,#587,#588));
#129=EDGE_LOOP('',(#589,#590,#591,#592));
#130=EDGE_LOOP('',(#593,#594,#595,#596));
#131=EDGE_LOOP('',(#597,#598,#599,#600));
#132=EDGE_LOOP('',(#601,#602,#603,#604));
#133=EDGE_LOOP('',(#605,#606,#607,#608));
#134=EDGE_LOOP('',(#609,#610,#611,#612));
#135=EDGE_LOOP('',(#613,#614,#615,#616));
#136=EDGE_LOOP('',(#617,#618,#619,#620));
#137=EDGE_LOOP('',(#621,#622,#623,#624));
#138=EDGE_LOOP('',(#625,#626,#627,#628));
#139=EDGE_LOOP('',(#629,#630,#631,#632));
#140=EDGE_LOOP('',(#633,#634,#635,#636));
#141=EDGE_LOOP('',(#637,#638,#639,#640));
#142=EDGE_LOOP('',(#641,#642,#643,#644));
#143=EDGE_LOOP('',(#645,#646,#647,#648));
#144=EDGE_LOOP('',(#649,#650,#651,#652));
#145=EDGE_LOOP('',(#653,#654,#655,#656));
#146=EDGE_LOOP('',(#657,#658,#659,#660));
#147=EDGE_LOOP('',(#661,#662,#663,#664));
#148=EDGE_LOOP('',(#665,#666,#667,#668));
#149=EDGE_LOOP('',(#669,#670,#671,#672));
#150=EDGE_LOOP('',(#673,#674,#675,#676));
#151=EDGE_LOOP('',(#677,#678,#679,#680));
#152=EDGE_LOOP('',(#681,#682,#683,#684));
#153=EDGE_LOOP('',(#685,#686,#687,#688));
#154=EDGE_LOOP('',(#689,#690,#691,#692));
#155=EDGE_LOOP('',(#693,#694,#695,#696));
#156=EDGE_LOOP('',(#697,#698,#699,#700));
#157=EDGE_LOOP('',(#701,#702,#703,#704));
#158=EDGE_LOOP('',(#705,#706,#707,#708));
#159=EDGE_LOOP('',(#709,#710,#711,#712));
#160=EDGE_LOOP('',(#713,#714,#715,#716,#717));
#161=EDGE_LOOP('',(#718,#719));
#162=EDGE_LOOP('',(#720,#721,#722,#723,#724,#725));
#163=EDGE_LOOP('',(#726,#727));
#164=EDGE_LOOP('',(#728));
#165=EDGE_LOOP('',(#729));
#166=EDGE_LOOP('',(#730,#731,#732,#733,#734,#735,#736,#737));
#167=EDGE_LOOP('',(#738,#739,#740,#741));
#168=EDGE_LOOP('',(#742,#743,#744,#745));
#169=EDGE_LOOP('',(#746,#747,#748,#749));
#170=EDGE_LOOP('',(#750,#751,#752,#753,#754,#755));
#171=EDGE_LOOP('',(#756,#757,#758,#759));
#172=EDGE_LOOP('',(#760,#761,#762,#763));
#173=EDGE_LOOP('',(#764,#765,#766,#767));
#174=EDGE_LOOP('',(#768,#769,#770,#771));
#175=EDGE_LOOP('',(#772,#773,#774,#775));
#176=LINE('',#1161,#272);
#177=LINE('',#1165,#273);
#178=LINE('',#1173,#274);
#179=LINE('',#1177,#275);
#180=LINE('',#1179,#276);
#181=LINE('',#1181,#277);
#182=LINE('',#1183,#278);
#183=LINE('',#1185,#279);
#184=LINE('',#1186,#280);
#185=LINE('',#1190,#281);
#186=LINE('',#1192,#282);
#187=LINE('',#1193,#283);
#188=LINE('',#1197,#284);
#189=LINE('',#1198,#285);
#190=LINE('',#1199,#286);
#191=LINE('',#1203,#287);
#192=LINE('',#1205,#288);
#193=LINE('',#1206,#289);
#194=LINE('',#1210,#290);
#195=LINE('',#1211,#291);
#196=LINE('',#1212,#292);
#197=LINE('',#1214,#293);
#198=LINE('',#1215,#294);
#199=LINE('',#1217,#295);
#200=LINE('',#1218,#296);
#201=LINE('',#1220,#297);
#202=LINE('',#1221,#298);
#203=LINE('',#1223,#299);
#204=LINE('',#1225,#300);
#205=LINE('',#1229,#301);
#206=LINE('',#1231,#302);
#207=LINE('',#1233,#303);
#208=LINE('',#1234,#304);
#209=LINE('',#1237,#305);
#210=LINE('',#1239,#306);
#211=LINE('',#1240,#307);
#212=LINE('',#1243,#308);
#213=LINE('',#1245,#309);
#214=LINE('',#1246,#310);
#215=LINE('',#1248,#311);
#216=LINE('',#1249,#312);
#217=LINE('',#1254,#313);
#218=LINE('',#1256,#314);
#219=LINE('',#1258,#315);
#220=LINE('',#1259,#316);
#221=LINE('',#1262,#317);
#222=LINE('',#1264,#318);
#223=LINE('',#1265,#319);
#224=LINE('',#1268,#320);
#225=LINE('',#1270,#321);
#226=LINE('',#1271,#322);
#227=LINE('',#1273,#323);
#228=LINE('',#1274,#324);
#229=LINE('',#1279,#325);
#230=LINE('',#1281,#326);
#231=LINE('',#1283,#327);
#232=LINE('',#1284,#328);
#233=LINE('',#1287,#329);
#234=LINE('',#1289,#330);
#235=LINE('',#1290,#331);
#236=LINE('',#1293,#332);
#237=LINE('',#1295,#333);
#238=LINE('',#1296,#334);
#239=LINE('',#1298,#335);
#240=LINE('',#1299,#336);
#241=LINE('',#1304,#337);
#242=LINE('',#1306,#338);
#243=LINE('',#1308,#339);
#244=LINE('',#1309,#340);
#245=LINE('',#1312,#341);
#246=LINE('',#1314,#342);
#247=LINE('',#1315,#343);
#248=LINE('',#1318,#344);
#249=LINE('',#1320,#345);
#250=LINE('',#1321,#346);
#251=LINE('',#1323,#347);
#252=LINE('',#1324,#348);
#253=LINE('',#1329,#349);
#254=LINE('',#1331,#350);
#255=LINE('',#1333,#351);
#256=LINE('',#1334,#352);
#257=LINE('',#1337,#353);
#258=LINE('',#1339,#354);
#259=LINE('',#1340,#355);
#260=LINE('',#1343,#356);
#261=LINE('',#1345,#357);
#262=LINE('',#1346,#358);
#263=LINE('',#1348,#359);
#264=LINE('',#1349,#360);
#265=LINE('',#1367,#361);
#266=LINE('',#1370,#362);
#267=LINE('',#1372,#363);
#268=LINE('',#1373,#364);
#269=LINE('',#1382,#365);
#270=LINE('',#1384,#366);
#271=LINE('',#1386,#367);
#272=VECTOR('',#944,3.075);
#273=VECTOR('',#949,3.125);
#274=VECTOR('',#960,3.375);
#275=VECTOR('',#963,10.);
#276=VECTOR('',#964,10.);
#277=VECTOR('',#965,10.);
#278=VECTOR('',#966,10.);
#279=VECTOR('',#967,10.);
#280=VECTOR('',#968,10.);
#281=VECTOR('',#971,10.);
#282=VECTOR('',#972,10.);
#283=VECTOR('',#973,10.);
#284=VECTOR('',#976,10.);
#285=VECTOR('',#977,10.);
#286=VECTOR('',#978,10.);
#287=VECTOR('',#981,10.);
#288=VECTOR('',#982,10.);
#289=VECTOR('',#983,10.);
#290=VECTOR('',#986,10.);
#291=VECTOR('',#987,10.);
#292=VECTOR('',#988,10.);
#293=VECTOR('',#991,10.);
#294=VECTOR('',#992,10.);
#295=VECTOR('',#995,10.);
#296=VECTOR('',#996,10.);
#297=VECTOR('',#999,10.);
#298=VECTOR('',#1000,10.);
#299=VECTOR('',#1003,10.);
#300=VECTOR('',#1006,10.);
#301=VECTOR('',#1009,10.);
#302=VECTOR('',#1010,10.);
#303=VECTOR('',#1011,10.);
#304=VECTOR('',#1012,10.);
#305=VECTOR('',#1015,10.);
#306=VECTOR('',#1016,10.);
#307=VECTOR('',#1017,10.);
#308=VECTOR('',#1020,10.);
#309=VECTOR('',#1021,10.);
#310=VECTOR('',#1022,10.);
#311=VECTOR('',#1025,10.);
#312=VECTOR('',#1026,10.);
#313=VECTOR('',#1031,10.);
#314=VECTOR('',#1032,10.);
#315=VECTOR('',#1033,10.);
#316=VECTOR('',#1034,10.);
#317=VECTOR('',#1037,10.);
#318=VECTOR('',#1038,10.);
#319=VECTOR('',#1039,10.);
#320=VECTOR('',#1042,10.);
#321=VECTOR('',#1043,10.);
#322=VECTOR('',#1044,10.);
#323=VECTOR('',#1047,10.);
#324=VECTOR('',#1048,10.);
#325=VECTOR('',#1053,10.);
#326=VECTOR('',#1054,10.);
#327=VECTOR('',#1055,10.);
#328=VECTOR('',#1056,10.);
#329=VECTOR('',#1059,10.);
#330=VECTOR('',#1060,10.);
#331=VECTOR('',#1061,10.);
#332=VECTOR('',#1064,10.);
#333=VECTOR('',#1065,10.);
#334=VECTOR('',#1066,10.);
#335=VECTOR('',#1069,10.);
#336=VECTOR('',#1070,10.);
#337=VECTOR('',#1075,10.);
#338=VECTOR('',#1076,10.);
#339=VECTOR('',#1077,10.);
#340=VECTOR('',#1078,10.);
#341=VECTOR('',#1081,10.);
#342=VECTOR('',#1082,10.);
#343=VECTOR('',#1083,10.);
#344=VECTOR('',#1086,10.);
#345=VECTOR('',#1087,10.);
#346=VECTOR('',#1088,10.);
#347=VECTOR('',#1091,10.);
#348=VECTOR('',#1092,10.);
#349=VECTOR('',#1097,10.);
#350=VECTOR('',#1098,10.);
#351=VECTOR('',#1099,10.);
#352=VECTOR('',#1100,10.);
#353=VECTOR('',#1103,10.);
#354=VECTOR('',#1104,10.);
#355=VECTOR('',#1105,10.);
#356=VECTOR('',#1108,10.);
#357=VECTOR('',#1109,10.);
#358=VECTOR('',#1110,10.);
#359=VECTOR('',#1113,10.);
#360=VECTOR('',#1114,10.);
#361=VECTOR('',#1127,10.);
#362=VECTOR('',#1130,10.);
#363=VECTOR('',#1131,10.);
#364=VECTOR('',#1132,10.);
#365=VECTOR('',#1145,3.);
#366=VECTOR('',#1148,2.75);
#367=VECTOR('',#1151,10.);
#368=CIRCLE('',#879,3.025);
#369=CIRCLE('',#880,3.125);
#370=CIRCLE('',#882,3.125);
#371=CIRCLE('',#884,2.75);
#372=CIRCLE('',#886,3.625);
#373=CIRCLE('',#923,2.5);
#374=CIRCLE('',#924,3.);
#375=CIRCLE('',#925,3.);
#376=CIRCLE('',#929,3.);
#377=CIRCLE('',#931,3.);
#378=CIRCLE('',#932,2.75);
#379=VERTEX_POINT('',#1158);
#380=VERTEX_POINT('',#1160);
#381=VERTEX_POINT('',#1164);
#382=VERTEX_POINT('',#1168);
#383=VERTEX_POINT('',#1171);
#384=VERTEX_POINT('',#1175);
#385=VERTEX_POINT('',#1176);
#386=VERTEX_POINT('',#1178);
#387=VERTEX_POINT('',#1180);
#388=VERTEX_POINT('',#1182);
#389=VERTEX_POINT('',#1184);
#390=VERTEX_POINT('',#1188);
#391=VERTEX_POINT('',#1189);
#392=VERTEX_POINT('',#1191);
#393=VERTEX_POINT('',#1195);
#394=VERTEX_POINT('',#1196);
#395=VERTEX_POINT('',#1201);
#396=VERTEX_POINT('',#1202);
#397=VERTEX_POINT('',#1204);
#398=VERTEX_POINT('',#1208);
#399=VERTEX_POINT('',#1209);
#400=VERTEX_POINT('',#1227);
#401=VERTEX_POINT('',#1228);
#402=VERTEX_POINT('',#1230);
#403=VERTEX_POINT('',#1232);
#404=VERTEX_POINT('',#1236);
#405=VERTEX_POINT('',#1238);
#406=VERTEX_POINT('',#1242);
#407=VERTEX_POINT('',#1244);
#408=VERTEX_POINT('',#1252);
#409=VERTEX_POINT('',#1253);
#410=VERTEX_POINT('',#1255);
#411=VERTEX_POINT('',#1257);
#412=VERTEX_POINT('',#1261);
#413=VERTEX_POINT('',#1263);
#414=VERTEX_POINT('',#1267);
#415=VERTEX_POINT('',#1269);
#416=VERTEX_POINT('',#1277);
#417=VERTEX_POINT('',#1278);
#418=VERTEX_POINT('',#1280);
#419=VERTEX_POINT('',#1282);
#420=VERTEX_POINT('',#1286);
#421=VERTEX_POINT('',#1288);
#422=VERTEX_POINT('',#1292);
#423=VERTEX_POINT('',#1294);
#424=VERTEX_POINT('',#1302);
#425=VERTEX_POINT('',#1303);
#426=VERTEX_POINT('',#1305);
#427=VERTEX_POINT('',#1307);
#428=VERTEX_POINT('',#1311);
#429=VERTEX_POINT('',#1313);
#430=VERTEX_POINT('',#1317);
#431=VERTEX_POINT('',#1319);
#432=VERTEX_POINT('',#1327);
#433=VERTEX_POINT('',#1328);
#434=VERTEX_POINT('',#1330);
#435=VERTEX_POINT('',#1332);
#436=VERTEX_POINT('',#1336);
#437=VERTEX_POINT('',#1338);
#438=VERTEX_POINT('',#1342);
#439=VERTEX_POINT('',#1344);
#440=VERTEX_POINT('',#1352);
#441=VERTEX_POINT('',#1353);
#442=VERTEX_POINT('',#1357);
#443=VERTEX_POINT('',#1359);
#444=VERTEX_POINT('',#1363);
#445=VERTEX_POINT('',#1369);
#446=VERTEX_POINT('',#1371);
#447=VERTEX_POINT('',#1377);
#448=VERTEX_POINT('',#1379);
#449=EDGE_CURVE('',#379,#379,#368,.T.);
#450=EDGE_CURVE('',#379,#380,#176,.T.);
#451=EDGE_CURVE('',#380,#380,#369,.T.);
#452=EDGE_CURVE('',#380,#381,#177,.T.);
#453=EDGE_CURVE('',#381,#381,#370,.T.);
#454=EDGE_CURVE('',#382,#382,#371,.T.);
#455=EDGE_CURVE('',#383,#383,#372,.T.);
#456=EDGE_CURVE('',#383,#381,#178,.T.);
#457=EDGE_CURVE('',#384,#385,#179,.T.);
#458=EDGE_CURVE('',#386,#384,#180,.T.);
#459=EDGE_CURVE('',#387,#386,#181,.T.);
#460=EDGE_CURVE('',#387,#388,#182,.T.);
#461=EDGE_CURVE('',#389,#388,#183,.T.);
#462=EDGE_CURVE('',#385,#389,#184,.T.);
#463=EDGE_CURVE('',#390,#391,#185,.T.);
#464=EDGE_CURVE('',#392,#390,#186,.T.);
#465=EDGE_CURVE('',#391,#392,#187,.T.);
#466=EDGE_CURVE('',#393,#394,#188,.T.);
#467=EDGE_CURVE('',#394,#392,#189,.T.);
#468=EDGE_CURVE('',#390,#393,#190,.T.);
#469=EDGE_CURVE('',#395,#396,#191,.T.);
#470=EDGE_CURVE('',#397,#395,#192,.T.);
#471=EDGE_CURVE('',#396,#397,#193,.T.);
#472=EDGE_CURVE('',#398,#399,#194,.T.);
#473=EDGE_CURVE('',#399,#397,#195,.T.);
#474=EDGE_CURVE('',#395,#398,#196,.T.);
#475=EDGE_CURVE('',#385,#396,#197,.T.);
#476=EDGE_CURVE('',#397,#384,#198,.T.);
#477=EDGE_CURVE('',#396,#391,#199,.T.);
#478=EDGE_CURVE('',#392,#395,#200,.T.);
#479=EDGE_CURVE('',#388,#390,#201,.T.);
#480=EDGE_CURVE('',#391,#389,#202,.T.);
#481=EDGE_CURVE('',#398,#394,#203,.T.);
#482=EDGE_CURVE('',#393,#387,#204,.T.);
#483=EDGE_CURVE('',#400,#401,#205,.T.);
#484=EDGE_CURVE('',#400,#402,#206,.T.);
#485=EDGE_CURVE('',#403,#402,#207,.T.);
#486=EDGE_CURVE('',#401,#403,#208,.T.);
#487=EDGE_CURVE('',#401,#404,#209,.T.);
#488=EDGE_CURVE('',#405,#403,#210,.T.);
#489=EDGE_CURVE('',#404,#405,#211,.T.);
#490=EDGE_CURVE('',#404,#406,#212,.T.);
#491=EDGE_CURVE('',#407,#405,#213,.T.);
#492=EDGE_CURVE('',#406,#407,#214,.T.);
#493=EDGE_CURVE('',#406,#400,#215,.T.);
#494=EDGE_CURVE('',#402,#407,#216,.T.);
#495=EDGE_CURVE('',#408,#409,#217,.T.);
#496=EDGE_CURVE('',#408,#410,#218,.T.);
#497=EDGE_CURVE('',#411,#410,#219,.T.);
#498=EDGE_CURVE('',#409,#411,#220,.T.);
#499=EDGE_CURVE('',#409,#412,#221,.T.);
#500=EDGE_CURVE('',#413,#411,#222,.T.);
#501=EDGE_CURVE('',#412,#413,#223,.T.);
#502=EDGE_CURVE('',#412,#414,#224,.T.);
#503=EDGE_CURVE('',#415,#413,#225,.T.);
#504=EDGE_CURVE('',#414,#415,#226,.T.);
#505=EDGE_CURVE('',#414,#408,#227,.T.);
#506=EDGE_CURVE('',#410,#415,#228,.T.);
#507=EDGE_CURVE('',#416,#417,#229,.T.);
#508=EDGE_CURVE('',#416,#418,#230,.T.);
#509=EDGE_CURVE('',#419,#418,#231,.T.);
#510=EDGE_CURVE('',#417,#419,#232,.T.);
#511=EDGE_CURVE('',#417,#420,#233,.T.);
#512=EDGE_CURVE('',#421,#419,#234,.T.);
#513=EDGE_CURVE('',#420,#421,#235,.T.);
#514=EDGE_CURVE('',#420,#422,#236,.T.);
#515=EDGE_CURVE('',#423,#421,#237,.T.);
#516=EDGE_CURVE('',#422,#423,#238,.T.);
#517=EDGE_CURVE('',#422,#416,#239,.T.);
#518=EDGE_CURVE('',#418,#423,#240,.T.);
#519=EDGE_CURVE('',#424,#425,#241,.T.);
#520=EDGE_CURVE('',#424,#426,#242,.T.);
#521=EDGE_CURVE('',#427,#426,#243,.T.);
#522=EDGE_CURVE('',#425,#427,#244,.T.);
#523=EDGE_CURVE('',#425,#428,#245,.T.);
#524=EDGE_CURVE('',#429,#427,#246,.T.);
#525=EDGE_CURVE('',#428,#429,#247,.T.);
#526=EDGE_CURVE('',#428,#430,#248,.T.);
#527=EDGE_CURVE('',#431,#429,#249,.T.);
#528=EDGE_CURVE('',#430,#431,#250,.T.);
#529=EDGE_CURVE('',#430,#424,#251,.T.);
#530=EDGE_CURVE('',#426,#431,#252,.T.);
#531=EDGE_CURVE('',#432,#433,#253,.T.);
#532=EDGE_CURVE('',#432,#434,#254,.T.);
#533=EDGE_CURVE('',#435,#434,#255,.T.);
#534=EDGE_CURVE('',#433,#435,#256,.T.);
#535=EDGE_CURVE('',#433,#436,#257,.T.);
#536=EDGE_CURVE('',#437,#435,#258,.T.);
#537=EDGE_CURVE('',#436,#437,#259,.T.);
#538=EDGE_CURVE('',#436,#438,#260,.T.);
#539=EDGE_CURVE('',#439,#437,#261,.T.);
#540=EDGE_CURVE('',#438,#439,#262,.T.);
#541=EDGE_CURVE('',#438,#432,#263,.T.);
#542=EDGE_CURVE('',#434,#439,#264,.T.);
#543=EDGE_CURVE('',#440,#441,#14,.T.);
#544=EDGE_CURVE('',#441,#442,#373,.T.);
#545=EDGE_CURVE('',#442,#443,#15,.T.);
#546=EDGE_CURVE('',#443,#444,#374,.T.);
#547=EDGE_CURVE('',#444,#440,#375,.T.);
#548=EDGE_CURVE('',#441,#442,#265,.T.);
#549=EDGE_CURVE('',#445,#440,#266,.T.);
#550=EDGE_CURVE('',#445,#446,#267,.T.);
#551=EDGE_CURVE('',#443,#446,#268,.T.);
#552=EDGE_CURVE('',#446,#445,#376,.T.);
#553=EDGE_CURVE('',#447,#447,#377,.T.);
#554=EDGE_CURVE('',#448,#448,#378,.T.);
#555=EDGE_CURVE('',#444,#447,#269,.T.);
#556=EDGE_CURVE('',#448,#382,#270,.T.);
#557=EDGE_CURVE('',#386,#399,#271,.T.);
#558=ORIENTED_EDGE('',*,*,#449,.T.);
#559=ORIENTED_EDGE('',*,*,#450,.T.);
#560=ORIENTED_EDGE('',*,*,#451,.T.);
#561=ORIENTED_EDGE('',*,*,#450,.F.);
#562=ORIENTED_EDGE('',*,*,#451,.F.);
#563=ORIENTED_EDGE('',*,*,#452,.T.);
#564=ORIENTED_EDGE('',*,*,#453,.F.);
#565=ORIENTED_EDGE('',*,*,#452,.F.);
#566=ORIENTED_EDGE('',*,*,#449,.F.);
#567=ORIENTED_EDGE('',*,*,#454,.T.);
#568=ORIENTED_EDGE('',*,*,#455,.T.);
#569=ORIENTED_EDGE('',*,*,#456,.T.);
#570=ORIENTED_EDGE('',*,*,#453,.T.);
#571=ORIENTED_EDGE('',*,*,#456,.F.);
#572=ORIENTED_EDGE('',*,*,#457,.F.);
#573=ORIENTED_EDGE('',*,*,#458,.F.);
#574=ORIENTED_EDGE('',*,*,#459,.F.);
#575=ORIENTED_EDGE('',*,*,#460,.T.);
#576=ORIENTED_EDGE('',*,*,#461,.F.);
#577=ORIENTED_EDGE('',*,*,#462,.F.);
#578=ORIENTED_EDGE('',*,*,#455,.F.);
#579=ORIENTED_EDGE('',*,*,#463,.F.);
#580=ORIENTED_EDGE('',*,*,#464,.F.);
#581=ORIENTED_EDGE('',*,*,#465,.F.);
#582=ORIENTED_EDGE('',*,*,#466,.T.);
#583=ORIENTED_EDGE('',*,*,#467,.T.);
#584=ORIENTED_EDGE('',*,*,#464,.T.);
#585=ORIENTED_EDGE('',*,*,#468,.T.);
#586=ORIENTED_EDGE('',*,*,#469,.F.);
#587=ORIENTED_EDGE('',*,*,#470,.F.);
#588=ORIENTED_EDGE('',*,*,#471,.F.);
#589=ORIENTED_EDGE('',*,*,#472,.T.);
#590=ORIENTED_EDGE('',*,*,#473,.T.);
#591=ORIENTED_EDGE('',*,*,#470,.T.);
#592=ORIENTED_EDGE('',*,*,#474,.T.);
#593=ORIENTED_EDGE('',*,*,#457,.T.);
#594=ORIENTED_EDGE('',*,*,#475,.T.);
#595=ORIENTED_EDGE('',*,*,#471,.T.);
#596=ORIENTED_EDGE('',*,*,#476,.T.);
#597=ORIENTED_EDGE('',*,*,#469,.T.);
#598=ORIENTED_EDGE('',*,*,#477,.T.);
#599=ORIENTED_EDGE('',*,*,#465,.T.);
#600=ORIENTED_EDGE('',*,*,#478,.T.);
#601=ORIENTED_EDGE('',*,*,#461,.T.);
#602=ORIENTED_EDGE('',*,*,#479,.T.);
#603=ORIENTED_EDGE('',*,*,#463,.T.);
#604=ORIENTED_EDGE('',*,*,#480,.T.);
#605=ORIENTED_EDGE('',*,*,#474,.F.);
#606=ORIENTED_EDGE('',*,*,#478,.F.);
#607=ORIENTED_EDGE('',*,*,#467,.F.);
#608=ORIENTED_EDGE('',*,*,#481,.F.);
#609=ORIENTED_EDGE('',*,*,#468,.F.);
#610=ORIENTED_EDGE('',*,*,#479,.F.);
#611=ORIENTED_EDGE('',*,*,#460,.F.);
#612=ORIENTED_EDGE('',*,*,#482,.F.);
#613=ORIENTED_EDGE('',*,*,#483,.F.);
#614=ORIENTED_EDGE('',*,*,#484,.T.);
#615=ORIENTED_EDGE('',*,*,#485,.F.);
#616=ORIENTED_EDGE('',*,*,#486,.F.);
#617=ORIENTED_EDGE('',*,*,#487,.F.);
#618=ORIENTED_EDGE('',*,*,#486,.T.);
#619=ORIENTED_EDGE('',*,*,#488,.F.);
#620=ORIENTED_EDGE('',*,*,#489,.F.);
#621=ORIENTED_EDGE('',*,*,#490,.F.);
#622=ORIENTED_EDGE('',*,*,#489,.T.);
#623=ORIENTED_EDGE('',*,*,#491,.F.);
#624=ORIENTED_EDGE('',*,*,#492,.F.);
#625=ORIENTED_EDGE('',*,*,#493,.F.);
#626=ORIENTED_EDGE('',*,*,#492,.T.);
#627=ORIENTED_EDGE('',*,*,#494,.F.);
#628=ORIENTED_EDGE('',*,*,#484,.F.);
#629=ORIENTED_EDGE('',*,*,#494,.T.);
#630=ORIENTED_EDGE('',*,*,#491,.T.);
#631=ORIENTED_EDGE('',*,*,#488,.T.);
#632=ORIENTED_EDGE('',*,*,#485,.T.);
#633=ORIENTED_EDGE('',*,*,#495,.F.);
#634=ORIENTED_EDGE('',*,*,#496,.T.);
#635=ORIENTED_EDGE('',*,*,#497,.F.);
#636=ORIENTED_EDGE('',*,*,#498,.F.);
#637=ORIENTED_EDGE('',*,*,#499,.F.);
#638=ORIENTED_EDGE('',*,*,#498,.T.);
#639=ORIENTED_EDGE('',*,*,#500,.F.);
#640=ORIENTED_EDGE('',*,*,#501,.F.);
#641=ORIENTED_EDGE('',*,*,#502,.F.);
#642=ORIENTED_EDGE('',*,*,#501,.T.);
#643=ORIENTED_EDGE('',*,*,#503,.F.);
#644=ORIENTED_EDGE('',*,*,#504,.F.);
#645=ORIENTED_EDGE('',*,*,#505,.F.);
#646=ORIENTED_EDGE('',*,*,#504,.T.);
#647=ORIENTED_EDGE('',*,*,#506,.F.);
#648=ORIENTED_EDGE('',*,*,#496,.F.);
#649=ORIENTED_EDGE('',*,*,#506,.T.);
#650=ORIENTED_EDGE('',*,*,#503,.T.);
#651=ORIENTED_EDGE('',*,*,#500,.T.);
#652=ORIENTED_EDGE('',*,*,#497,.T.);
#653=ORIENTED_EDGE('',*,*,#507,.F.);
#654=ORIENTED_EDGE('',*,*,#508,.T.);
#655=ORIENTED_EDGE('',*,*,#509,.F.);
#656=ORIENTED_EDGE('',*,*,#510,.F.);
#657=ORIENTED_EDGE('',*,*,#511,.F.);
#658=ORIENTED_EDGE('',*,*,#510,.T.);
#659=ORIENTED_EDGE('',*,*,#512,.F.);
#660=ORIENTED_EDGE('',*,*,#513,.F.);
#661=ORIENTED_EDGE('',*,*,#514,.F.);
#662=ORIENTED_EDGE('',*,*,#513,.T.);
#663=ORIENTED_EDGE('',*,*,#515,.F.);
#664=ORIENTED_EDGE('',*,*,#516,.F.);
#665=ORIENTED_EDGE('',*,*,#517,.F.);
#666=ORIENTED_EDGE('',*,*,#516,.T.);
#667=ORIENTED_EDGE('',*,*,#518,.F.);
#668=ORIENTED_EDGE('',*,*,#508,.F.);
#669=ORIENTED_EDGE('',*,*,#518,.T.);
#670=ORIENTED_EDGE('',*,*,#515,.T.);
#671=ORIENTED_EDGE('',*,*,#512,.T.);
#672=ORIENTED_EDGE('',*,*,#509,.T.);
#673=ORIENTED_EDGE('',*,*,#519,.F.);
#674=ORIENTED_EDGE('',*,*,#520,.T.);
#675=ORIENTED_EDGE('',*,*,#521,.F.);
#676=ORIENTED_EDGE('',*,*,#522,.F.);
#677=ORIENTED_EDGE('',*,*,#523,.F.);
#678=ORIENTED_EDGE('',*,*,#522,.T.);
#679=ORIENTED_EDGE('',*,*,#524,.F.);
#680=ORIENTED_EDGE('',*,*,#525,.F.);
#681=ORIENTED_EDGE('',*,*,#526,.F.);
#682=ORIENTED_EDGE('',*,*,#525,.T.);
#683=ORIENTED_EDGE('',*,*,#527,.F.);
#684=ORIENTED_EDGE('',*,*,#528,.F.);
#685=ORIENTED_EDGE('',*,*,#529,.F.);
#686=ORIENTED_EDGE('',*,*,#528,.T.);
#687=ORIENTED_EDGE('',*,*,#530,.F.);
#688=ORIENTED_EDGE('',*,*,#520,.F.);
#689=ORIENTED_EDGE('',*,*,#530,.T.);
#690=ORIENTED_EDGE('',*,*,#527,.T.);
#691=ORIENTED_EDGE('',*,*,#524,.T.);
#692=ORIENTED_EDGE('',*,*,#521,.T.);
#693=ORIENTED_EDGE('',*,*,#531,.F.);
#694=ORIENTED_EDGE('',*,*,#532,.T.);
#695=ORIENTED_EDGE('',*,*,#533,.F.);
#696=ORIENTED_EDGE('',*,*,#534,.F.);
#697=ORIENTED_EDGE('',*,*,#535,.F.);
#698=ORIENTED_EDGE('',*,*,#534,.T.);
#699=ORIENTED_EDGE('',*,*,#536,.F.);
#700=ORIENTED_EDGE('',*,*,#537,.F.);
#701=ORIENTED_EDGE('',*,*,#538,.F.);
#702=ORIENTED_EDGE('',*,*,#537,.T.);
#703=ORIENTED_EDGE('',*,*,#539,.F.);
#704=ORIENTED_EDGE('',*,*,#540,.F.);
#705=ORIENTED_EDGE('',*,*,#541,.F.);
#706=ORIENTED_EDGE('',*,*,#540,.T.);
#707=ORIENTED_EDGE('',*,*,#542,.F.);
#708=ORIENTED_EDGE('',*,*,#532,.F.);
#709=ORIENTED_EDGE('',*,*,#542,.T.);
#710=ORIENTED_EDGE('',*,*,#539,.T.);
#711=ORIENTED_EDGE('',*,*,#536,.T.);
#712=ORIENTED_EDGE('',*,*,#533,.T.);
#713=ORIENTED_EDGE('',*,*,#543,.T.);
#714=ORIENTED_EDGE('',*,*,#544,.T.);
#715=ORIENTED_EDGE('',*,*,#545,.T.);
#716=ORIENTED_EDGE('',*,*,#546,.T.);
#717=ORIENTED_EDGE('',*,*,#547,.T.);
#718=ORIENTED_EDGE('',*,*,#544,.F.);
#719=ORIENTED_EDGE('',*,*,#548,.T.);
#720=ORIENTED_EDGE('',*,*,#545,.F.);
#721=ORIENTED_EDGE('',*,*,#548,.F.);
#722=ORIENTED_EDGE('',*,*,#543,.F.);
#723=ORIENTED_EDGE('',*,*,#549,.F.);
#724=ORIENTED_EDGE('',*,*,#550,.T.);
#725=ORIENTED_EDGE('',*,*,#551,.F.);
#726=ORIENTED_EDGE('',*,*,#550,.F.);
#727=ORIENTED_EDGE('',*,*,#552,.F.);
#728=ORIENTED_EDGE('',*,*,#553,.F.);
#729=ORIENTED_EDGE('',*,*,#554,.T.);
#730=ORIENTED_EDGE('',*,*,#546,.F.);
#731=ORIENTED_EDGE('',*,*,#551,.T.);
#732=ORIENTED_EDGE('',*,*,#552,.T.);
#733=ORIENTED_EDGE('',*,*,#549,.T.);
#734=ORIENTED_EDGE('',*,*,#547,.F.);
#735=ORIENTED_EDGE('',*,*,#555,.T.);
#736=ORIENTED_EDGE('',*,*,#553,.T.);
#737=ORIENTED_EDGE('',*,*,#555,.F.);
#738=ORIENTED_EDGE('',*,*,#554,.F.);
#739=ORIENTED_EDGE('',*,*,#556,.T.);
#740=ORIENTED_EDGE('',*,*,#454,.F.);
#741=ORIENTED_EDGE('',*,*,#556,.F.);
#742=ORIENTED_EDGE('',*,*,#473,.F.);
#743=ORIENTED_EDGE('',*,*,#557,.F.);
#744=ORIENTED_EDGE('',*,*,#458,.T.);
#745=ORIENTED_EDGE('',*,*,#476,.F.);
#746=ORIENTED_EDGE('',*,*,#475,.F.);
#747=ORIENTED_EDGE('',*,*,#462,.T.);
#748=ORIENTED_EDGE('',*,*,#480,.F.);
#749=ORIENTED_EDGE('',*,*,#477,.F.);
#750=ORIENTED_EDGE('',*,*,#472,.F.);
#751=ORIENTED_EDGE('',*,*,#481,.T.);
#752=ORIENTED_EDGE('',*,*,#466,.F.);
#753=ORIENTED_EDGE('',*,*,#482,.T.);
#754=ORIENTED_EDGE('',*,*,#459,.T.);
#755=ORIENTED_EDGE('',*,*,#557,.T.);
#756=ORIENTED_EDGE('',*,*,#483,.T.);
#757=ORIENTED_EDGE('',*,*,#487,.T.);
#758=ORIENTED_EDGE('',*,*,#490,.T.);
#759=ORIENTED_EDGE('',*,*,#493,.T.);
#760=ORIENTED_EDGE('',*,*,#495,.T.);
#761=ORIENTED_EDGE('',*,*,#499,.T.);
#762=ORIENTED_EDGE('',*,*,#502,.T.);
#763=ORIENTED_EDGE('',*,*,#505,.T.);
#764=ORIENTED_EDGE('',*,*,#507,.T.);
#765=ORIENTED_EDGE('',*,*,#511,.T.);
#766=ORIENTED_EDGE('',*,*,#514,.T.);
#767=ORIENTED_EDGE('',*,*,#517,.T.);
#768=ORIENTED_EDGE('',*,*,#519,.T.);
#769=ORIENTED_EDGE('',*,*,#523,.T.);
#770=ORIENTED_EDGE('',*,*,#526,.T.);
#771=ORIENTED_EDGE('',*,*,#529,.T.);
#772=ORIENTED_EDGE('',*,*,#531,.T.);
#773=ORIENTED_EDGE('',*,*,#535,.T.);
#774=ORIENTED_EDGE('',*,*,#538,.T.);
#775=ORIENTED_EDGE('',*,*,#541,.T.);
#776=CONICAL_SURFACE('',#878,3.075,0.785398163397448);
#777=CONICAL_SURFACE('',#885,3.375,0.785398163397448);
#778=CONICAL_SURFACE('',#922,2.75,0.78539816339745);
#779=STYLED_ITEM('',(#1409),#815);
#780=STYLED_ITEM('',(#1409),#816);
#781=STYLED_ITEM('',(#1409),#817);
#782=STYLED_ITEM('',(#1409),#818);
#783=STYLED_ITEM('',(#1410),#829);
#784=STYLED_ITEM('',(#1410),#830);
#785=STYLED_ITEM('',(#1410),#831);
#786=STYLED_ITEM('',(#1410),#832);
#787=STYLED_ITEM('',(#1410),#833);
#788=STYLED_ITEM('',(#1410),#834);
#789=STYLED_ITEM('',(#1410),#835);
#790=STYLED_ITEM('',(#1410),#836);
#791=STYLED_ITEM('',(#1410),#837);
#792=STYLED_ITEM('',(#1410),#839);
#793=STYLED_ITEM('',(#1410),#840);
#794=STYLED_ITEM('',(#1410),#841);
#795=STYLED_ITEM('',(#1410),#842);
#796=STYLED_ITEM('',(#1410),#843);
#797=STYLED_ITEM('',(#1410),#844);
#798=STYLED_ITEM('',(#1410),#845);
#799=STYLED_ITEM('',(#1410),#846);
#800=STYLED_ITEM('',(#1410),#847);
#801=STYLED_ITEM('',(#1410),#848);
#802=STYLED_ITEM('',(#1410),#849);
#803=STYLED_ITEM('',(#1410),#850);
#804=STYLED_ITEM('',(#1410),#851);
#805=STYLED_ITEM('',(#1410),#852);
#806=STYLED_ITEM('',(#1410),#853);
#807=STYLED_ITEM('',(#1409),#854);
#808=STYLED_ITEM('',(#1409),#855);
#809=STYLED_ITEM('',(#1409),#856);
#810=STYLED_ITEM('',(#1409),#857);
#811=STYLED_ITEM('',(#1409),#858);
#812=STYLED_ITEM('',(#1409),#859);
#813=STYLED_ITEM('',(#1409),#860);
#814=STYLED_ITEM('',(#1408),#13);
#815=ADVANCED_FACE('',(#70),#776,.T.);
#816=ADVANCED_FACE('',(#71),#67,.T.);
#817=ADVANCED_FACE('',(#72,#16),#24,.T.);
#818=ADVANCED_FACE('',(#73),#777,.T.);
#819=ADVANCED_FACE('',(#74,#17),#25,.T.);
#820=ADVANCED_FACE('',(#75),#26,.T.);
#821=ADVANCED_FACE('',(#76),#27,.T.);
#822=ADVANCED_FACE('',(#77),#28,.T.);
#823=ADVANCED_FACE('',(#78),#29,.T.);
#824=ADVANCED_FACE('',(#79),#30,.T.);
#825=ADVANCED_FACE('',(#80),#31,.T.);
#826=ADVANCED_FACE('',(#81),#32,.T.);
#827=ADVANCED_FACE('',(#82),#33,.T.);
#828=ADVANCED_FACE('',(#83),#34,.T.);
#829=ADVANCED_FACE('',(#84),#35,.T.);
#830=ADVANCED_FACE('',(#85),#36,.T.);
#831=ADVANCED_FACE('',(#86),#37,.T.);
#832=ADVANCED_FACE('',(#87),#38,.T.);
#833=ADVANCED_FACE('',(#88),#39,.T.);
#834=ADVANCED_FACE('',(#89),#40,.T.);
#835=ADVANCED_FACE('',(#90),#41,.T.);
#836=ADVANCED_FACE('',(#91),#42,.T.);
#837=ADVANCED_FACE('',(#92),#43,.T.);
#838=ADVANCED_FACE('',(#93),#44,.T.);
#839=ADVANCED_FACE('',(#94),#45,.T.);
#840=ADVANCED_FACE('',(#95),#46,.T.);
#841=ADVANCED_FACE('',(#96),#47,.T.);
#842=ADVANCED_FACE('',(#97),#48,.T.);
#843=ADVANCED_FACE('',(#98),#49,.T.);
#844=ADVANCED_FACE('',(#99),#50,.T.);
#845=ADVANCED_FACE('',(#100),#51,.T.);
#846=ADVANCED_FACE('',(#101),#52,.T.);
#847=ADVANCED_FACE('',(#102),#53,.T.);
#848=ADVANCED_FACE('',(#103),#54,.T.);
#849=ADVANCED_FACE('',(#104),#55,.T.);
#850=ADVANCED_FACE('',(#105),#56,.T.);
#851=ADVANCED_FACE('',(#106),#57,.T.);
#852=ADVANCED_FACE('',(#107),#58,.T.);
#853=ADVANCED_FACE('',(#108),#59,.T.);
#854=ADVANCED_FACE('',(#109),#778,.T.);
#855=ADVANCED_FACE('',(#110),#60,.T.);
#856=ADVANCED_FACE('',(#111),#61,.F.);
#857=ADVANCED_FACE('',(#112),#62,.T.);
#858=ADVANCED_FACE('',(#113,#18),#63,.F.);
#859=ADVANCED_FACE('',(#114),#68,.T.);
#860=ADVANCED_FACE('',(#115),#69,.T.);
#861=ADVANCED_FACE('',(#116),#64,.T.);
#862=ADVANCED_FACE('',(#117),#65,.T.);
#863=ADVANCED_FACE('',(#118,#19,#20,#21,#22,#23),#66,.F.);
#864=CLOSED_SHELL('',(#815,#816,#817,#818,#819,#820,#821,#822,#823,#824,
#825,#826,#827,#828,#829,#830,#831,#832,#833,#834,#835,#836,#837,#838,#839,
#840,#841,#842,#843,#844,#845,#846,#847,#848,#849,#850,#851,#852,#853,#854,
#855,#856,#857,#858,#859,#860,#861,#862,#863));
#865=DERIVED_UNIT_ELEMENT(#867,1.);
#866=DERIVED_UNIT_ELEMENT(#1394,-3.);
#867=(
MASS_UNIT()
NAMED_UNIT(*)
SI_UNIT(.KILO.,.GRAM.)
);
#868=DERIVED_UNIT((#865,#866));
#869=MEASURE_REPRESENTATION_ITEM('density measure',
POSITIVE_RATIO_MEASURE(7850.),#868);
#870=PROPERTY_DEFINITION_REPRESENTATION(#875,#872);
#871=PROPERTY_DEFINITION_REPRESENTATION(#876,#873);
#872=REPRESENTATION('material name',(#874),#1391);
#873=REPRESENTATION('density',(#869),#1391);
#874=DESCRIPTIVE_REPRESENTATION_ITEM('Steel','Steel');
#875=PROPERTY_DEFINITION('material property','material name',#1401);
#876=PROPERTY_DEFINITION('material property','density of part',#1401);
#877=AXIS2_PLACEMENT_3D('',#1156,#938,#939);
#878=AXIS2_PLACEMENT_3D('',#1157,#940,#941);
#879=AXIS2_PLACEMENT_3D('',#1159,#942,#943);
#880=AXIS2_PLACEMENT_3D('',#1162,#945,#946);
#881=AXIS2_PLACEMENT_3D('',#1163,#947,#948);
#882=AXIS2_PLACEMENT_3D('',#1166,#950,#951);
#883=AXIS2_PLACEMENT_3D('',#1167,#952,#953);
#884=AXIS2_PLACEMENT_3D('',#1169,#954,#955);
#885=AXIS2_PLACEMENT_3D('',#1170,#956,#957);
#886=AXIS2_PLACEMENT_3D('',#1172,#958,#959);
#887=AXIS2_PLACEMENT_3D('',#1174,#961,#962);
#888=AXIS2_PLACEMENT_3D('',#1187,#969,#970);
#889=AXIS2_PLACEMENT_3D('',#1194,#974,#975);
#890=AXIS2_PLACEMENT_3D('',#1200,#979,#980);
#891=AXIS2_PLACEMENT_3D('',#1207,#984,#985);
#892=AXIS2_PLACEMENT_3D('',#1213,#989,#990);
#893=AXIS2_PLACEMENT_3D('',#1216,#993,#994);
#894=AXIS2_PLACEMENT_3D('',#1219,#997,#998);
#895=AXIS2_PLACEMENT_3D('',#1222,#1001,#1002);
#896=AXIS2_PLACEMENT_3D('',#1224,#1004,#1005);
#897=AXIS2_PLACEMENT_3D('',#1226,#1007,#1008);
#898=AXIS2_PLACEMENT_3D('',#1235,#1013,#1014);
#899=AXIS2_PLACEMENT_3D('',#1241,#1018,#1019);
#900=AXIS2_PLACEMENT_3D('',#1247,#1023,#1024);
#901=AXIS2_PLACEMENT_3D('',#1250,#1027,#1028);
#902=AXIS2_PLACEMENT_3D('',#1251,#1029,#1030);
#903=AXIS2_PLACEMENT_3D('',#1260,#1035,#1036);
#904=AXIS2_PLACEMENT_3D('',#1266,#1040,#1041);
#905=AXIS2_PLACEMENT_3D('',#1272,#1045,#1046);
#906=AXIS2_PLACEMENT_3D('',#1275,#1049,#1050);
#907=AXIS2_PLACEMENT_3D('',#1276,#1051,#1052);
#908=AXIS2_PLACEMENT_3D('',#1285,#1057,#1058);
#909=AXIS2_PLACEMENT_3D('',#1291,#1062,#1063);
#910=AXIS2_PLACEMENT_3D('',#1297,#1067,#1068);
#911=AXIS2_PLACEMENT_3D('',#1300,#1071,#1072);
#912=AXIS2_PLACEMENT_3D('',#1301,#1073,#1074);
#913=AXIS2_PLACEMENT_3D('',#1310,#1079,#1080);
#914=AXIS2_PLACEMENT_3D('',#1316,#1084,#1085);
#915=AXIS2_PLACEMENT_3D('',#1322,#1089,#1090);
#916=AXIS2_PLACEMENT_3D('',#1325,#1093,#1094);
#917=AXIS2_PLACEMENT_3D('',#1326,#1095,#1096);
#918=AXIS2_PLACEMENT_3D('',#1335,#1101,#1102);
#919=AXIS2_PLACEMENT_3D('',#1341,#1106,#1107);
#920=AXIS2_PLACEMENT_3D('',#1347,#1111,#1112);
#921=AXIS2_PLACEMENT_3D('',#1350,#1115,#1116);
#922=AXIS2_PLACEMENT_3D('',#1351,#1117,#1118);
#923=AXIS2_PLACEMENT_3D('',#1358,#1119,#1120);
#924=AXIS2_PLACEMENT_3D('',#1364,#1121,#1122);
#925=AXIS2_PLACEMENT_3D('',#1365,#1123,#1124);
#926=AXIS2_PLACEMENT_3D('',#1366,#1125,#1126);
#927=AXIS2_PLACEMENT_3D('',#1368,#1128,#1129);
#928=AXIS2_PLACEMENT_3D('',#1374,#1133,#1134);
#929=AXIS2_PLACEMENT_3D('',#1375,#1135,#1136);
#930=AXIS2_PLACEMENT_3D('',#1376,#1137,#1138);
#931=AXIS2_PLACEMENT_3D('',#1378,#1139,#1140);
#932=AXIS2_PLACEMENT_3D('',#1380,#1141,#1142);
#933=AXIS2_PLACEMENT_3D('',#1381,#1143,#1144);
#934=AXIS2_PLACEMENT_3D('',#1383,#1146,#1147);
#935=AXIS2_PLACEMENT_3D('',#1385,#1149,#1150);
#936=AXIS2_PLACEMENT_3D('',#1387,#1152,#1153);
#937=AXIS2_PLACEMENT_3D('',#1388,#1154,#1155);
#938=DIRECTION('axis',(0.,0.,1.));
#939=DIRECTION('refdir',(1.,0.,0.));
#940=DIRECTION('center_axis',(-1.,0.,0.));
#941=DIRECTION('ref_axis',(0.,1.,0.));
#942=DIRECTION('center_axis',(-1.,0.,0.));
#943=DIRECTION('ref_axis',(0.,1.,0.));
#944=DIRECTION('',(-0.707106781186548,-0.707106781186548,-8.65956056235493E-17));
#945=DIRECTION('center_axis',(1.,0.,0.));
#946=DIRECTION('ref_axis',(0.,1.,0.));
#947=DIRECTION('center_axis',(1.,0.,0.));
#948=DIRECTION('ref_axis',(0.,1.,0.));
#949=DIRECTION('',(-1.,0.,0.));
#950=DIRECTION('center_axis',(-1.,0.,0.));
#951=DIRECTION('ref_axis',(0.,1.,0.));
#952=DIRECTION('center_axis',(1.,0.,0.));
#953=DIRECTION('ref_axis',(0.,1.,0.));
#954=DIRECTION('center_axis',(-1.,0.,0.));
#955=DIRECTION('ref_axis',(0.,1.,0.));
#956=DIRECTION('center_axis',(-1.,0.,0.));
#957=DIRECTION('ref_axis',(0.,1.,0.));
#958=DIRECTION('center_axis',(1.,0.,0.));
#959=DIRECTION('ref_axis',(0.,1.,0.));
#960=DIRECTION('',(0.707106781186548,0.707106781186547,-8.65956056235493E-17));
#961=DIRECTION('center_axis',(1.,0.,0.));
#962=DIRECTION('ref_axis',(0.,1.,0.));
#963=DIRECTION('',(0.,0.707106781186547,0.707106781186548));
#964=DIRECTION('',(0.,0.,1.));
#965=DIRECTION('',(0.,-1.,0.));
#966=DIRECTION('',(0.,0.,1.));
#967=DIRECTION('',(0.,0.707106781186547,-0.707106781186548));
#968=DIRECTION('',(0.,1.,0.));
#969=DIRECTION('center_axis',(-0.577350269189626,0.577350269189626,0.577350269189626));
#970=DIRECTION('ref_axis',(0.707106781186547,0.,0.707106781186547));
#971=DIRECTION('',(0.,-0.707106781186547,0.707106781186548));
#972=DIRECTION('',(0.707106781186548,0.707106781186547,0.));
#973=DIRECTION('',(-0.707106781186547,0.,-0.707106781186547));
#974=DIRECTION('center_axis',(-0.707106781186547,0.707106781186548,0.));
#975=DIRECTION('ref_axis',(0.,0.,1.));
#976=DIRECTION('',(-0.707106781186548,-0.707106781186547,0.));
#977=DIRECTION('',(0.,0.,1.));
#978=DIRECTION('',(0.,0.,-1.));
#979=DIRECTION('center_axis',(-0.577350269189626,-0.577350269189626,0.577350269189626));
#980=DIRECTION('ref_axis',(0.707106781186547,0.,0.707106781186547));
#981=DIRECTION('',(0.707106781186547,-7.85046229341887E-16,0.707106781186547));
#982=DIRECTION('',(-0.707106781186548,0.707106781186547,0.));
#983=DIRECTION('',(0.,-0.707106781186547,-0.707106781186548));
#984=DIRECTION('center_axis',(-0.707106781186547,-0.707106781186548,0.));
#985=DIRECTION('ref_axis',(0.,0.,1.));
#986=DIRECTION('',(0.707106781186548,-0.707106781186547,0.));
#987=DIRECTION('',(0.,0.,1.));
#988=DIRECTION('',(0.,0.,-1.));
#989=DIRECTION('center_axis',(0.,-0.707106781186548,0.707106781186547));
#990=DIRECTION('ref_axis',(1.,0.,0.));
#991=DIRECTION('',(-1.,0.,0.));
#992=DIRECTION('',(1.,0.,0.));
#993=DIRECTION('center_axis',(-0.707106781186548,-3.23730403852325E-16,
0.707106781186548));
#994=DIRECTION('ref_axis',(0.707106781186548,0.,0.707106781186548));
#995=DIRECTION('',(-4.57823927680477E-16,1.,0.));
#996=DIRECTION('',(4.57823927680477E-16,-1.,0.));
#997=DIRECTION('center_axis',(0.,0.707106781186548,0.707106781186547));
#998=DIRECTION('ref_axis',(1.,0.,0.));
#999=DIRECTION('',(-1.,0.,0.));
#1000=DIRECTION('',(1.,0.,0.));
#1001=DIRECTION('center_axis',(-1.,-4.57823927680477E-16,0.));
#1002=DIRECTION('ref_axis',(4.57823927680477E-16,-1.,0.));
#1003=DIRECTION('',(-4.57823927680477E-16,1.,0.));
#1004=DIRECTION('center_axis',(0.,1.,0.));
#1005=DIRECTION('ref_axis',(-1.,0.,0.));
#1006=DIRECTION('',(1.,0.,0.));
#1007=DIRECTION('center_axis',(1.,0.,0.));
#1008=DIRECTION('ref_axis',(0.,-1.,0.));
#1009=DIRECTION('',(0.,1.,0.));
#1010=DIRECTION('',(0.,0.,-1.));
#1011=DIRECTION('',(0.,-1.,0.));
#1012=DIRECTION('',(0.,0.,-1.));
#1013=DIRECTION('center_axis',(0.,1.,0.));
#1014=DIRECTION('ref_axis',(1.,0.,0.));
#1015=DIRECTION('',(-1.,0.,0.));
#1016=DIRECTION('',(1.,0.,0.));
#1017=DIRECTION('',(0.,0.,-1.));
#1018=DIRECTION('center_axis',(-1.,3.08395284618099E-16,0.));
#1019=DIRECTION('ref_axis',(3.08395284618099E-16,1.,0.));
#1020=DIRECTION('',(-3.08395284618099E-16,-1.,0.));
#1021=DIRECTION('',(3.08395284618099E-16,1.,0.));
#1022=DIRECTION('',(0.,0.,-1.));
#1023=DIRECTION('center_axis',(0.,-1.,0.));
#1024=DIRECTION('ref_axis',(-1.,0.,0.));
#1025=DIRECTION('',(1.,0.,0.));
#1026=DIRECTION('',(-1.,0.,0.));
#1027=DIRECTION('center_axis',(0.,0.,-1.));
#1028=DIRECTION('ref_axis',(-1.,0.,0.));
#1029=DIRECTION('center_axis',(1.,0.,0.));
#1030=DIRECTION('ref_axis',(0.,-1.,0.));
#1031=DIRECTION('',(0.,1.,0.));
#1032=DIRECTION('',(0.,0.,-1.));
#1033=DIRECTION('',(0.,-1.,0.));
#1034=DIRECTION('',(0.,0.,-1.));
#1035=DIRECTION('center_axis',(0.,1.,0.));
#1036=DIRECTION('ref_axis',(1.,0.,0.));
#1037=DIRECTION('',(-1.,0.,0.));
#1038=DIRECTION('',(1.,0.,0.));
#1039=DIRECTION('',(0.,0.,-1.));
#1040=DIRECTION('center_axis',(-1.,0.,0.));
#1041=DIRECTION('ref_axis',(0.,1.,0.));
#1042=DIRECTION('',(0.,-1.,0.));
#1043=DIRECTION('',(0.,1.,0.));
#1044=DIRECTION('',(0.,0.,-1.));
#1045=DIRECTION('center_axis',(0.,-1.,0.));
#1046=DIRECTION('ref_axis',(-1.,0.,0.));
#1047=DIRECTION('',(1.,0.,0.));
#1048=DIRECTION('',(-1.,0.,0.));
#1049=DIRECTION('center_axis',(0.,0.,-1.));
#1050=DIRECTION('ref_axis',(-1.,0.,0.));
#1051=DIRECTION('center_axis',(1.,0.,0.));
#1052=DIRECTION('ref_axis',(0.,-1.,0.));
#1053=DIRECTION('',(0.,1.,0.));
#1054=DIRECTION('',(0.,0.,-1.));
#1055=DIRECTION('',(0.,-1.,0.));
#1056=DIRECTION('',(0.,0.,-1.));
#1057=DIRECTION('center_axis',(0.,1.,0.));
#1058=DIRECTION('ref_axis',(1.,0.,0.));
#1059=DIRECTION('',(-1.,0.,0.));
#1060=DIRECTION('',(1.,0.,0.));
#1061=DIRECTION('',(0.,0.,-1.));
#1062=DIRECTION('center_axis',(-1.,0.,0.));
#1063=DIRECTION('ref_axis',(0.,1.,0.));
#1064=DIRECTION('',(0.,-1.,0.));
#1065=DIRECTION('',(0.,1.,0.));
#1066=DIRECTION('',(0.,0.,-1.));
#1067=DIRECTION('center_axis',(0.,-1.,0.));
#1068=DIRECTION('ref_axis',(-1.,0.,0.));
#1069=DIRECTION('',(1.,0.,0.));
#1070=DIRECTION('',(-1.,0.,0.));
#1071=DIRECTION('center_axis',(0.,0.,-1.));
#1072=DIRECTION('ref_axis',(-1.,0.,0.));
#1073=DIRECTION('center_axis',(1.,0.,0.));
#1074=DIRECTION('ref_axis',(0.,-1.,0.));
#1075=DIRECTION('',(0.,1.,0.));
#1076=DIRECTION('',(0.,0.,-1.));
#1077=DIRECTION('',(0.,-1.,0.));
#1078=DIRECTION('',(0.,0.,-1.));
#1079=DIRECTION('center_axis',(0.,1.,0.));
#1080=DIRECTION('ref_axis',(1.,0.,0.));
#1081=DIRECTION('',(-1.,0.,0.));
#1082=DIRECTION('',(1.,0.,0.));
#1083=DIRECTION('',(0.,0.,-1.));
#1084=DIRECTION('center_axis',(-1.,0.,0.));
#1085=DIRECTION('ref_axis',(0.,1.,0.));
#1086=DIRECTION('',(0.,-1.,0.));
#1087=DIRECTION('',(0.,1.,0.));
#1088=DIRECTION('',(0.,0.,-1.));
#1089=DIRECTION('center_axis',(0.,-1.,0.));
#1090=DIRECTION('ref_axis',(-1.,0.,0.));
#1091=DIRECTION('',(1.,0.,0.));
#1092=DIRECTION('',(-1.,0.,0.));
#1093=DIRECTION('center_axis',(0.,0.,-1.));
#1094=DIRECTION('ref_axis',(-1.,0.,0.));
#1095=DIRECTION('center_axis',(1.,0.,0.));
#1096=DIRECTION('ref_axis',(0.,-1.,0.));
#1097=DIRECTION('',(0.,1.,0.));
#1098=DIRECTION('',(0.,0.,-1.));
#1099=DIRECTION('',(0.,-1.,0.));
#1100=DIRECTION('',(0.,0.,-1.));
#1101=DIRECTION('center_axis',(0.,1.,0.));
#1102=DIRECTION('ref_axis',(1.,0.,0.));
#1103=DIRECTION('',(-1.,0.,0.));
#1104=DIRECTION('',(1.,0.,0.));
#1105=DIRECTION('',(0.,0.,-1.));
#1106=DIRECTION('center_axis',(-1.,3.08395284618099E-16,0.));
#1107=DIRECTION('ref_axis',(3.08395284618099E-16,1.,0.));
#1108=DIRECTION('',(-3.08395284618099E-16,-1.,0.));
#1109=DIRECTION('',(3.08395284618099E-16,1.,0.));
#1110=DIRECTION('',(0.,0.,-1.));
#1111=DIRECTION('center_axis',(0.,-1.,0.));
#1112=DIRECTION('ref_axis',(-1.,0.,0.));
#1113=DIRECTION('',(1.,0.,0.));
#1114=DIRECTION('',(-1.,0.,0.));
#1115=DIRECTION('center_axis',(0.,0.,-1.));
#1116=DIRECTION('ref_axis',(-1.,0.,0.));
#1117=DIRECTION('center_axis',(-1.,0.,0.));
#1118=DIRECTION('ref_axis',(0.,6.12323399573677E-17,-1.));
#1119=DIRECTION('center_axis',(-1.,0.,0.));
#1120=DIRECTION('ref_axis',(0.,1.,0.));
#1121=DIRECTION('center_axis',(1.,0.,0.));
#1122=DIRECTION('ref_axis',(0.,1.,0.));
#1123=DIRECTION('center_axis',(1.,0.,0.));
#1124=DIRECTION('ref_axis',(0.,1.,0.));
#1125=DIRECTION('center_axis',(1.,0.,0.));
#1126=DIRECTION('ref_axis',(0.,1.,0.));
#1127=DIRECTION('',(0.,-1.,0.));
#1128=DIRECTION('center_axis',(0.,0.,-1.));
#1129=DIRECTION('ref_axis',(0.,-1.,0.));
#1130=DIRECTION('',(1.,0.,0.));
#1131=DIRECTION('',(0.,-1.,0.));
#1132=DIRECTION('',(-1.,0.,0.));
#1133=DIRECTION('center_axis',(1.,0.,0.));
#1134=DIRECTION('ref_axis',(0.,1.,0.));
#1135=DIRECTION('center_axis',(-1.,0.,0.));
#1136=DIRECTION('ref_axis',(0.,1.,0.));
#1137=DIRECTION('center_axis',(1.,0.,0.));
#1138=DIRECTION('ref_axis',(0.,1.,0.));
#1139=DIRECTION('center_axis',(1.,0.,0.));
#1140=DIRECTION('ref_axis',(0.,1.,0.));
#1141=DIRECTION('center_axis',(1.,0.,0.));
#1142=DIRECTION('ref_axis',(0.,1.,0.));
#1143=DIRECTION('center_axis',(1.,0.,0.));
#1144=DIRECTION('ref_axis',(0.,1.,0.));
#1145=DIRECTION('',(-1.,0.,0.));
#1146=DIRECTION('center_axis',(1.,0.,0.));
#1147=DIRECTION('ref_axis',(0.,1.,0.));
#1148=DIRECTION('',(-1.,0.,0.));
#1149=DIRECTION('center_axis',(0.,-1.,0.));
#1150=DIRECTION('ref_axis',(1.,0.,0.));
#1151=DIRECTION('',(-1.,0.,0.));
#1152=DIRECTION('center_axis',(0.,0.,1.));
#1153=DIRECTION('ref_axis',(1.,0.,0.));
#1154=DIRECTION('center_axis',(0.,0.,1.));
#1155=DIRECTION('ref_axis',(1.,0.,0.));
#1156=CARTESIAN_POINT('',(0.,0.,0.));
#1157=CARTESIAN_POINT('Origin',(12.975,-3.9801020972289E-16,6.5));
#1158=CARTESIAN_POINT('',(13.025,-3.025,6.5));
#1159=CARTESIAN_POINT('Origin',(13.025,-3.9801020972289E-16,6.5));
#1160=CARTESIAN_POINT('',(12.925,-3.125,6.5));
#1161=CARTESIAN_POINT('',(12.975,-3.075,6.5));
#1162=CARTESIAN_POINT('Origin',(12.925,-3.9801020972289E-16,6.5));
#1163=CARTESIAN_POINT('Origin',(6.025,-3.9801020972289E-16,6.5));
#1164=CARTESIAN_POINT('',(6.525,-3.125,6.5));
#1165=CARTESIAN_POINT('',(6.025,-3.125,6.5));
#1166=CARTESIAN_POINT('Origin',(6.525,-3.9801020972289E-16,6.5));
#1167=CARTESIAN_POINT('Origin',(13.025,-5.55111512312578E-16,6.5));
#1168=CARTESIAN_POINT('',(13.025,-2.75,6.5));
#1169=CARTESIAN_POINT('Origin',(13.025,-3.9801020972289E-16,6.5));
#1170=CARTESIAN_POINT('Origin',(6.275,-3.9801020972289E-16,6.5));
#1171=CARTESIAN_POINT('',(6.025,-3.625,6.5));
#1172=CARTESIAN_POINT('Origin',(6.025,-3.9801020972289E-16,6.5));
#1173=CARTESIAN_POINT('',(6.275,-3.375,6.5));
#1174=CARTESIAN_POINT('Origin',(6.025,-4.85,0.));
#1175=CARTESIAN_POINT('',(6.025,-4.85,10.85));
#1176=CARTESIAN_POINT('',(6.025,-4.35,11.35));
#1177=CARTESIAN_POINT('',(6.025,-7.4375,8.2625));
#1178=CARTESIAN_POINT('',(6.025,-4.85,0.));
#1179=CARTESIAN_POINT('',(6.025,-4.85,0.));
#1180=CARTESIAN_POINT('',(6.025,4.85,0.));
#1181=CARTESIAN_POINT('',(6.025,4.85,0.));
#1182=CARTESIAN_POINT('',(6.025,4.85,10.85));
#1183=CARTESIAN_POINT('',(6.025,4.85,0.));
#1184=CARTESIAN_POINT('',(6.025,4.35,11.35));
#1185=CARTESIAN_POINT('',(6.025,5.0125,10.6875));
#1186=CARTESIAN_POINT('',(6.025,4.85,11.35));
#1187=CARTESIAN_POINT('Origin',(-6.025,4.35,10.85));
#1188=CARTESIAN_POINT('',(-5.525,4.85,10.85));
#1189=CARTESIAN_POINT('',(-5.525,4.35,11.35));
#1190=CARTESIAN_POINT('',(-5.525,4.85,10.85));
#1191=CARTESIAN_POINT('',(-6.025,4.35,10.85));
#1192=CARTESIAN_POINT('',(-6.025,4.35,10.85));
#1193=CARTESIAN_POINT('',(-5.525,4.35,11.35));
#1194=CARTESIAN_POINT('Origin',(-5.775,4.6,0.));
#1195=CARTESIAN_POINT('',(-5.525,4.85,0.));
#1196=CARTESIAN_POINT('',(-6.025,4.35,0.));
#1197=CARTESIAN_POINT('',(-5.48125,4.89375,0.));
#1198=CARTESIAN_POINT('',(-6.025,4.35,0.));
#1199=CARTESIAN_POINT('',(-5.525,4.85,0.));
#1200=CARTESIAN_POINT('Origin',(-5.525,-4.85,10.85));
#1201=CARTESIAN_POINT('',(-6.025,-4.35,10.85));
#1202=CARTESIAN_POINT('',(-5.525,-4.35,11.35));
#1203=CARTESIAN_POINT('',(-6.025,-4.35,10.85));
#1204=CARTESIAN_POINT('',(-5.525,-4.85,10.85));
#1205=CARTESIAN_POINT('',(-5.525,-4.85,10.85));
#1206=CARTESIAN_POINT('',(-5.525,-4.35,11.35));
#1207=CARTESIAN_POINT('Origin',(-5.775,-4.6,0.));
#1208=CARTESIAN_POINT('',(-6.025,-4.35,0.));
#1209=CARTESIAN_POINT('',(-5.525,-4.85,0.));
#1210=CARTESIAN_POINT('',(-5.48125,-4.89375,0.));
#1211=CARTESIAN_POINT('',(-5.525,-4.85,0.));
#1212=CARTESIAN_POINT('',(-6.025,-4.35,0.));
#1213=CARTESIAN_POINT('Origin',(-3.0125,-4.6,11.1));
#1214=CARTESIAN_POINT('',(-3.0125,-4.35,11.35));
#1215=CARTESIAN_POINT('',(-3.0125,-4.85,10.85));
#1216=CARTESIAN_POINT('Origin',(-5.775,2.425,11.1));
#1217=CARTESIAN_POINT('',(-5.525,2.425,11.35));
#1218=CARTESIAN_POINT('',(-6.025,2.425,10.85));
#1219=CARTESIAN_POINT('Origin',(3.0125,4.6,11.1));
#1220=CARTESIAN_POINT('',(3.0125,4.85,10.85));
#1221=CARTESIAN_POINT('',(3.0125,4.35,11.35));
#1222=CARTESIAN_POINT('Origin',(-6.025,4.85,0.));
#1223=CARTESIAN_POINT('',(-6.025,-4.85,0.));
#1224=CARTESIAN_POINT('Origin',(6.025,4.85,0.));
#1225=CARTESIAN_POINT('',(-6.025,4.85,0.));
#1226=CARTESIAN_POINT('Origin',(1.125,2.95,0.));
#1227=CARTESIAN_POINT('',(1.125,2.05,0.));
#1228=CARTESIAN_POINT('',(1.125,2.95,0.));
#1229=CARTESIAN_POINT('',(1.125,1.475,0.));
#1230=CARTESIAN_POINT('',(1.125,2.05,-3.5));
#1231=CARTESIAN_POINT('',(1.125,2.05,0.));
#1232=CARTESIAN_POINT('',(1.125,2.95,-3.5));
#1233=CARTESIAN_POINT('',(1.125,2.05,-3.5));
#1234=CARTESIAN_POINT('',(1.125,2.95,0.));
#1235=CARTESIAN_POINT('Origin',(0.925000000000002,2.95,0.));
#1236=CARTESIAN_POINT('',(0.925000000000002,2.95,0.));
#1237=CARTESIAN_POINT('',(0.4625,2.95,0.));
#1238=CARTESIAN_POINT('',(0.925000000000002,2.95,-3.5));
#1239=CARTESIAN_POINT('',(1.125,2.95,-3.5));
#1240=CARTESIAN_POINT('',(0.925000000000002,2.95,0.));
#1241=CARTESIAN_POINT('Origin',(0.925000000000001,2.05,0.));
#1242=CARTESIAN_POINT('',(0.925000000000001,2.05,0.));
#1243=CARTESIAN_POINT('',(0.925000000000001,1.025,0.));
#1244=CARTESIAN_POINT('',(0.925000000000001,2.05,-3.5));
#1245=CARTESIAN_POINT('',(0.925000000000002,2.95,-3.5));
#1246=CARTESIAN_POINT('',(0.925000000000001,2.05,0.));
#1247=CARTESIAN_POINT('Origin',(1.125,2.05,0.));
#1248=CARTESIAN_POINT('',(0.5625,2.05,0.));
#1249=CARTESIAN_POINT('',(0.925000000000001,2.05,-3.5));
#1250=CARTESIAN_POINT('Origin',(1.025,2.5,-3.5));
#1251=CARTESIAN_POINT('Origin',(-3.875,-2.05,0.));
#1252=CARTESIAN_POINT('',(-3.875,-2.95,0.));
#1253=CARTESIAN_POINT('',(-3.875,-2.05,0.));
#1254=CARTESIAN_POINT('',(-3.875,-1.025,0.));
#1255=CARTESIAN_POINT('',(-3.875,-2.95,-3.5));
#1256=CARTESIAN_POINT('',(-3.875,-2.95,0.));
#1257=CARTESIAN_POINT('',(-3.875,-2.05,-3.5));
#1258=CARTESIAN_POINT('',(-3.875,-2.95,-3.5));
#1259=CARTESIAN_POINT('',(-3.875,-2.05,0.));
#1260=CARTESIAN_POINT('Origin',(-4.075,-2.05,0.));
#1261=CARTESIAN_POINT('',(-4.075,-2.05,0.));
#1262=CARTESIAN_POINT('',(-2.0375,-2.05,0.));
#1263=CARTESIAN_POINT('',(-4.075,-2.05,-3.5));
#1264=CARTESIAN_POINT('',(-3.875,-2.05,-3.5));
#1265=CARTESIAN_POINT('',(-4.075,-2.05,0.));
#1266=CARTESIAN_POINT('Origin',(-4.075,-2.95,0.));
#1267=CARTESIAN_POINT('',(-4.075,-2.95,0.));
#1268=CARTESIAN_POINT('',(-4.075,-1.475,0.));
#1269=CARTESIAN_POINT('',(-4.075,-2.95,-3.5));
#1270=CARTESIAN_POINT('',(-4.075,-2.05,-3.5));
#1271=CARTESIAN_POINT('',(-4.075,-2.95,0.));
#1272=CARTESIAN_POINT('Origin',(-3.875,-2.95,0.));
#1273=CARTESIAN_POINT('',(-1.9375,-2.95,0.));
#1274=CARTESIAN_POINT('',(-4.075,-2.95,-3.5));
#1275=CARTESIAN_POINT('Origin',(-3.975,-2.5,-3.5));
#1276=CARTESIAN_POINT('Origin',(1.125,0.449999999999999,0.));
#1277=CARTESIAN_POINT('',(1.125,-0.450000000000003,0.));
#1278=CARTESIAN_POINT('',(1.125,0.449999999999999,0.));
#1279=CARTESIAN_POINT('',(1.125,0.225,0.));
#1280=CARTESIAN_POINT('',(1.125,-0.450000000000003,-3.5));
#1281=CARTESIAN_POINT('',(1.125,-0.450000000000003,0.));
#1282=CARTESIAN_POINT('',(1.125,0.449999999999999,-3.5));
#1283=CARTESIAN_POINT('',(1.125,-0.450000000000003,-3.5));
#1284=CARTESIAN_POINT('',(1.125,0.449999999999999,0.));
#1285=CARTESIAN_POINT('Origin',(0.925000000000001,0.449999999999999,0.));
#1286=CARTESIAN_POINT('',(0.925000000000001,0.449999999999999,0.));
#1287=CARTESIAN_POINT('',(0.4625,0.449999999999999,0.));
#1288=CARTESIAN_POINT('',(0.925000000000001,0.449999999999999,-3.5));
#1289=CARTESIAN_POINT('',(1.125,0.449999999999999,-3.5));
#1290=CARTESIAN_POINT('',(0.925000000000001,0.449999999999999,0.));
#1291=CARTESIAN_POINT('Origin',(0.925000000000001,-0.450000000000003,0.));
#1292=CARTESIAN_POINT('',(0.925000000000001,-0.450000000000003,0.));
#1293=CARTESIAN_POINT('',(0.925000000000001,-0.225000000000001,0.));
#1294=CARTESIAN_POINT('',(0.925000000000001,-0.450000000000003,-3.5));
#1295=CARTESIAN_POINT('',(0.925000000000001,0.449999999999999,-3.5));
#1296=CARTESIAN_POINT('',(0.925000000000001,-0.450000000000003,0.));
#1297=CARTESIAN_POINT('Origin',(1.125,-0.450000000000003,0.));
#1298=CARTESIAN_POINT('',(0.5625,-0.450000000000003,0.));
#1299=CARTESIAN_POINT('',(0.925000000000001,-0.450000000000003,-3.5));
#1300=CARTESIAN_POINT('Origin',(1.025,-1.94289029309402E-15,-3.5));
#1301=CARTESIAN_POINT('Origin',(-3.875,2.94999999999999,0.));
#1302=CARTESIAN_POINT('',(-3.875,2.04999999999999,0.));
#1303=CARTESIAN_POINT('',(-3.875,2.94999999999999,0.));
#1304=CARTESIAN_POINT('',(-3.875,1.475,0.));
#1305=CARTESIAN_POINT('',(-3.875,2.04999999999999,-3.5));
#1306=CARTESIAN_POINT('',(-3.875,2.04999999999999,0.));
#1307=CARTESIAN_POINT('',(-3.875,2.94999999999999,-3.5));
#1308=CARTESIAN_POINT('',(-3.875,2.04999999999999,-3.5));
#1309=CARTESIAN_POINT('',(-3.875,2.94999999999999,0.));
#1310=CARTESIAN_POINT('Origin',(-4.075,2.94999999999999,0.));
#1311=CARTESIAN_POINT('',(-4.075,2.94999999999999,0.));
#1312=CARTESIAN_POINT('',(-2.0375,2.94999999999999,0.));
#1313=CARTESIAN_POINT('',(-4.075,2.94999999999999,-3.5));
#1314=CARTESIAN_POINT('',(-3.875,2.94999999999999,-3.5));
#1315=CARTESIAN_POINT('',(-4.075,2.94999999999999,0.));
#1316=CARTESIAN_POINT('Origin',(-4.075,2.04999999999999,0.));
#1317=CARTESIAN_POINT('',(-4.075,2.04999999999999,0.));
#1318=CARTESIAN_POINT('',(-4.075,1.025,0.));
#1319=CARTESIAN_POINT('',(-4.075,2.04999999999999,-3.5));
#1320=CARTESIAN_POINT('',(-4.075,2.94999999999999,-3.5));
#1321=CARTESIAN_POINT('',(-4.075,2.04999999999999,0.));
#1322=CARTESIAN_POINT('Origin',(-3.875,2.04999999999999,0.));
#1323=CARTESIAN_POINT('',(-1.9375,2.04999999999999,0.));
#1324=CARTESIAN_POINT('',(-4.075,2.04999999999999,-3.5));
#1325=CARTESIAN_POINT('Origin',(-3.975,2.49999999999999,-3.5));
#1326=CARTESIAN_POINT('Origin',(1.125,-2.05,0.));
#1327=CARTESIAN_POINT('',(1.125,-2.95,0.));
#1328=CARTESIAN_POINT('',(1.125,-2.05,0.));
#1329=CARTESIAN_POINT('',(1.125,-1.025,0.));
#1330=CARTESIAN_POINT('',(1.125,-2.95,-3.5));
#1331=CARTESIAN_POINT('',(1.125,-2.95,0.));
#1332=CARTESIAN_POINT('',(1.125,-2.05,-3.5));
#1333=CARTESIAN_POINT('',(1.125,-2.95,-3.5));
#1334=CARTESIAN_POINT('',(1.125,-2.05,0.));
#1335=CARTESIAN_POINT('Origin',(0.925000000000001,-2.05,0.));
#1336=CARTESIAN_POINT('',(0.925000000000001,-2.05,0.));
#1337=CARTESIAN_POINT('',(0.4625,-2.05,0.));
#1338=CARTESIAN_POINT('',(0.925000000000001,-2.05,-3.5));
#1339=CARTESIAN_POINT('',(1.125,-2.05,-3.5));
#1340=CARTESIAN_POINT('',(0.925000000000001,-2.05,0.));
#1341=CARTESIAN_POINT('Origin',(0.925000000000001,-2.95,0.));
#1342=CARTESIAN_POINT('',(0.925000000000001,-2.95,0.));
#1343=CARTESIAN_POINT('',(0.925000000000002,-1.475,0.));
#1344=CARTESIAN_POINT('',(0.925000000000001,-2.95,-3.5));
#1345=CARTESIAN_POINT('',(0.925000000000001,-2.05,-3.5));
#1346=CARTESIAN_POINT('',(0.925000000000001,-2.95,0.));
#1347=CARTESIAN_POINT('Origin',(1.125,-2.95,0.));
#1348=CARTESIAN_POINT('',(0.5625,-2.95,0.));
#1349=CARTESIAN_POINT('',(0.925000000000001,-2.95,-3.5));
#1350=CARTESIAN_POINT('Origin',(1.025,-2.5,-3.5));
#1351=CARTESIAN_POINT('Origin',(25.775,-3.9801020972289E-16,6.5));
#1352=CARTESIAN_POINT('',(25.525,2.59807621135332,8.));
#1353=CARTESIAN_POINT('',(26.025,2.,8.));
#1354=CARTESIAN_POINT('Ctrl Pts',(25.525,2.59807621135332,8.));
#1355=CARTESIAN_POINT('Ctrl Pts',(25.8075177413248,2.27185282334384,8.));
#1356=CARTESIAN_POINT('Ctrl Pts',(26.025,2.,8.));
#1357=CARTESIAN_POINT('',(26.025,-2.,8.));
#1358=CARTESIAN_POINT('Origin',(26.025,-3.9801020972289E-16,6.5));
#1359=CARTESIAN_POINT('',(25.525,-2.59807621135332,8.));
#1360=CARTESIAN_POINT('Ctrl Pts',(26.025,-2.,8.));
#1361=CARTESIAN_POINT('Ctrl Pts',(25.8075177413248,-2.27185282334383,8.));
#1362=CARTESIAN_POINT('Ctrl Pts',(25.525,-2.59807621135332,8.));
#1363=CARTESIAN_POINT('',(25.525,-3.,6.5));
#1364=CARTESIAN_POINT('Origin',(25.525,-3.9801020972289E-16,6.5));
#1365=CARTESIAN_POINT('Origin',(25.525,-3.9801020972289E-16,6.5));
#1366=CARTESIAN_POINT('Origin',(26.025,-5.55111512312578E-16,6.5));
#1367=CARTESIAN_POINT('',(26.025,1.29903810567666,8.));
#1368=CARTESIAN_POINT('Origin',(26.025,2.59807621135332,8.));
#1369=CARTESIAN_POINT('',(16.025,2.59807621135332,8.));
#1370=CARTESIAN_POINT('',(14.725,2.59807621135332,8.));
#1371=CARTESIAN_POINT('',(16.025,-2.59807621135332,8.));
#1372=CARTESIAN_POINT('',(16.025,-2.59807621135332,8.));
#1373=CARTESIAN_POINT('',(14.725,-2.59807621135332,8.));
#1374=CARTESIAN_POINT('Origin',(16.025,-5.55111512312578E-16,8.75));
#1375=CARTESIAN_POINT('Origin',(16.025,-3.9801020972289E-16,6.5));
#1376=CARTESIAN_POINT('Origin',(14.725,-5.55111512312578E-16,6.5));
#1377=CARTESIAN_POINT('',(14.725,-3.,6.5));
#1378=CARTESIAN_POINT('Origin',(14.725,-3.9801020972289E-16,6.5));
#1379=CARTESIAN_POINT('',(14.725,-2.75,6.5));
#1380=CARTESIAN_POINT('Origin',(14.725,-3.9801020972289E-16,6.5));
#1381=CARTESIAN_POINT('Origin',(14.725,-3.9801020972289E-16,6.5));
#1382=CARTESIAN_POINT('',(14.725,-3.,6.5));
#1383=CARTESIAN_POINT('Origin',(13.025,-3.9801020972289E-16,6.5));
#1384=CARTESIAN_POINT('',(13.025,-2.75,6.5));
#1385=CARTESIAN_POINT('Origin',(-6.025,-4.85,0.));
#1386=CARTESIAN_POINT('',(6.025,-4.85,0.));
#1387=CARTESIAN_POINT('Origin',(-1.11022302462516E-15,5.55111512312578E-16,
11.35));
#1388=CARTESIAN_POINT('Origin',(-1.11022302462516E-15,5.55111512312578E-16,
0.));
#1389=UNCERTAINTY_MEASURE_WITH_UNIT(LENGTH_MEASURE(0.01),#1393,
'DISTANCE_ACCURACY_VALUE',
'Maximum model space distance between geometric entities at asserted c
onnectivities');
#1390=UNCERTAINTY_MEASURE_WITH_UNIT(LENGTH_MEASURE(0.01),#1393,
'DISTANCE_ACCURACY_VALUE',
'Maximum model space distance between geometric entities at asserted c
onnectivities');
#1391=(
GEOMETRIC_REPRESENTATION_CONTEXT(3)
GLOBAL_UNCERTAINTY_ASSIGNED_CONTEXT((#1389))
GLOBAL_UNIT_ASSIGNED_CONTEXT((#1393,#1395,#1396))
REPRESENTATION_CONTEXT('','3D')
);
#1392=(
GEOMETRIC_REPRESENTATION_CONTEXT(3)
GLOBAL_UNCERTAINTY_ASSIGNED_CONTEXT((#1390))
GLOBAL_UNIT_ASSIGNED_CONTEXT((#1393,#1395,#1396))
REPRESENTATION_CONTEXT('','3D')
);
#1393=(
LENGTH_UNIT()
NAMED_UNIT(*)
SI_UNIT(.MILLI.,.METRE.)
);
#1394=(
LENGTH_UNIT()
NAMED_UNIT(*)
SI_UNIT($,.METRE.)
);
#1395=(
NAMED_UNIT(*)
PLANE_ANGLE_UNIT()
SI_UNIT($,.RADIAN.)
);
#1396=(
NAMED_UNIT(*)
SI_UNIT($,.STERADIAN.)
SOLID_ANGLE_UNIT()
);
#1397=SHAPE_DEFINITION_REPRESENTATION(#1398,#1399);
#1398=PRODUCT_DEFINITION_SHAPE('',$,#1401);
#1399=SHAPE_REPRESENTATION('',(#877),#1391);
#1400=PRODUCT_DEFINITION_CONTEXT('part definition',#1405,'design');
#1401=PRODUCT_DEFINITION('PEC09-2320F-T0015','PEC09-2320F-T0015 v2',#1402,
#1400);
#1402=PRODUCT_DEFINITION_FORMATION('',$,#1407);
#1403=PRODUCT_RELATED_PRODUCT_CATEGORY('PEC09-2320F-T0015 v2',
'PEC09-2320F-T0015 v2',(#1407));
#1404=APPLICATION_PROTOCOL_DEFINITION('international standard',
'automotive_design',2009,#1405);
#1405=APPLICATION_CONTEXT(
'Core Data for Automotive Mechanical Design Process');
#1406=PRODUCT_CONTEXT('part definition',#1405,'mechanical');
#1407=PRODUCT('PEC09-2320F-T0015','PEC09-2320F-T0015 v2',$,(#1406));
#1408=PRESENTATION_STYLE_ASSIGNMENT((#1411));
#1409=PRESENTATION_STYLE_ASSIGNMENT((#1412));
#1410=PRESENTATION_STYLE_ASSIGNMENT((#1413));
#1411=SURFACE_STYLE_USAGE(.BOTH.,#1414);
#1412=SURFACE_STYLE_USAGE(.BOTH.,#1415);
#1413=SURFACE_STYLE_USAGE(.BOTH.,#1416);
#1414=SURFACE_SIDE_STYLE('',(#1417));
#1415=SURFACE_SIDE_STYLE('',(#1418));
#1416=SURFACE_SIDE_STYLE('',(#1419));
#1417=SURFACE_STYLE_FILL_AREA(#1420);
#1418=SURFACE_STYLE_FILL_AREA(#1421);
#1419=SURFACE_STYLE_FILL_AREA(#1422);
#1420=FILL_AREA_STYLE(
'EPX 150 - Air Baked (with Carbon M2 M3 L1 3D Printers)',(#1423));
#1421=FILL_AREA_STYLE('Aluminum - Polished',(#1424));
#1422=FILL_AREA_STYLE('Gold - Polished',(#1425));
#1423=FILL_AREA_STYLE_COLOUR(
'EPX 150 - Air Baked (with Carbon M2 M3 L1 3D Printers)',#1426);
#1424=FILL_AREA_STYLE_COLOUR('Aluminum - Polished',#1427);
#1425=FILL_AREA_STYLE_COLOUR('Gold - Polished',#1428);
#1426=COLOUR_RGB(
'EPX 150 - Air Baked (with Carbon M2 M3 L1 3D Printers)',0.247058823529412,
0.247058823529412,0.247058823529412);
#1427=COLOUR_RGB('Aluminum - Polished',0.96078431372549,0.96078431372549,
0.964705882352941);
#1428=COLOUR_RGB('Gold - Polished',0.956862745098039,0.898039215686275,
0.654901960784314);
ENDSEC;
END-ISO-10303-21;
