ISO-10303-21;
HEADER;
/* Generated by software containing ST-Developer
 * from STEP Tools, Inc. (www.steptools.com) 
 */

FILE_DESCRIPTION(
/* description */ (''),
/* implementation_level */ '2;1');

FILE_NAME(
/* name */ 'ST0201.step',
/* time_stamp */ '2026-02-25T10:49:07+09:00',
/* author */ (''),
/* organization */ (''),
/* preprocessor_version */ 'ST-DEVELOPER v20.1',
/* originating_system */ 'Autodesk Translation Framework v14.24.0.0',
/* authorisation */ '');

FILE_SCHEMA (('AUTOMOTIVE_DESIGN { 1 0 10303 214 3 1 1 }'));
ENDSEC;

DATA;
#10=MECHANICAL_DESIGN_GEOMETRIC_PRESENTATION_REPRESENTATION('',(#330,#331,
#332,#333,#334,#335,#336,#337,#338,#339,#340,#341,#342,#343),#579);
#11=SHAPE_REPRESENTATION_RELATIONSHIP('SRR','None',#586,#12);
#12=ADVANCED_BREP_SHAPE_REPRESENTATION('',(#13),#578);
#13=MANIFOLD_SOLID_BREP('Body1',#363);
#14=FACE_BOUND('',#54,.T.);
#15=FACE_BOUND('',#55,.T.);
#16=FACE_OUTER_BOUND('',#35,.T.);
#17=FACE_OUTER_BOUND('',#36,.T.);
#18=FACE_OUTER_BOUND('',#37,.T.);
#19=FACE_OUTER_BOUND('',#38,.T.);
#20=FACE_OUTER_BOUND('',#39,.T.);
#21=FACE_OUTER_BOUND('',#40,.T.);
#22=FACE_OUTER_BOUND('',#41,.T.);
#23=FACE_OUTER_BOUND('',#42,.T.);
#24=FACE_OUTER_BOUND('',#43,.T.);
#25=FACE_OUTER_BOUND('',#44,.T.);
#26=FACE_OUTER_BOUND('',#45,.T.);
#27=FACE_OUTER_BOUND('',#46,.T.);
#28=FACE_OUTER_BOUND('',#47,.T.);
#29=FACE_OUTER_BOUND('',#48,.T.);
#30=FACE_OUTER_BOUND('',#49,.T.);
#31=FACE_OUTER_BOUND('',#50,.T.);
#32=FACE_OUTER_BOUND('',#51,.T.);
#33=FACE_OUTER_BOUND('',#52,.T.);
#34=FACE_OUTER_BOUND('',#53,.T.);
#35=EDGE_LOOP('',(#221,#222,#223,#224));
#36=EDGE_LOOP('',(#225,#226,#227,#228,#229));
#37=EDGE_LOOP('',(#230,#231,#232,#233));
#38=EDGE_LOOP('',(#234,#235,#236,#237));
#39=EDGE_LOOP('',(#238,#239,#240,#241));
#40=EDGE_LOOP('',(#242,#243,#244,#245));
#41=EDGE_LOOP('',(#246,#247,#248,#249));
#42=EDGE_LOOP('',(#250,#251,#252,#253));
#43=EDGE_LOOP('',(#254,#255,#256,#257));
#44=EDGE_LOOP('',(#258,#259,#260,#261));
#45=EDGE_LOOP('',(#262,#263,#264,#265));
#46=EDGE_LOOP('',(#266,#267,#268,#269));
#47=EDGE_LOOP('',(#270,#271,#272,#273));
#48=EDGE_LOOP('',(#274,#275,#276,#277,#278,#279));
#49=EDGE_LOOP('',(#280,#281,#282,#283));
#50=EDGE_LOOP('',(#284,#285,#286,#287));
#51=EDGE_LOOP('',(#288,#289,#290,#291,#292,#293));
#52=EDGE_LOOP('',(#294,#295,#296,#297));
#53=EDGE_LOOP('',(#298,#299,#300,#301));
#54=EDGE_LOOP('',(#302,#303,#304,#305,#306));
#55=EDGE_LOOP('',(#307,#308,#309,#310));
#56=LINE('',#485,#101);
#57=LINE('',#487,#102);
#58=LINE('',#489,#103);
#59=LINE('',#490,#104);
#60=LINE('',#493,#105);
#61=LINE('',#495,#106);
#62=LINE('',#497,#107);
#63=LINE('',#498,#108);
#64=LINE('',#501,#109);
#65=LINE('',#502,#110);
#66=LINE('',#505,#111);
#67=LINE('',#506,#112);
#68=LINE('',#509,#113);
#69=LINE('',#510,#114);
#70=LINE('',#512,#115);
#71=LINE('',#516,#116);
#72=LINE('',#518,#117);
#73=LINE('',#520,#118);
#74=LINE('',#521,#119);
#75=LINE('',#524,#120);
#76=LINE('',#526,#121);
#77=LINE('',#527,#122);
#78=LINE('',#530,#123);
#79=LINE('',#532,#124);
#80=LINE('',#533,#125);
#81=LINE('',#535,#126);
#82=LINE('',#536,#127);
#83=LINE('',#541,#128);
#84=LINE('',#543,#129);
#85=LINE('',#545,#130);
#86=LINE('',#546,#131);
#87=LINE('',#550,#132);
#88=LINE('',#551,#133);
#89=LINE('',#552,#134);
#90=LINE('',#555,#135);
#91=LINE('',#557,#136);
#92=LINE('',#559,#137);
#93=LINE('',#560,#138);
#94=LINE('',#563,#139);
#95=LINE('',#564,#140);
#96=LINE('',#567,#141);
#97=LINE('',#569,#142);
#98=LINE('',#570,#143);
#99=LINE('',#572,#144);
#100=LINE('',#573,#145);
#101=VECTOR('',#400,10.);
#102=VECTOR('',#401,10.);
#103=VECTOR('',#402,10.);
#104=VECTOR('',#403,10.);
#105=VECTOR('',#406,10.);
#106=VECTOR('',#407,10.);
#107=VECTOR('',#408,10.);
#108=VECTOR('',#409,10.);
#109=VECTOR('',#412,10.);
#110=VECTOR('',#413,10.);
#111=VECTOR('',#416,10.);
#112=VECTOR('',#417,10.);
#113=VECTOR('',#420,10.);
#114=VECTOR('',#421,10.);
#115=VECTOR('',#424,10.);
#116=VECTOR('',#427,10.);
#117=VECTOR('',#428,10.);
#118=VECTOR('',#429,10.);
#119=VECTOR('',#430,10.);
#120=VECTOR('',#433,10.);
#121=VECTOR('',#434,10.);
#122=VECTOR('',#435,10.);
#123=VECTOR('',#438,10.);
#124=VECTOR('',#439,10.);
#125=VECTOR('',#440,10.);
#126=VECTOR('',#443,10.);
#127=VECTOR('',#444,10.);
#128=VECTOR('',#449,10.);
#129=VECTOR('',#450,10.);
#130=VECTOR('',#451,10.);
#131=VECTOR('',#452,10.);
#132=VECTOR('',#455,10.);
#133=VECTOR('',#456,10.);
#134=VECTOR('',#457,10.);
#135=VECTOR('',#460,10.);
#136=VECTOR('',#461,10.);
#137=VECTOR('',#462,10.);
#138=VECTOR('',#463,10.);
#139=VECTOR('',#466,10.);
#140=VECTOR('',#467,10.);
#141=VECTOR('',#470,10.);
#142=VECTOR('',#471,10.);
#143=VECTOR('',#472,10.);
#144=VECTOR('',#475,10.);
#145=VECTOR('',#476,10.);
#146=VERTEX_POINT('',#483);
#147=VERTEX_POINT('',#484);
#148=VERTEX_POINT('',#486);
#149=VERTEX_POINT('',#488);
#150=VERTEX_POINT('',#492);
#151=VERTEX_POINT('',#494);
#152=VERTEX_POINT('',#496);
#153=VERTEX_POINT('',#500);
#154=VERTEX_POINT('',#504);
#155=VERTEX_POINT('',#508);
#156=VERTEX_POINT('',#514);
#157=VERTEX_POINT('',#515);
#158=VERTEX_POINT('',#517);
#159=VERTEX_POINT('',#519);
#160=VERTEX_POINT('',#523);
#161=VERTEX_POINT('',#525);
#162=VERTEX_POINT('',#529);
#163=VERTEX_POINT('',#531);
#164=VERTEX_POINT('',#539);
#165=VERTEX_POINT('',#540);
#166=VERTEX_POINT('',#542);
#167=VERTEX_POINT('',#544);
#168=VERTEX_POINT('',#548);
#169=VERTEX_POINT('',#549);
#170=VERTEX_POINT('',#554);
#171=VERTEX_POINT('',#556);
#172=VERTEX_POINT('',#558);
#173=VERTEX_POINT('',#562);
#174=VERTEX_POINT('',#566);
#175=VERTEX_POINT('',#568);
#176=EDGE_CURVE('',#146,#147,#56,.T.);
#177=EDGE_CURVE('',#147,#148,#57,.T.);
#178=EDGE_CURVE('',#148,#149,#58,.F.);
#179=EDGE_CURVE('',#149,#146,#59,.T.);
#180=EDGE_CURVE('',#146,#150,#60,.T.);
#181=EDGE_CURVE('',#150,#151,#61,.T.);
#182=EDGE_CURVE('',#151,#152,#62,.T.);
#183=EDGE_CURVE('',#152,#147,#63,.T.);
#184=EDGE_CURVE('',#153,#149,#64,.T.);
#185=EDGE_CURVE('',#153,#150,#65,.T.);
#186=EDGE_CURVE('',#154,#152,#66,.T.);
#187=EDGE_CURVE('',#148,#154,#67,.T.);
#188=EDGE_CURVE('',#154,#155,#68,.T.);
#189=EDGE_CURVE('',#155,#151,#69,.T.);
#190=EDGE_CURVE('',#155,#153,#70,.T.);
#191=EDGE_CURVE('',#156,#157,#71,.T.);
#192=EDGE_CURVE('',#156,#158,#72,.T.);
#193=EDGE_CURVE('',#159,#158,#73,.T.);
#194=EDGE_CURVE('',#157,#159,#74,.T.);
#195=EDGE_CURVE('',#157,#160,#75,.T.);
#196=EDGE_CURVE('',#161,#159,#76,.T.);
#197=EDGE_CURVE('',#160,#161,#77,.T.);
#198=EDGE_CURVE('',#160,#162,#78,.T.);
#199=EDGE_CURVE('',#163,#161,#79,.T.);
#200=EDGE_CURVE('',#162,#163,#80,.T.);
#201=EDGE_CURVE('',#162,#156,#81,.T.);
#202=EDGE_CURVE('',#158,#163,#82,.T.);
#203=EDGE_CURVE('',#164,#165,#83,.T.);
#204=EDGE_CURVE('',#166,#164,#84,.T.);
#205=EDGE_CURVE('',#166,#167,#85,.T.);
#206=EDGE_CURVE('',#165,#167,#86,.T.);
#207=EDGE_CURVE('',#168,#169,#87,.T.);
#208=EDGE_CURVE('',#167,#168,#88,.T.);
#209=EDGE_CURVE('',#169,#166,#89,.T.);
#210=EDGE_CURVE('',#170,#168,#90,.T.);
#211=EDGE_CURVE('',#171,#170,#91,.T.);
#212=EDGE_CURVE('',#171,#172,#92,.T.);
#213=EDGE_CURVE('',#165,#172,#93,.T.);
#214=EDGE_CURVE('',#173,#169,#94,.T.);
#215=EDGE_CURVE('',#170,#173,#95,.T.);
#216=EDGE_CURVE('',#174,#171,#96,.T.);
#217=EDGE_CURVE('',#174,#175,#97,.T.);
#218=EDGE_CURVE('',#172,#175,#98,.T.);
#219=EDGE_CURVE('',#175,#164,#99,.T.);
#220=EDGE_CURVE('',#173,#174,#100,.T.);
#221=ORIENTED_EDGE('',*,*,#176,.T.);
#222=ORIENTED_EDGE('',*,*,#177,.T.);
#223=ORIENTED_EDGE('',*,*,#178,.T.);
#224=ORIENTED_EDGE('',*,*,#179,.T.);
#225=ORIENTED_EDGE('',*,*,#176,.F.);
#226=ORIENTED_EDGE('',*,*,#180,.T.);
#227=ORIENTED_EDGE('',*,*,#181,.T.);
#228=ORIENTED_EDGE('',*,*,#182,.T.);
#229=ORIENTED_EDGE('',*,*,#183,.T.);
#230=ORIENTED_EDGE('',*,*,#179,.F.);
#231=ORIENTED_EDGE('',*,*,#184,.F.);
#232=ORIENTED_EDGE('',*,*,#185,.T.);
#233=ORIENTED_EDGE('',*,*,#180,.F.);
#234=ORIENTED_EDGE('',*,*,#177,.F.);
#235=ORIENTED_EDGE('',*,*,#183,.F.);
#236=ORIENTED_EDGE('',*,*,#186,.F.);
#237=ORIENTED_EDGE('',*,*,#187,.F.);
#238=ORIENTED_EDGE('',*,*,#188,.F.);
#239=ORIENTED_EDGE('',*,*,#186,.T.);
#240=ORIENTED_EDGE('',*,*,#182,.F.);
#241=ORIENTED_EDGE('',*,*,#189,.F.);
#242=ORIENTED_EDGE('',*,*,#190,.F.);
#243=ORIENTED_EDGE('',*,*,#189,.T.);
#244=ORIENTED_EDGE('',*,*,#181,.F.);
#245=ORIENTED_EDGE('',*,*,#185,.F.);
#246=ORIENTED_EDGE('',*,*,#191,.F.);
#247=ORIENTED_EDGE('',*,*,#192,.T.);
#248=ORIENTED_EDGE('',*,*,#193,.F.);
#249=ORIENTED_EDGE('',*,*,#194,.F.);
#250=ORIENTED_EDGE('',*,*,#195,.F.);
#251=ORIENTED_EDGE('',*,*,#194,.T.);
#252=ORIENTED_EDGE('',*,*,#196,.F.);
#253=ORIENTED_EDGE('',*,*,#197,.F.);
#254=ORIENTED_EDGE('',*,*,#198,.F.);
#255=ORIENTED_EDGE('',*,*,#197,.T.);
#256=ORIENTED_EDGE('',*,*,#199,.F.);
#257=ORIENTED_EDGE('',*,*,#200,.F.);
#258=ORIENTED_EDGE('',*,*,#201,.F.);
#259=ORIENTED_EDGE('',*,*,#200,.T.);
#260=ORIENTED_EDGE('',*,*,#202,.F.);
#261=ORIENTED_EDGE('',*,*,#192,.F.);
#262=ORIENTED_EDGE('',*,*,#202,.T.);
#263=ORIENTED_EDGE('',*,*,#199,.T.);
#264=ORIENTED_EDGE('',*,*,#196,.T.);
#265=ORIENTED_EDGE('',*,*,#193,.T.);
#266=ORIENTED_EDGE('',*,*,#203,.F.);
#267=ORIENTED_EDGE('',*,*,#204,.F.);
#268=ORIENTED_EDGE('',*,*,#205,.T.);
#269=ORIENTED_EDGE('',*,*,#206,.F.);
#270=ORIENTED_EDGE('',*,*,#207,.F.);
#271=ORIENTED_EDGE('',*,*,#208,.F.);
#272=ORIENTED_EDGE('',*,*,#205,.F.);
#273=ORIENTED_EDGE('',*,*,#209,.F.);
#274=ORIENTED_EDGE('',*,*,#206,.T.);
#275=ORIENTED_EDGE('',*,*,#208,.T.);
#276=ORIENTED_EDGE('',*,*,#210,.F.);
#277=ORIENTED_EDGE('',*,*,#211,.F.);
#278=ORIENTED_EDGE('',*,*,#212,.T.);
#279=ORIENTED_EDGE('',*,*,#213,.F.);
#280=ORIENTED_EDGE('',*,*,#207,.T.);
#281=ORIENTED_EDGE('',*,*,#214,.F.);
#282=ORIENTED_EDGE('',*,*,#215,.F.);
#283=ORIENTED_EDGE('',*,*,#210,.T.);
#284=ORIENTED_EDGE('',*,*,#216,.F.);
#285=ORIENTED_EDGE('',*,*,#217,.T.);
#286=ORIENTED_EDGE('',*,*,#218,.F.);
#287=ORIENTED_EDGE('',*,*,#212,.F.);
#288=ORIENTED_EDGE('',*,*,#204,.T.);
#289=ORIENTED_EDGE('',*,*,#219,.F.);
#290=ORIENTED_EDGE('',*,*,#217,.F.);
#291=ORIENTED_EDGE('',*,*,#220,.F.);
#292=ORIENTED_EDGE('',*,*,#214,.T.);
#293=ORIENTED_EDGE('',*,*,#209,.T.);
#294=ORIENTED_EDGE('',*,*,#203,.T.);
#295=ORIENTED_EDGE('',*,*,#213,.T.);
#296=ORIENTED_EDGE('',*,*,#218,.T.);
#297=ORIENTED_EDGE('',*,*,#219,.T.);
#298=ORIENTED_EDGE('',*,*,#220,.T.);
#299=ORIENTED_EDGE('',*,*,#216,.T.);
#300=ORIENTED_EDGE('',*,*,#211,.T.);
#301=ORIENTED_EDGE('',*,*,#215,.T.);
#302=ORIENTED_EDGE('',*,*,#184,.T.);
#303=ORIENTED_EDGE('',*,*,#178,.F.);
#304=ORIENTED_EDGE('',*,*,#187,.T.);
#305=ORIENTED_EDGE('',*,*,#188,.T.);
#306=ORIENTED_EDGE('',*,*,#190,.T.);
#307=ORIENTED_EDGE('',*,*,#191,.T.);
#308=ORIENTED_EDGE('',*,*,#195,.T.);
#309=ORIENTED_EDGE('',*,*,#198,.T.);
#310=ORIENTED_EDGE('',*,*,#201,.T.);
#311=PLANE('',#377);
#312=PLANE('',#378);
#313=PLANE('',#379);
#314=PLANE('',#380);
#315=PLANE('',#381);
#316=PLANE('',#382);
#317=PLANE('',#383);
#318=PLANE('',#384);
#319=PLANE('',#385);
#320=PLANE('',#386);
#321=PLANE('',#387);
#322=PLANE('',#388);
#323=PLANE('',#389);
#324=PLANE('',#390);
#325=PLANE('',#391);
#326=PLANE('',#392);
#327=PLANE('',#393);
#328=PLANE('',#394);
#329=PLANE('',#395);
#330=STYLED_ITEM('',(#596),#344);
#331=STYLED_ITEM('',(#596),#345);
#332=STYLED_ITEM('',(#596),#346);
#333=STYLED_ITEM('',(#596),#347);
#334=STYLED_ITEM('',(#596),#348);
#335=STYLED_ITEM('',(#596),#349);
#336=STYLED_ITEM('',(#596),#350);
#337=STYLED_ITEM('',(#596),#351);
#338=STYLED_ITEM('',(#596),#352);
#339=STYLED_ITEM('',(#596),#353);
#340=STYLED_ITEM('',(#596),#354);
#341=STYLED_ITEM('',(#597),#355);
#342=STYLED_ITEM('',(#597),#356);
#343=STYLED_ITEM('',(#595),#13);
#344=ADVANCED_FACE('',(#16),#311,.T.);
#345=ADVANCED_FACE('',(#17),#312,.T.);
#346=ADVANCED_FACE('',(#18),#313,.T.);
#347=ADVANCED_FACE('',(#19),#314,.T.);
#348=ADVANCED_FACE('',(#20),#315,.T.);
#349=ADVANCED_FACE('',(#21),#316,.T.);
#350=ADVANCED_FACE('',(#22),#317,.T.);
#351=ADVANCED_FACE('',(#23),#318,.T.);
#352=ADVANCED_FACE('',(#24),#319,.T.);
#353=ADVANCED_FACE('',(#25),#320,.T.);
#354=ADVANCED_FACE('',(#26),#321,.T.);
#355=ADVANCED_FACE('',(#27),#322,.F.);
#356=ADVANCED_FACE('',(#28),#323,.F.);
#357=ADVANCED_FACE('',(#29),#324,.T.);
#358=ADVANCED_FACE('',(#30),#325,.T.);
#359=ADVANCED_FACE('',(#31),#326,.T.);
#360=ADVANCED_FACE('',(#32),#327,.T.);
#361=ADVANCED_FACE('',(#33),#328,.T.);
#362=ADVANCED_FACE('',(#34,#14,#15),#329,.F.);
#363=CLOSED_SHELL('',(#344,#345,#346,#347,#348,#349,#350,#351,#352,#353,
#354,#355,#356,#357,#358,#359,#360,#361,#362));
#364=DERIVED_UNIT_ELEMENT(#366,1.);
#365=DERIVED_UNIT_ELEMENT(#581,-3.);
#366=(
MASS_UNIT()
NAMED_UNIT(*)
SI_UNIT(.KILO.,.GRAM.)
);
#367=DERIVED_UNIT((#364,#365));
#368=MEASURE_REPRESENTATION_ITEM('density measure',
POSITIVE_RATIO_MEASURE(7850.),#367);
#369=PROPERTY_DEFINITION_REPRESENTATION(#374,#371);
#370=PROPERTY_DEFINITION_REPRESENTATION(#375,#372);
#371=REPRESENTATION('material name',(#373),#578);
#372=REPRESENTATION('density',(#368),#578);
#373=DESCRIPTIVE_REPRESENTATION_ITEM('Steel','Steel');
#374=PROPERTY_DEFINITION('material property','material name',#588);
#375=PROPERTY_DEFINITION('material property','density of part',#588);
#376=AXIS2_PLACEMENT_3D('',#481,#396,#397);
#377=AXIS2_PLACEMENT_3D('',#482,#398,#399);
#378=AXIS2_PLACEMENT_3D('',#491,#404,#405);
#379=AXIS2_PLACEMENT_3D('',#499,#410,#411);
#380=AXIS2_PLACEMENT_3D('',#503,#414,#415);
#381=AXIS2_PLACEMENT_3D('',#507,#418,#419);
#382=AXIS2_PLACEMENT_3D('',#511,#422,#423);
#383=AXIS2_PLACEMENT_3D('',#513,#425,#426);
#384=AXIS2_PLACEMENT_3D('',#522,#431,#432);
#385=AXIS2_PLACEMENT_3D('',#528,#436,#437);
#386=AXIS2_PLACEMENT_3D('',#534,#441,#442);
#387=AXIS2_PLACEMENT_3D('',#537,#445,#446);
#388=AXIS2_PLACEMENT_3D('',#538,#447,#448);
#389=AXIS2_PLACEMENT_3D('',#547,#453,#454);
#390=AXIS2_PLACEMENT_3D('',#553,#458,#459);
#391=AXIS2_PLACEMENT_3D('',#561,#464,#465);
#392=AXIS2_PLACEMENT_3D('',#565,#468,#469);
#393=AXIS2_PLACEMENT_3D('',#571,#473,#474);
#394=AXIS2_PLACEMENT_3D('',#574,#477,#478);
#395=AXIS2_PLACEMENT_3D('',#575,#479,#480);
#396=DIRECTION('axis',(0.,0.,1.));
#397=DIRECTION('refdir',(1.,0.,0.));
#398=DIRECTION('center_axis',(0.707106781186548,0.707106781186547,0.));
#399=DIRECTION('ref_axis',(0.,0.,-1.));
#400=DIRECTION('',(-0.707106781186547,0.707106781186548,0.));
#401=DIRECTION('',(0.,0.,1.));
#402=DIRECTION('',(-0.707106781186547,0.707106781186548,0.));
#403=DIRECTION('',(0.,0.,-1.));
#404=DIRECTION('center_axis',(0.,0.,-1.));
#405=DIRECTION('ref_axis',(-1.,0.,0.));
#406=DIRECTION('',(0.,-1.,0.));
#407=DIRECTION('',(-1.,2.89120579329468E-16,0.));
#408=DIRECTION('',(0.,1.,0.));
#409=DIRECTION('',(1.,-2.89120579329468E-16,0.));
#410=DIRECTION('center_axis',(1.,0.,0.));
#411=DIRECTION('ref_axis',(0.,-1.,0.));
#412=DIRECTION('',(0.,1.,0.));
#413=DIRECTION('',(0.,0.,-1.));
#414=DIRECTION('center_axis',(2.89120579329468E-16,1.,0.));
#415=DIRECTION('ref_axis',(1.,-2.89120579329468E-16,0.));
#416=DIRECTION('',(0.,0.,-1.));
#417=DIRECTION('',(-1.,2.89120579329468E-16,0.));
#418=DIRECTION('center_axis',(-1.,0.,0.));
#419=DIRECTION('ref_axis',(0.,1.,0.));
#420=DIRECTION('',(0.,-1.,0.));
#421=DIRECTION('',(0.,0.,-1.));
#422=DIRECTION('center_axis',(-2.89120579329468E-16,-1.,0.));
#423=DIRECTION('ref_axis',(-1.,2.89120579329468E-16,0.));
#424=DIRECTION('',(1.,-2.89120579329468E-16,0.));
#425=DIRECTION('center_axis',(1.,4.16333634234434E-16,0.));
#426=DIRECTION('ref_axis',(4.16333634234434E-16,-1.,0.));
#427=DIRECTION('',(-4.16333634234434E-16,1.,0.));
#428=DIRECTION('',(0.,0.,-1.));
#429=DIRECTION('',(4.16333634234434E-16,-1.,0.));
#430=DIRECTION('',(0.,0.,-1.));
#431=DIRECTION('center_axis',(3.65204942310907E-16,1.,0.));
#432=DIRECTION('ref_axis',(1.,-3.65204942310907E-16,0.));
#433=DIRECTION('',(-1.,3.65204942310907E-16,0.));
#434=DIRECTION('',(1.,-3.65204942310907E-16,0.));
#435=DIRECTION('',(0.,0.,-1.));
#436=DIRECTION('center_axis',(-1.,0.,0.));
#437=DIRECTION('ref_axis',(0.,1.,0.));
#438=DIRECTION('',(0.,-1.,0.));
#439=DIRECTION('',(0.,1.,0.));
#440=DIRECTION('',(0.,0.,-1.));
#441=DIRECTION('center_axis',(-3.65204942310906E-16,-1.,0.));
#442=DIRECTION('ref_axis',(-1.,3.65204942310906E-16,0.));
#443=DIRECTION('',(1.,-3.65204942310906E-16,0.));
#444=DIRECTION('',(-1.,3.65204942310906E-16,0.));
#445=DIRECTION('center_axis',(0.,0.,-1.));
#446=DIRECTION('ref_axis',(-1.,0.,0.));
#447=DIRECTION('center_axis',(1.,1.15648231731787E-16,0.));
#448=DIRECTION('ref_axis',(1.15648231731787E-16,-1.,0.));
#449=DIRECTION('',(1.15648231731787E-16,-1.,0.));
#450=DIRECTION('',(0.,0.,1.));
#451=DIRECTION('',(1.15648231731787E-16,-1.,0.));
#452=DIRECTION('',(0.,0.,-1.));
#453=DIRECTION('center_axis',(0.,0.,-1.));
#454=DIRECTION('ref_axis',(-1.,0.,0.));
#455=DIRECTION('',(1.15648231731787E-16,1.,0.));
#456=DIRECTION('',(-1.,-2.89120579329468E-17,0.));
#457=DIRECTION('',(1.,-2.89120579329468E-17,0.));
#458=DIRECTION('center_axis',(2.89120579329468E-17,-1.,0.));
#459=DIRECTION('ref_axis',(1.,2.89120579329468E-17,0.));
#460=DIRECTION('',(0.,0.,1.));
#461=DIRECTION('',(-1.,-2.89120579329468E-17,0.));
#462=DIRECTION('',(0.,0.,1.));
#463=DIRECTION('',(1.,2.89120579329468E-17,0.));
#464=DIRECTION('center_axis',(-1.,1.15648231731787E-16,0.));
#465=DIRECTION('ref_axis',(-1.15648231731787E-16,-1.,0.));
#466=DIRECTION('',(0.,0.,1.));
#467=DIRECTION('',(1.15648231731787E-16,1.,0.));
#468=DIRECTION('center_axis',(1.,-1.15648231731787E-16,0.));
#469=DIRECTION('ref_axis',(1.15648231731787E-16,1.,0.));
#470=DIRECTION('',(-1.15648231731787E-16,-1.,0.));
#471=DIRECTION('',(0.,0.,1.));
#472=DIRECTION('',(1.15648231731787E-16,1.,0.));
#473=DIRECTION('center_axis',(2.89120579329468E-17,1.,0.));
#474=DIRECTION('ref_axis',(-1.,2.89120579329468E-17,0.));
#475=DIRECTION('',(-1.,2.89120579329468E-17,0.));
#476=DIRECTION('',(1.,-2.89120579329468E-17,0.));
#477=DIRECTION('center_axis',(0.,0.,1.));
#478=DIRECTION('ref_axis',(1.,0.,0.));
#479=DIRECTION('center_axis',(0.,0.,1.));
#480=DIRECTION('ref_axis',(1.,0.,0.));
#481=CARTESIAN_POINT('',(0.,0.,0.));
#482=CARTESIAN_POINT('Origin',(-0.135,0.0750000000000001,0.));
#483=CARTESIAN_POINT('',(-0.0849999999999999,0.025,-0.01));
#484=CARTESIAN_POINT('',(-0.185,0.125,-0.01));
#485=CARTESIAN_POINT('',(-0.12625,0.0662500000000001,-0.01));
#486=CARTESIAN_POINT('',(-0.185,0.125,0.));
#487=CARTESIAN_POINT('',(-0.185,0.125,0.));
#488=CARTESIAN_POINT('',(-0.0849999999999999,0.025,0.));
#489=CARTESIAN_POINT('',(-0.0825,0.0225000000000001,0.));
#490=CARTESIAN_POINT('',(-0.0849999999999999,0.025,0.));
#491=CARTESIAN_POINT('Origin',(-0.175,3.46944695195361E-17,-0.01));
#492=CARTESIAN_POINT('',(-0.0849999999999999,-0.125,-0.01));
#493=CARTESIAN_POINT('',(-0.0849999999999999,-0.125,-0.01));
#494=CARTESIAN_POINT('',(-0.265,-0.125,-0.01));
#495=CARTESIAN_POINT('',(-0.265,-0.125,-0.01));
#496=CARTESIAN_POINT('',(-0.265,0.125,-0.01));
#497=CARTESIAN_POINT('',(-0.265,0.125,-0.01));
#498=CARTESIAN_POINT('',(-0.0849999999999999,0.125,-0.01));
#499=CARTESIAN_POINT('Origin',(-0.0849999999999999,0.125,0.));
#500=CARTESIAN_POINT('',(-0.0849999999999999,-0.125,0.));
#501=CARTESIAN_POINT('',(-0.0849999999999999,0.0625,0.));
#502=CARTESIAN_POINT('',(-0.0849999999999999,-0.125,0.));
#503=CARTESIAN_POINT('Origin',(-0.265,0.125,0.));
#504=CARTESIAN_POINT('',(-0.265,0.125,0.));
#505=CARTESIAN_POINT('',(-0.265,0.125,0.));
#506=CARTESIAN_POINT('',(-0.1325,0.125,0.));
#507=CARTESIAN_POINT('Origin',(-0.265,-0.125,0.));
#508=CARTESIAN_POINT('',(-0.265,-0.125,0.));
#509=CARTESIAN_POINT('',(-0.265,-0.0625,0.));
#510=CARTESIAN_POINT('',(-0.265,-0.125,0.));
#511=CARTESIAN_POINT('Origin',(-0.0849999999999999,-0.125,0.));
#512=CARTESIAN_POINT('',(-0.0425,-0.125,0.));
#513=CARTESIAN_POINT('Origin',(0.27,0.125,0.));
#514=CARTESIAN_POINT('',(0.27,-0.125,0.));
#515=CARTESIAN_POINT('',(0.27,0.125,0.));
#516=CARTESIAN_POINT('',(0.27,0.0625000000000001,0.));
#517=CARTESIAN_POINT('',(0.27,-0.125,-0.01));
#518=CARTESIAN_POINT('',(0.27,-0.125,0.));
#519=CARTESIAN_POINT('',(0.27,0.125,-0.01));
#520=CARTESIAN_POINT('',(0.27,-0.125,-0.01));
#521=CARTESIAN_POINT('',(0.27,0.125,0.));
#522=CARTESIAN_POINT('Origin',(0.0799999999999999,0.125,0.));
#523=CARTESIAN_POINT('',(0.0799999999999999,0.125,0.));
#524=CARTESIAN_POINT('',(0.04,0.125,0.));
#525=CARTESIAN_POINT('',(0.0799999999999999,0.125,-0.01));
#526=CARTESIAN_POINT('',(0.27,0.125,-0.01));
#527=CARTESIAN_POINT('',(0.0799999999999999,0.125,0.));
#528=CARTESIAN_POINT('Origin',(0.0799999999999999,-0.125,0.));
#529=CARTESIAN_POINT('',(0.0799999999999999,-0.125,0.));
#530=CARTESIAN_POINT('',(0.0799999999999999,-0.0625,0.));
#531=CARTESIAN_POINT('',(0.0799999999999999,-0.125,-0.01));
#532=CARTESIAN_POINT('',(0.0799999999999999,0.125,-0.01));
#533=CARTESIAN_POINT('',(0.0799999999999999,-0.125,0.));
#534=CARTESIAN_POINT('Origin',(0.27,-0.125,0.));
#535=CARTESIAN_POINT('',(0.135,-0.125,0.));
#536=CARTESIAN_POINT('',(0.0799999999999999,-0.125,-0.01));
#537=CARTESIAN_POINT('Origin',(0.175,5.20417042793042E-17,-0.01));
#538=CARTESIAN_POINT('Origin',(-0.15,0.15,0.28));
#539=CARTESIAN_POINT('',(-0.15,0.15,0.28));
#540=CARTESIAN_POINT('',(-0.15,-0.15,0.28));
#541=CARTESIAN_POINT('',(-0.15,0.075,0.28));
#542=CARTESIAN_POINT('',(-0.15,0.15,0.27));
#543=CARTESIAN_POINT('',(-0.15,0.15,0.14));
#544=CARTESIAN_POINT('',(-0.15,-0.15,0.27));
#545=CARTESIAN_POINT('',(-0.15,0.15,0.27));
#546=CARTESIAN_POINT('',(-0.15,-0.15,0.14));
#547=CARTESIAN_POINT('Origin',(-0.225,-1.73472347597681E-17,0.27));
#548=CARTESIAN_POINT('',(-0.3,-0.15,0.27));
#549=CARTESIAN_POINT('',(-0.3,0.15,0.27));
#550=CARTESIAN_POINT('',(-0.3,0.075,0.27));
#551=CARTESIAN_POINT('',(-0.2625,-0.15,0.27));
#552=CARTESIAN_POINT('',(0.0375,0.15,0.27));
#553=CARTESIAN_POINT('Origin',(-0.3,-0.15,0.));
#554=CARTESIAN_POINT('',(-0.3,-0.15,0.));
#555=CARTESIAN_POINT('',(-0.3,-0.15,0.));
#556=CARTESIAN_POINT('',(0.3,-0.15,0.));
#557=CARTESIAN_POINT('',(0.3,-0.15,0.));
#558=CARTESIAN_POINT('',(0.3,-0.15,0.28));
#559=CARTESIAN_POINT('',(0.3,-0.15,0.));
#560=CARTESIAN_POINT('',(0.3,-0.15,0.28));
#561=CARTESIAN_POINT('Origin',(-0.3,0.15,0.));
#562=CARTESIAN_POINT('',(-0.3,0.15,0.));
#563=CARTESIAN_POINT('',(-0.3,0.15,0.));
#564=CARTESIAN_POINT('',(-0.3,-0.15,0.));
#565=CARTESIAN_POINT('Origin',(0.3,-0.15,0.));
#566=CARTESIAN_POINT('',(0.3,0.15,0.));
#567=CARTESIAN_POINT('',(0.3,0.15,0.));
#568=CARTESIAN_POINT('',(0.3,0.15,0.28));
#569=CARTESIAN_POINT('',(0.3,0.15,0.));
#570=CARTESIAN_POINT('',(0.3,0.15,0.28));
#571=CARTESIAN_POINT('Origin',(0.3,0.15,0.));
#572=CARTESIAN_POINT('',(-0.3,0.15,0.28));
#573=CARTESIAN_POINT('',(-0.3,0.15,0.));
#574=CARTESIAN_POINT('Origin',(0.,0.,0.28));
#575=CARTESIAN_POINT('Origin',(0.,0.,0.));
#576=UNCERTAINTY_MEASURE_WITH_UNIT(LENGTH_MEASURE(0.01),#580,
'DISTANCE_ACCURACY_VALUE',
'Maximum model space distance between geometric entities at asserted c
onnectivities');
#577=UNCERTAINTY_MEASURE_WITH_UNIT(LENGTH_MEASURE(0.01),#580,
'DISTANCE_ACCURACY_VALUE',
'Maximum model space distance between geometric entities at asserted c
onnectivities');
#578=(
GEOMETRIC_REPRESENTATION_CONTEXT(3)
GLOBAL_UNCERTAINTY_ASSIGNED_CONTEXT((#576))
GLOBAL_UNIT_ASSIGNED_CONTEXT((#580,#582,#583))
REPRESENTATION_CONTEXT('','3D')
);
#579=(
GEOMETRIC_REPRESENTATION_CONTEXT(3)
GLOBAL_UNCERTAINTY_ASSIGNED_CONTEXT((#577))
GLOBAL_UNIT_ASSIGNED_CONTEXT((#580,#582,#583))
REPRESENTATION_CONTEXT('','3D')
);
#580=(
LENGTH_UNIT()
NAMED_UNIT(*)
SI_UNIT(.MILLI.,.METRE.)
);
#581=(
LENGTH_UNIT()
NAMED_UNIT(*)
SI_UNIT($,.METRE.)
);
#582=(
NAMED_UNIT(*)
PLANE_ANGLE_UNIT()
SI_UNIT($,.RADIAN.)
);
#583=(
NAMED_UNIT(*)
SI_UNIT($,.STERADIAN.)
SOLID_ANGLE_UNIT()
);
#584=SHAPE_DEFINITION_REPRESENTATION(#585,#586);
#585=PRODUCT_DEFINITION_SHAPE('',$,#588);
#586=SHAPE_REPRESENTATION('',(#376),#578);
#587=PRODUCT_DEFINITION_CONTEXT('part definition',#592,'design');
#588=PRODUCT_DEFINITION('ST0201','ST0201 v2',#589,#587);
#589=PRODUCT_DEFINITION_FORMATION('',$,#594);
#590=PRODUCT_RELATED_PRODUCT_CATEGORY('ST0201 v2','ST0201 v2',(#594));
#591=APPLICATION_PROTOCOL_DEFINITION('international standard',
'automotive_design',2009,#592);
#592=APPLICATION_CONTEXT(
'Core Data for Automotive Mechanical Design Process');
#593=PRODUCT_CONTEXT('part definition',#592,'mechanical');
#594=PRODUCT('ST0201','ST0201 v2',$,(#593));
#595=PRESENTATION_STYLE_ASSIGNMENT((#598));
#596=PRESENTATION_STYLE_ASSIGNMENT((#599));
#597=PRESENTATION_STYLE_ASSIGNMENT((#600));
#598=SURFACE_STYLE_USAGE(.BOTH.,#601);
#599=SURFACE_STYLE_USAGE(.BOTH.,#602);
#600=SURFACE_STYLE_USAGE(.BOTH.,#603);
#601=SURFACE_SIDE_STYLE('',(#604));
#602=SURFACE_SIDE_STYLE('',(#605));
#603=SURFACE_SIDE_STYLE('',(#606));
#604=SURFACE_STYLE_FILL_AREA(#607);
#605=SURFACE_STYLE_FILL_AREA(#608);
#606=SURFACE_STYLE_FILL_AREA(#609);
#607=FILL_AREA_STYLE(
'PA 11 - Nylon- HP 11-30 (with EOS P 396 3D Printer)',(#610));
#608=FILL_AREA_STYLE('Gold - Polished',(#611));
#609=FILL_AREA_STYLE('Orgasol\X\AE Invent Smooth - PA 12',(#612));
#610=FILL_AREA_STYLE_COLOUR(
'PA 11 - Nylon- HP 11-30 (with EOS P 396 3D Printer)',#613);
#611=FILL_AREA_STYLE_COLOUR('Gold - Polished',#614);
#612=FILL_AREA_STYLE_COLOUR('Orgasol\X\AE Invent Smooth - PA 12',#615);
#613=COLOUR_RGB('PA 11 - Nylon- HP 11-30 (with EOS P 396 3D Printer)',0.247058823529412,
0.247058823529412,0.247058823529412);
#614=COLOUR_RGB('Gold - Polished',0.956862745098039,0.898039215686275,0.654901960784314);
#615=COLOUR_RGB('Orgasol\X\AE Invent Smooth - PA 12',0.964705882352941,
0.964705882352941,0.952941176470588);
ENDSEC;
END-ISO-10303-21;
