%TF.GenerationSoftware,KiCad,Pcbnew,9.0.7*%
%TF.CreationDate,2026-03-13T17:32:13+09:00*%
%TF.ProjectId,Precision Clock,50726563-6973-4696-9f6e-20436c6f636b,rev?*%
%TF.SameCoordinates,Original*%
%TF.FileFunction,Soldermask,Top*%
%TF.FilePolarity,Negative*%
%FSLAX46Y46*%
G04 Gerber Fmt 4.6, Leading zero omitted, Abs format (unit mm)*
G04 Created by KiCad (PCBNEW 9.0.7) date 2026-03-13 17:32:13*
%MOMM*%
%LPD*%
G01*
G04 APERTURE LIST*
G04 Aperture macros list*
%AMRoundRect*
0 Rectangle with rounded corners*
0 $1 Rounding radius*
0 $2 $3 $4 $5 $6 $7 $8 $9 X,Y pos of 4 corners*
0 Add a 4 corners polygon primitive as box body*
4,1,4,$2,$3,$4,$5,$6,$7,$8,$9,$2,$3,0*
0 Add four circle primitives for the rounded corners*
1,1,$1+$1,$2,$3*
1,1,$1+$1,$4,$5*
1,1,$1+$1,$6,$7*
1,1,$1+$1,$8,$9*
0 Add four rect primitives between the rounded corners*
20,1,$1+$1,$2,$3,$4,$5,0*
20,1,$1+$1,$4,$5,$6,$7,0*
20,1,$1+$1,$6,$7,$8,$9,0*
20,1,$1+$1,$8,$9,$2,$3,0*%
%AMFreePoly0*
4,1,6,1.000000,0.000000,0.500000,-0.750000,-0.500000,-0.750000,-0.500000,0.750000,0.500000,0.750000,1.000000,0.000000,1.000000,0.000000,$1*%
%AMFreePoly1*
4,1,6,0.500000,-0.750000,-0.650000,-0.750000,-0.150000,0.000000,-0.650000,0.750000,0.500000,0.750000,0.500000,-0.750000,0.500000,-0.750000,$1*%
%AMFreePoly2*
4,1,17,1.395000,0.765000,0.855000,0.765000,0.855000,0.535000,1.395000,0.535000,1.395000,0.115000,0.855000,0.115000,0.855000,-0.115000,1.395000,-0.115000,1.395000,-0.535000,0.855000,-0.535000,0.855000,-0.765000,1.395000,-0.765000,1.395000,-1.185000,-0.855000,-1.185000,-0.855000,1.185000,1.395000,1.185000,1.395000,0.765000,1.395000,0.765000,$1*%
G04 Aperture macros list end*
%ADD10RoundRect,0.250000X0.262500X0.450000X-0.262500X0.450000X-0.262500X-0.450000X0.262500X-0.450000X0*%
%ADD11RoundRect,0.100000X-0.200000X-0.100000X0.200000X-0.100000X0.200000X0.100000X-0.200000X0.100000X0*%
%ADD12R,1.500000X2.400000*%
%ADD13RoundRect,0.135000X-0.185000X0.135000X-0.185000X-0.135000X0.185000X-0.135000X0.185000X0.135000X0*%
%ADD14R,0.600000X0.700000*%
%ADD15RoundRect,0.225000X-0.250000X0.225000X-0.250000X-0.225000X0.250000X-0.225000X0.250000X0.225000X0*%
%ADD16RoundRect,0.135000X0.185000X-0.135000X0.185000X0.135000X-0.185000X0.135000X-0.185000X-0.135000X0*%
%ADD17C,1.800000*%
%ADD18RoundRect,0.140000X-0.140000X-0.170000X0.140000X-0.170000X0.140000X0.170000X-0.140000X0.170000X0*%
%ADD19RoundRect,0.140000X-0.170000X0.140000X-0.170000X-0.140000X0.170000X-0.140000X0.170000X0.140000X0*%
%ADD20FreePoly0,0.000000*%
%ADD21FreePoly1,0.000000*%
%ADD22R,0.700000X0.300000*%
%ADD23R,0.700000X1.000000*%
%ADD24O,2.100000X1.100000*%
%ADD25O,2.600000X1.100000*%
%ADD26RoundRect,0.105000X0.245000X0.105000X-0.245000X0.105000X-0.245000X-0.105000X0.245000X-0.105000X0*%
%ADD27FreePoly2,180.000000*%
%ADD28RoundRect,0.075000X-0.137500X-0.075000X0.137500X-0.075000X0.137500X0.075000X-0.137500X0.075000X0*%
%ADD29RoundRect,0.075000X0.137500X0.075000X-0.137500X0.075000X-0.137500X-0.075000X0.137500X-0.075000X0*%
%ADD30R,2.000000X2.000000*%
%ADD31C,2.000000*%
%ADD32C,1.000000*%
%ADD33RoundRect,0.135000X0.135000X0.185000X-0.135000X0.185000X-0.135000X-0.185000X0.135000X-0.185000X0*%
%ADD34RoundRect,0.225000X0.225000X0.250000X-0.225000X0.250000X-0.225000X-0.250000X0.225000X-0.250000X0*%
%ADD35R,0.900000X1.700000*%
%ADD36RoundRect,0.040500X-0.184500X0.094500X-0.184500X-0.094500X0.184500X-0.094500X0.184500X0.094500X0*%
%ADD37R,1.800000X2.700000*%
%ADD38RoundRect,0.135000X-0.135000X-0.185000X0.135000X-0.185000X0.135000X0.185000X-0.135000X0.185000X0*%
%ADD39RoundRect,0.075000X0.075000X-0.137500X0.075000X0.137500X-0.075000X0.137500X-0.075000X-0.137500X0*%
%ADD40RoundRect,0.140000X0.140000X0.170000X-0.140000X0.170000X-0.140000X-0.170000X0.140000X-0.170000X0*%
%ADD41R,0.740000X2.400000*%
%ADD42RoundRect,0.140000X0.170000X-0.140000X0.170000X0.140000X-0.170000X0.140000X-0.170000X-0.140000X0*%
%ADD43RoundRect,0.200000X0.250000X0.200000X-0.250000X0.200000X-0.250000X-0.200000X0.250000X-0.200000X0*%
%ADD44RoundRect,0.150000X0.512500X0.150000X-0.512500X0.150000X-0.512500X-0.150000X0.512500X-0.150000X0*%
%ADD45RoundRect,0.200000X-0.275000X0.200000X-0.275000X-0.200000X0.275000X-0.200000X0.275000X0.200000X0*%
%ADD46RoundRect,0.125000X-0.250000X-0.125000X0.250000X-0.125000X0.250000X0.125000X-0.250000X0.125000X0*%
%ADD47R,3.400000X4.300000*%
%ADD48RoundRect,0.150000X-0.150000X0.450000X-0.150000X-0.450000X0.150000X-0.450000X0.150000X0.450000X0*%
%ADD49R,4.200000X3.000000*%
%ADD50RoundRect,0.147500X-0.172500X0.147500X-0.172500X-0.147500X0.172500X-0.147500X0.172500X0.147500X0*%
%ADD51RoundRect,0.075000X0.662500X0.075000X-0.662500X0.075000X-0.662500X-0.075000X0.662500X-0.075000X0*%
%ADD52RoundRect,0.075000X0.075000X0.662500X-0.075000X0.662500X-0.075000X-0.662500X0.075000X-0.662500X0*%
%ADD53RoundRect,0.105000X-0.105000X0.245000X-0.105000X-0.245000X0.105000X-0.245000X0.105000X0.245000X0*%
%ADD54FreePoly2,270.000000*%
%ADD55RoundRect,0.075000X-0.075000X0.137500X-0.075000X-0.137500X0.075000X-0.137500X0.075000X0.137500X0*%
%ADD56RoundRect,0.100000X0.100000X-0.675000X0.100000X0.675000X-0.100000X0.675000X-0.100000X-0.675000X0*%
%ADD57R,5.000000X3.200000*%
%ADD58RoundRect,0.105000X0.105000X-0.245000X0.105000X0.245000X-0.105000X0.245000X-0.105000X-0.245000X0*%
%ADD59FreePoly2,90.000000*%
%ADD60RoundRect,0.150000X-0.512500X-0.150000X0.512500X-0.150000X0.512500X0.150000X-0.512500X0.150000X0*%
%ADD61RoundRect,0.175000X-0.725000X-0.175000X0.725000X-0.175000X0.725000X0.175000X-0.725000X0.175000X0*%
%ADD62RoundRect,0.200000X-0.700000X-0.200000X0.700000X-0.200000X0.700000X0.200000X-0.700000X0.200000X0*%
%ADD63R,5.080000X2.290000*%
%ADD64R,5.080000X2.420000*%
%ADD65R,1.800000X1.800000*%
G04 APERTURE END LIST*
%TO.C,JP2*%
G36*
X190050000Y-90450000D02*
G01*
X192500000Y-90450000D01*
X192500000Y-91950000D01*
X190050000Y-91950000D01*
X190050000Y-90450000D01*
G37*
%TO.C,JP1*%
G36*
X189975000Y-94050000D02*
G01*
X192425000Y-94050000D01*
X192425000Y-95550000D01*
X189975000Y-95550000D01*
X189975000Y-94050000D01*
G37*
%TD*%
D10*
%TO.C,R20*%
X231912500Y-109200000D03*
X230087500Y-109200000D03*
%TD*%
D11*
%TO.C,U2*%
X216850000Y-80550000D03*
X216850000Y-81500000D03*
X216850000Y-82450000D03*
X219650000Y-82450000D03*
X219650000Y-81500000D03*
X219650000Y-80550000D03*
D12*
X218250000Y-81500000D03*
%TD*%
D13*
%TO.C,R7*%
X70250000Y-86990000D03*
X70250000Y-88010000D03*
%TD*%
D14*
%TO.C,D8*%
X221975000Y-90500000D03*
X221025000Y-90500000D03*
%TD*%
D15*
%TO.C,C13*%
X231750000Y-111675000D03*
X231750000Y-113225000D03*
%TD*%
D16*
%TO.C,R31*%
X73250000Y-110510000D03*
X73250000Y-109490000D03*
%TD*%
D17*
%TO.C,SW4*%
X58000000Y-108750000D03*
X58000000Y-113750000D03*
X58000000Y-111250000D03*
X63000000Y-108750000D03*
X63000000Y-113750000D03*
%TD*%
D18*
%TO.C,C4*%
X248020000Y-90750000D03*
X248980000Y-90750000D03*
%TD*%
D19*
%TO.C,C33*%
X236000000Y-114720000D03*
X236000000Y-115680000D03*
%TD*%
D20*
%TO.C,JP2*%
X190550000Y-91200000D03*
D21*
X192000000Y-91200000D03*
%TD*%
D22*
%TO.C,J2*%
X252285000Y-114000000D03*
X252285000Y-113500000D03*
X252285000Y-113000000D03*
X252285000Y-112500000D03*
X252285000Y-112000000D03*
X252285000Y-111500000D03*
X252285000Y-110500000D03*
X252285000Y-110000000D03*
X252285000Y-109500000D03*
X252285000Y-109000000D03*
X252285000Y-108500000D03*
X252285000Y-108000000D03*
D23*
X253585000Y-107900000D03*
D22*
X253585000Y-108750000D03*
X253585000Y-109250000D03*
X253585000Y-109750000D03*
X253585000Y-110250000D03*
X253585000Y-110750000D03*
X253585000Y-111250000D03*
X253585000Y-111750000D03*
X253585000Y-112250000D03*
X253585000Y-112750000D03*
X253585000Y-113250000D03*
D23*
X253585000Y-114100000D03*
D24*
X252695000Y-115320000D03*
D25*
X258055000Y-115320000D03*
D24*
X252695000Y-106680000D03*
D25*
X258055000Y-106680000D03*
%TD*%
D17*
%TO.C,SW1*%
X58000000Y-86250000D03*
X58000000Y-91250000D03*
X58000000Y-88750000D03*
X63000000Y-86250000D03*
X63000000Y-91250000D03*
%TD*%
D26*
%TO.C,Q3*%
X74500000Y-100975000D03*
X74500000Y-100325000D03*
X74500000Y-99675000D03*
X74500000Y-99025000D03*
D27*
X72545000Y-100000000D03*
%TD*%
D19*
%TO.C,C1*%
X250250000Y-87770000D03*
X250250000Y-88730000D03*
%TD*%
D28*
%TO.C,D10*%
X232180000Y-105250000D03*
X232820000Y-105250000D03*
%TD*%
D29*
%TO.C,D13*%
X72570000Y-112500000D03*
X71930000Y-112500000D03*
%TD*%
D19*
%TO.C,C38*%
X214000000Y-114520000D03*
X214000000Y-115480000D03*
%TD*%
D30*
%TO.C,LS1*%
X95000000Y-100000000D03*
D31*
X85000000Y-100000000D03*
%TD*%
D19*
%TO.C,C36*%
X216500000Y-114520000D03*
X216500000Y-115480000D03*
%TD*%
D29*
%TO.C,D3*%
X237070000Y-105250000D03*
X236430000Y-105250000D03*
%TD*%
D19*
%TO.C,C14*%
X211750000Y-103770000D03*
X211750000Y-104730000D03*
%TD*%
D29*
%TO.C,D16*%
X69570000Y-90000000D03*
X68930000Y-90000000D03*
%TD*%
D20*
%TO.C,JP1*%
X190475000Y-94800000D03*
D21*
X191925000Y-94800000D03*
%TD*%
D32*
%TO.C,TP2*%
X217000000Y-78000000D03*
%TD*%
D13*
%TO.C,R34*%
X70250000Y-109490000D03*
X70250000Y-110510000D03*
%TD*%
D16*
%TO.C,R30*%
X68750000Y-110510000D03*
X68750000Y-109490000D03*
%TD*%
D29*
%TO.C,D14*%
X75820000Y-90005000D03*
X75180000Y-90005000D03*
%TD*%
D33*
%TO.C,R25*%
X176260000Y-95450000D03*
X175240000Y-95450000D03*
%TD*%
%TO.C,R41*%
X228055787Y-116000000D03*
X227035787Y-116000000D03*
%TD*%
D34*
%TO.C,C41*%
X92275000Y-120450000D03*
X90725000Y-120450000D03*
%TD*%
D16*
%TO.C,R9*%
X74750000Y-88010000D03*
X74750000Y-86990000D03*
%TD*%
D35*
%TO.C,SW3*%
X221780000Y-97500000D03*
X225180000Y-97500000D03*
%TD*%
D19*
%TO.C,C7*%
X234250000Y-90270000D03*
X234250000Y-91230000D03*
%TD*%
D36*
%TO.C,U9*%
X237425000Y-113300000D03*
X237425000Y-113700000D03*
X237425000Y-114100000D03*
X237425000Y-114500000D03*
X237425000Y-114900000D03*
X237425000Y-115300000D03*
X237425000Y-115700000D03*
X240075000Y-115700000D03*
X240075000Y-115300000D03*
X240075000Y-114900000D03*
X240075000Y-114500000D03*
X240075000Y-114100000D03*
X240075000Y-113700000D03*
X240075000Y-113300000D03*
D37*
X238750000Y-114500000D03*
%TD*%
D19*
%TO.C,C8*%
X233500000Y-109720000D03*
X233500000Y-110680000D03*
%TD*%
D38*
%TO.C,R13*%
X246740000Y-106000000D03*
X247760000Y-106000000D03*
%TD*%
D32*
%TO.C,TP3*%
X245500000Y-100000000D03*
%TD*%
D39*
%TO.C,D4*%
X219980000Y-102440000D03*
X219980000Y-101800000D03*
%TD*%
D40*
%TO.C,C30*%
X69730000Y-114250000D03*
X68770000Y-114250000D03*
%TD*%
D19*
%TO.C,C34*%
X241200000Y-116920000D03*
X241200000Y-117880000D03*
%TD*%
D41*
%TO.C,J3*%
X239810000Y-98050000D03*
X239810000Y-101950000D03*
X238540000Y-98050000D03*
X238540000Y-101950000D03*
X237270000Y-98050000D03*
X237270000Y-101950000D03*
X236000000Y-98050000D03*
X236000000Y-101950000D03*
X234730000Y-98050000D03*
X234730000Y-101950000D03*
X233460000Y-98050000D03*
X233460000Y-101950000D03*
X232190000Y-98050000D03*
X232190000Y-101950000D03*
%TD*%
D38*
%TO.C,R14*%
X250240000Y-99750000D03*
X251260000Y-99750000D03*
%TD*%
D42*
%TO.C,C21*%
X175250000Y-97680000D03*
X175250000Y-96720000D03*
%TD*%
D33*
%TO.C,R26*%
X156260000Y-95450000D03*
X155240000Y-95450000D03*
%TD*%
D43*
%TO.C,Y1*%
X210175000Y-96525000D03*
X208325000Y-96525000D03*
X208325000Y-97975000D03*
X210175000Y-97975000D03*
%TD*%
D33*
%TO.C,R3*%
X215510000Y-80250000D03*
X214490000Y-80250000D03*
%TD*%
D42*
%TO.C,C17*%
X211500000Y-97730000D03*
X211500000Y-96770000D03*
%TD*%
D18*
%TO.C,C18*%
X208270000Y-99500000D03*
X209230000Y-99500000D03*
%TD*%
D40*
%TO.C,C29*%
X75730000Y-114250000D03*
X74770000Y-114250000D03*
%TD*%
D33*
%TO.C,R15*%
X251260000Y-101000000D03*
X250240000Y-101000000D03*
%TD*%
D29*
%TO.C,D17*%
X72570000Y-90000000D03*
X71930000Y-90000000D03*
%TD*%
D38*
%TO.C,R18*%
X215990000Y-90500000D03*
X217010000Y-90500000D03*
%TD*%
D16*
%TO.C,R8*%
X71750000Y-88010000D03*
X71750000Y-86990000D03*
%TD*%
D42*
%TO.C,C9*%
X240000000Y-111980000D03*
X240000000Y-111020000D03*
%TD*%
D28*
%TO.C,D5*%
X232180000Y-94750000D03*
X232820000Y-94750000D03*
%TD*%
D33*
%TO.C,R16*%
X243260000Y-110800000D03*
X242240000Y-110800000D03*
%TD*%
D34*
%TO.C,C42*%
X58775000Y-120450000D03*
X57225000Y-120450000D03*
%TD*%
D16*
%TO.C,R19*%
X218730000Y-102580000D03*
X218730000Y-101560000D03*
%TD*%
D44*
%TO.C,U5*%
X216387500Y-112650000D03*
X216387500Y-111700000D03*
X216387500Y-110750000D03*
X214112500Y-110750000D03*
X214112500Y-112650000D03*
%TD*%
D14*
%TO.C,D6*%
X217025000Y-108700000D03*
X217975000Y-108700000D03*
%TD*%
D13*
%TO.C,R39*%
X244950000Y-116890000D03*
X244950000Y-117910000D03*
%TD*%
%TO.C,R21*%
X197750000Y-88740000D03*
X197750000Y-89760000D03*
%TD*%
D42*
%TO.C,C6*%
X219930000Y-98500000D03*
X219930000Y-97540000D03*
%TD*%
D38*
%TO.C,R32*%
X77490000Y-99075000D03*
X78510000Y-99075000D03*
%TD*%
D34*
%TO.C,C39*%
X159275000Y-120450000D03*
X157725000Y-120450000D03*
%TD*%
D18*
%TO.C,C2*%
X221020000Y-81500000D03*
X221980000Y-81500000D03*
%TD*%
D45*
%TO.C,R1*%
X248500000Y-87425000D03*
X248500000Y-89075000D03*
%TD*%
D13*
%TO.C,R40*%
X242450000Y-116890000D03*
X242450000Y-117910000D03*
%TD*%
D16*
%TO.C,R36*%
X74750000Y-110510000D03*
X74750000Y-109490000D03*
%TD*%
D46*
%TO.C,U3*%
X199050000Y-86095000D03*
X199050000Y-87365000D03*
X199050000Y-88635000D03*
X199050000Y-89905000D03*
X204450000Y-89905000D03*
X204450000Y-88635000D03*
X204450000Y-87365000D03*
X204450000Y-86095000D03*
D47*
X201750000Y-88000000D03*
%TD*%
D29*
%TO.C,D18*%
X75570000Y-112500000D03*
X74930000Y-112500000D03*
%TD*%
D33*
%TO.C,R23*%
X215510000Y-108750000D03*
X214490000Y-108750000D03*
%TD*%
D15*
%TO.C,C35*%
X221750000Y-114425000D03*
X221750000Y-115975000D03*
%TD*%
D19*
%TO.C,C19*%
X207750000Y-103770000D03*
X207750000Y-104730000D03*
%TD*%
%TO.C,C16*%
X209450000Y-100770000D03*
X209450000Y-101730000D03*
%TD*%
D48*
%TO.C,Y2*%
X209300000Y-103850000D03*
X209300000Y-110150000D03*
X210200000Y-110150000D03*
X210200000Y-103850000D03*
%TD*%
D38*
%TO.C,R37*%
X79490000Y-95500000D03*
X80510000Y-95500000D03*
%TD*%
D49*
%TO.C,BT1*%
X115000000Y-85500000D03*
X115000000Y-114500000D03*
%TD*%
D33*
%TO.C,FB1*%
X211660000Y-100750000D03*
X210640000Y-100750000D03*
%TD*%
D50*
%TO.C,L1*%
X250250000Y-89815000D03*
X250250000Y-90785000D03*
%TD*%
D38*
%TO.C,R17*%
X223490000Y-90500000D03*
X224510000Y-90500000D03*
%TD*%
D42*
%TO.C,C24*%
X100000000Y-99980000D03*
X100000000Y-99020000D03*
%TD*%
D51*
%TO.C,U4*%
X206162500Y-102750000D03*
X206162500Y-102250000D03*
X206162500Y-101750000D03*
X206162500Y-101250000D03*
X206162500Y-100750000D03*
X206162500Y-100250000D03*
X206162500Y-99750000D03*
X206162500Y-99250000D03*
X206162500Y-98750000D03*
X206162500Y-98250000D03*
X206162500Y-97750000D03*
X206162500Y-97250000D03*
D52*
X204750000Y-95837500D03*
X204250000Y-95837500D03*
X203750000Y-95837500D03*
X203250000Y-95837500D03*
X202750000Y-95837500D03*
X202250000Y-95837500D03*
X201750000Y-95837500D03*
X201250000Y-95837500D03*
X200750000Y-95837500D03*
X200250000Y-95837500D03*
X199750000Y-95837500D03*
X199250000Y-95837500D03*
D51*
X197837500Y-97250000D03*
X197837500Y-97750000D03*
X197837500Y-98250000D03*
X197837500Y-98750000D03*
X197837500Y-99250000D03*
X197837500Y-99750000D03*
X197837500Y-100250000D03*
X197837500Y-100750000D03*
X197837500Y-101250000D03*
X197837500Y-101750000D03*
X197837500Y-102250000D03*
X197837500Y-102750000D03*
D52*
X199250000Y-104162500D03*
X199750000Y-104162500D03*
X200250000Y-104162500D03*
X200750000Y-104162500D03*
X201250000Y-104162500D03*
X201750000Y-104162500D03*
X202250000Y-104162500D03*
X202750000Y-104162500D03*
X203250000Y-104162500D03*
X203750000Y-104162500D03*
X204250000Y-104162500D03*
X204750000Y-104162500D03*
%TD*%
D35*
%TO.C,SW2*%
X221780000Y-102500000D03*
X225180000Y-102500000D03*
%TD*%
D40*
%TO.C,C28*%
X72730000Y-91500000D03*
X71770000Y-91500000D03*
%TD*%
D15*
%TO.C,C15*%
X213250000Y-100725000D03*
X213250000Y-102275000D03*
%TD*%
D38*
%TO.C,R22*%
X209240000Y-114250000D03*
X210260000Y-114250000D03*
%TD*%
D32*
%TO.C,TP4*%
X77000000Y-104000000D03*
%TD*%
D38*
%TO.C,R28*%
X74740000Y-95500000D03*
X75760000Y-95500000D03*
%TD*%
D33*
%TO.C,R29*%
X78510000Y-100575000D03*
X77490000Y-100575000D03*
%TD*%
D40*
%TO.C,C25*%
X69730000Y-91500000D03*
X68770000Y-91500000D03*
%TD*%
D34*
%TO.C,C32*%
X225775000Y-120450000D03*
X224225000Y-120450000D03*
%TD*%
D38*
%TO.C,R33*%
X77240000Y-95500000D03*
X78260000Y-95500000D03*
%TD*%
D53*
%TO.C,Q1*%
X227900000Y-109700000D03*
X227250000Y-109700000D03*
X226600000Y-109700000D03*
X225950000Y-109700000D03*
D54*
X226925000Y-111655000D03*
%TD*%
D14*
%TO.C,D2*%
X245275000Y-106000000D03*
X244325000Y-106000000D03*
%TD*%
D55*
%TO.C,D9*%
X218630000Y-97700000D03*
X218630000Y-98340000D03*
%TD*%
D56*
%TO.C,U7*%
X136425000Y-102875000D03*
X137075000Y-102875000D03*
X137725000Y-102875000D03*
X138375000Y-102875000D03*
X139025000Y-102875000D03*
X139675000Y-102875000D03*
X140325000Y-102875000D03*
X140975000Y-102875000D03*
X141625000Y-102875000D03*
X142275000Y-102875000D03*
X142925000Y-102875000D03*
X143575000Y-102875000D03*
X143575000Y-97125000D03*
X142925000Y-97125000D03*
X142275000Y-97125000D03*
X141625000Y-97125000D03*
X140975000Y-97125000D03*
X140325000Y-97125000D03*
X139675000Y-97125000D03*
X139025000Y-97125000D03*
X138375000Y-97125000D03*
X137725000Y-97125000D03*
X137075000Y-97125000D03*
X136425000Y-97125000D03*
D57*
X140000000Y-100000000D03*
%TD*%
D42*
%TO.C,C22*%
X155250000Y-97680000D03*
X155250000Y-96720000D03*
%TD*%
D29*
%TO.C,D15*%
X69570000Y-112500000D03*
X68930000Y-112500000D03*
%TD*%
D18*
%TO.C,C5*%
X250270000Y-98500000D03*
X251230000Y-98500000D03*
%TD*%
D33*
%TO.C,R24*%
X198260000Y-107000000D03*
X197240000Y-107000000D03*
%TD*%
D28*
%TO.C,D7*%
X238680000Y-105250000D03*
X239320000Y-105250000D03*
%TD*%
D14*
%TO.C,D11*%
X209275000Y-112750000D03*
X210225000Y-112750000D03*
%TD*%
D16*
%TO.C,R35*%
X76250000Y-110510000D03*
X76250000Y-109490000D03*
%TD*%
D58*
%TO.C,Q2*%
X221025000Y-112700000D03*
X221675000Y-112700000D03*
X222325000Y-112700000D03*
X222975000Y-112700000D03*
D59*
X222000000Y-110745000D03*
%TD*%
D34*
%TO.C,C37*%
X192775000Y-120450000D03*
X191225000Y-120450000D03*
%TD*%
D38*
%TO.C,R5*%
X205740000Y-87500000D03*
X206760000Y-87500000D03*
%TD*%
D15*
%TO.C,C10*%
X235000000Y-109425000D03*
X235000000Y-110975000D03*
%TD*%
D19*
%TO.C,C31*%
X243700000Y-116920000D03*
X243700000Y-117880000D03*
%TD*%
D42*
%TO.C,C23*%
X135250000Y-97680000D03*
X135250000Y-96720000D03*
%TD*%
D33*
%TO.C,R12*%
X243260000Y-112050000D03*
X242240000Y-112050000D03*
%TD*%
D60*
%TO.C,D1*%
X245862500Y-110050000D03*
X245862500Y-111000000D03*
X245862500Y-111950000D03*
X248137500Y-111950000D03*
X248137500Y-110050000D03*
%TD*%
D33*
%TO.C,R4*%
X197760000Y-86000000D03*
X196740000Y-86000000D03*
%TD*%
D15*
%TO.C,C11*%
X230000000Y-111675000D03*
X230000000Y-113225000D03*
%TD*%
D14*
%TO.C,D12*%
X214475000Y-90500000D03*
X213525000Y-90500000D03*
%TD*%
D16*
%TO.C,R38*%
X71750000Y-110510000D03*
X71750000Y-109490000D03*
%TD*%
D32*
%TO.C,TP1*%
X219433792Y-78000000D03*
%TD*%
D34*
%TO.C,C40*%
X125775000Y-120450000D03*
X124225000Y-120450000D03*
%TD*%
D61*
%TO.C,U1*%
X236500000Y-83100000D03*
D62*
X236500000Y-84200000D03*
X236500000Y-85300000D03*
X236500000Y-86400000D03*
X236500000Y-87500000D03*
X236500000Y-88600000D03*
X236500000Y-89700000D03*
X236500000Y-90800000D03*
D61*
X236500000Y-91900000D03*
X246000000Y-91900000D03*
D62*
X246000000Y-90800000D03*
X246000000Y-89700000D03*
X246000000Y-88600000D03*
X246000000Y-87500000D03*
X246000000Y-86400000D03*
X246000000Y-85300000D03*
X246000000Y-84200000D03*
D61*
X246000000Y-83100000D03*
%TD*%
D40*
%TO.C,C26*%
X75960000Y-91505000D03*
X75000000Y-91505000D03*
%TD*%
D16*
%TO.C,R6*%
X76250000Y-88010000D03*
X76250000Y-86990000D03*
%TD*%
D42*
%TO.C,C12*%
X237400000Y-111980000D03*
X237400000Y-111020000D03*
%TD*%
D16*
%TO.C,R10*%
X73250000Y-88010000D03*
X73250000Y-86990000D03*
%TD*%
D33*
%TO.C,R27*%
X136260000Y-95500000D03*
X135240000Y-95500000D03*
%TD*%
D16*
%TO.C,R11*%
X68750000Y-88010000D03*
X68750000Y-86990000D03*
%TD*%
D40*
%TO.C,C27*%
X72730000Y-114250000D03*
X71770000Y-114250000D03*
%TD*%
D63*
%TO.C,J1*%
X255180000Y-88500000D03*
D64*
X255180000Y-92880000D03*
X255180000Y-84120000D03*
%TD*%
D56*
%TO.C,U6*%
X176425000Y-102875000D03*
X177075000Y-102875000D03*
X177725000Y-102875000D03*
X178375000Y-102875000D03*
X179025000Y-102875000D03*
X179675000Y-102875000D03*
X180325000Y-102875000D03*
X180975000Y-102875000D03*
X181625000Y-102875000D03*
X182275000Y-102875000D03*
X182925000Y-102875000D03*
X183575000Y-102875000D03*
X183575000Y-97125000D03*
X182925000Y-97125000D03*
X182275000Y-97125000D03*
X181625000Y-97125000D03*
X180975000Y-97125000D03*
X180325000Y-97125000D03*
X179675000Y-97125000D03*
X179025000Y-97125000D03*
X178375000Y-97125000D03*
X177725000Y-97125000D03*
X177075000Y-97125000D03*
X176425000Y-97125000D03*
D57*
X180000000Y-100000000D03*
%TD*%
D18*
%TO.C,C3*%
X205790000Y-86000000D03*
X206750000Y-86000000D03*
%TD*%
D56*
%TO.C,U8*%
X156425000Y-102875000D03*
X157075000Y-102875000D03*
X157725000Y-102875000D03*
X158375000Y-102875000D03*
X159025000Y-102875000D03*
X159675000Y-102875000D03*
X160325000Y-102875000D03*
X160975000Y-102875000D03*
X161625000Y-102875000D03*
X162275000Y-102875000D03*
X162925000Y-102875000D03*
X163575000Y-102875000D03*
X163575000Y-97125000D03*
X162925000Y-97125000D03*
X162275000Y-97125000D03*
X161625000Y-97125000D03*
X160975000Y-97125000D03*
X160325000Y-97125000D03*
X159675000Y-97125000D03*
X159025000Y-97125000D03*
X158375000Y-97125000D03*
X157725000Y-97125000D03*
X157075000Y-97125000D03*
X156425000Y-97125000D03*
D57*
X160000000Y-100000000D03*
%TD*%
D38*
%TO.C,R2*%
X220990000Y-80250000D03*
X222010000Y-80250000D03*
%TD*%
D19*
%TO.C,C20*%
X208250000Y-100770000D03*
X208250000Y-101730000D03*
%TD*%
D31*
%TO.C,U12*%
X138376620Y-120320000D03*
X135836620Y-120320000D03*
X133296620Y-120320000D03*
X130756620Y-120320000D03*
X128216620Y-120320000D03*
X128216620Y-79680000D03*
X130756620Y-79680000D03*
X133296620Y-79680000D03*
X135836620Y-79680000D03*
X138376620Y-79680000D03*
%TD*%
%TO.C,U11*%
X104978310Y-120320000D03*
X102438310Y-120320000D03*
X99898310Y-120320000D03*
X97358310Y-120320000D03*
X94818310Y-120320000D03*
X94818310Y-79680000D03*
X97358310Y-79680000D03*
X99898310Y-79680000D03*
X102438310Y-79680000D03*
X104978310Y-79680000D03*
%TD*%
%TO.C,U10*%
X71580000Y-120320000D03*
X69040000Y-120320000D03*
X66500000Y-120320000D03*
X63960000Y-120320000D03*
X61420000Y-120320000D03*
X61420000Y-79680000D03*
X63960000Y-79680000D03*
X66500000Y-79680000D03*
X69040000Y-79680000D03*
X71580000Y-79680000D03*
%TD*%
%TO.C,U15*%
X238571550Y-120320000D03*
X236031550Y-120320000D03*
X233491550Y-120320000D03*
X230951550Y-120320000D03*
X228411550Y-120320000D03*
X228411550Y-79680000D03*
X230951550Y-79680000D03*
X233491550Y-79680000D03*
X236031550Y-79680000D03*
X238571550Y-79680000D03*
%TD*%
%TO.C,U14*%
X205173240Y-120320000D03*
X202633240Y-120320000D03*
X200093240Y-120320000D03*
X197553240Y-120320000D03*
X195013240Y-120320000D03*
X195013240Y-79680000D03*
X197553240Y-79680000D03*
X200093240Y-79680000D03*
X202633240Y-79680000D03*
X205173240Y-79680000D03*
%TD*%
D65*
%TO.C,Q4*%
X253750000Y-100000000D03*
D17*
X256290000Y-100000000D03*
%TD*%
D31*
%TO.C,U13*%
X171774930Y-120320000D03*
X169234930Y-120320000D03*
X166694930Y-120320000D03*
X164154930Y-120320000D03*
X161614930Y-120320000D03*
X161614930Y-79680000D03*
X164154930Y-79680000D03*
X166694930Y-79680000D03*
X169234930Y-79680000D03*
X171774930Y-79680000D03*
%TD*%
M02*
