M48
; DRILL file {KiCad 9.0.7} date 2026-03-11T17:32:15+0900
; FORMAT={-:-/ absolute / inch / decimal}
; #@! TF.CreationDate,2026-03-11T17:32:15+09:00
; #@! TF.GenerationSoftware,Kicad,Pcbnew,9.0.7
; #@! TF.FileFunction,Plated,1,4,PTH
FMAT,2
INCH
; #@! TA.AperFunction,Plated,PTH,ViaDrill
T1C0.0118
; #@! TA.AperFunction,Plated,PTH,ComponentDrill
T2C0.0181
; #@! TA.AperFunction,Plated,PTH,ComponentDrill
T3C0.0236
; #@! TA.AperFunction,Plated,PTH,ComponentDrill
T4C0.0315
; #@! TA.AperFunction,Plated,PTH,ComponentDrill
T5C0.0354
; #@! TA.AperFunction,Plated,PTH,ComponentDrill
T6C0.0394
%
G90
G05
T1
X2.1969Y-4.7087
X2.1969Y-4.7402
X2.1969Y-4.7717
X2.364Y-3.8789
X2.3935Y-3.8789
X2.6673Y-3.5435
X2.6673Y-3.6026
X2.6673Y-4.4291
X2.6673Y-4.498
X2.7067Y-3.5039
X2.7067Y-4.3898
X2.7165Y-3.9301
X2.7165Y-3.9596
X2.7165Y-3.9892
X2.7453Y-4.5563
X2.7461Y-3.6518
X2.7854Y-3.5435
X2.7854Y-3.6026
X2.7854Y-4.4291
X2.7854Y-4.498
X2.8248Y-3.5039
X2.8248Y-4.3898
X2.8634Y-4.5563
X2.8642Y-3.6518
X2.8642Y-3.9006
X2.8839Y-3.3366
X2.8839Y-4.2224
X2.9035Y-4.4291
X2.9035Y-4.498
X2.9134Y-3.5435
X2.9134Y-3.6026
X2.9429Y-3.5039
X2.9429Y-4.3898
X2.9815Y-4.5563
X2.9921Y-3.6518
X3.002Y-3.3366
X3.002Y-4.2224
X3.2283Y-4.3307
X3.5118Y-4.7087
X3.5118Y-4.7402
X3.5128Y-4.7717
X3.6614Y-3.8484
X3.7106Y-3.8976
X4.0059Y-4.5079
X4.1339Y-4.4094
X4.2618Y-4.5079
X4.3504Y-3.3661
X4.4094Y-3.2362
X4.4134Y-3.685
X4.498Y-3.685
X4.5669Y-3.7106
X4.6654Y-3.3661
X4.8346Y-4.7087
X4.8346Y-4.7402
X4.8346Y-4.7717
X5.4646Y-4.3307
X5.5039Y-4.3071
X5.8071Y-3.7795
X5.8504Y-3.811
X5.8553Y-3.8967
X5.8661Y-3.748
X5.8957Y-3.748
X5.9055Y-3.8976
X5.9055Y-4.1181
X5.9134Y-4.0354
X5.9134Y-4.0669
X5.9154Y-4.0039
X5.9449Y-4.2992
X5.9606Y-3.8976
X6.0315Y-4.1417
X6.0384Y-3.7392
X6.1575Y-4.7087
X6.1575Y-4.7402
X6.1575Y-4.7717
X6.2598Y-3.3228
X6.3228Y-3.3937
X6.3937Y-3.7559
X6.3937Y-3.8976
X6.3976Y-4.3898
X6.4055Y-4.0039
X6.4055Y-4.0354
X6.4055Y-4.0669
X6.4055Y-4.0984
X6.4272Y-3.5807
X6.4331Y-3.7008
X6.4537Y-3.8976
X6.4764Y-3.7087
X6.4764Y-4.3898
X6.4961Y-3.5827
X6.5305Y-3.7402
X6.5512Y-4.4783
X6.5551Y-3.5827
X6.5551Y-4.1437
X6.5817Y-4.1142
X6.6329Y-3.7677
X6.6585Y-3.7402
X6.6841Y-3.7077
X6.8504Y-3.2835
X6.8819Y-3.7559
X6.8898Y-3.8898
X6.8976Y-4.0039
X6.8976Y-4.0354
X6.8976Y-4.0669
X6.8976Y-4.0984
X6.9291Y-3.7087
X6.9449Y-3.8898
X6.9843Y-3.6516
X7.0079Y-3.6909
X7.0482Y-4.1516
X7.0571Y-4.3602
X7.0738Y-4.1191
X7.125Y-3.7106
X7.1506Y-3.7402
X7.1762Y-3.7717
X7.2539Y-4.3898
X7.2736Y-4.5079
X7.3819Y-3.2283
X7.4094Y-3.7165
X7.4094Y-3.7559
X7.4094Y-3.7953
X7.4094Y-3.8346
X7.4094Y-3.874
X7.4094Y-3.9134
X7.4094Y-3.9528
X7.4094Y-3.9961
X7.4094Y-4.0394
X7.4094Y-4.0787
X7.4646Y-4.1181
X7.4646Y-4.1535
X7.4724Y-4.7087
X7.4724Y-4.7402
X7.4724Y-4.7717
X7.5039Y-4.0453
X7.5295Y-3.5335
X7.5394Y-4.0059
X7.5433Y-3.7402
X7.5787Y-4.2126
X7.5876Y-4.0837
X7.6083Y-4.2402
X7.6136Y-4.3057
X7.6191Y-3.6407
X7.6555Y-4.3032
X7.6604Y-4.1297
X7.6614Y-3.4705
X7.6693Y-3.5276
X7.6772Y-4.1634
X7.6929Y-3.7008
X7.7323Y-3.5669
X7.7323Y-4.3307
X7.7362Y-4.0059
X7.7362Y-4.065
X7.7559Y-3.7992
X7.7638Y-3.8661
X7.7657Y-4.0354
X7.7657Y-4.0945
X7.7793Y-3.3384
X7.7795Y-3.3884
X7.7795Y-3.4409
X7.7795Y-3.4882
X7.7874Y-4.3297
X7.8268Y-4.2835
X7.8406Y-4.0
X7.8543Y-4.311
X7.8583Y-3.8504
X7.8661Y-3.6299
X7.8799Y-4.3366
X7.8976Y-3.5827
X7.9035Y-3.8484
X7.9094Y-4.3661
X7.9331Y-3.6299
X7.9331Y-4.1043
X7.9429Y-4.0059
X7.9606Y-3.5827
X7.9626Y-4.3406
X7.9724Y-3.9114
X7.9823Y-4.1043
X7.9843Y-3.3384
X7.9843Y-3.3937
X7.9843Y-3.8346
X7.9921Y-3.6122
X7.9921Y-3.7874
X8.002Y-4.311
X8.0236Y-3.9094
X8.0315Y-3.6122
X8.0315Y-4.1043
X8.0413Y-3.8366
X8.0413Y-3.9941
X8.0787Y-4.2224
X8.0866Y-4.3031
X8.0866Y-4.3307
X8.1373Y-3.7279
X8.1496Y-3.3362
X8.1496Y-3.376
X8.1791Y-3.7795
X8.1791Y-4.2165
X8.1811Y-3.8976
X8.189Y-3.376
X8.2126Y-3.8976
X8.2185Y-4.2165
X8.2283Y-3.7795
X8.248Y-3.6614
X8.2598Y-3.8976
X8.2717Y-4.1102
X8.2776Y-4.5571
X8.2874Y-3.563
X8.315Y-3.9173
X8.3169Y-3.7894
X8.3366Y-4.437
X8.3366Y-4.4665
X8.3366Y-4.4961
X8.3366Y-4.5571
X8.3622Y-3.937
X8.3622Y-3.9843
X8.3661Y-4.437
X8.3661Y-4.4665
X8.3661Y-4.4961
X8.3661Y-4.5571
X8.4055Y-3.1594
X8.4252Y-4.2165
X8.435Y-3.3071
X8.4744Y-4.0079
X8.4744Y-4.5571
X8.4941Y-3.2283
X8.4941Y-3.2677
X8.5472Y-3.5394
X8.5472Y-3.5866
X8.5543Y-3.8504
X8.563Y-3.9961
X8.5728Y-4.5571
X8.5748Y-4.4331
X8.5748Y-4.4646
X8.5827Y-4.3307
X8.5827Y-4.3898
X8.6024Y-3.9173
X8.6063Y-4.4331
X8.6063Y-4.4646
X8.6063Y-4.4961
X8.6122Y-4.3602
X8.6122Y-4.3898
X8.6378Y-4.4331
X8.6378Y-4.4646
X8.6378Y-4.4961
X8.6417Y-4.3307
X8.6417Y-4.3602
X8.6417Y-4.3898
X8.6606Y-4.1228
X8.6614Y-3.1201
X8.6614Y-3.9173
X8.6693Y-4.4961
X8.7008Y-3.2579
X8.7697Y-4.7087
X8.7697Y-4.7402
X8.7697Y-4.7697
X8.7795Y-3.1594
X8.7795Y-3.2087
X8.7894Y-4.5472
X8.7984Y-3.8386
X8.7984Y-4.0157
X8.8091Y-3.3957
X8.8189Y-4.5472
X8.8386Y-4.3189
X8.8686Y-4.5271
X8.8976Y-3.3071
X8.9567Y-3.3465
X9.0157Y-4.3543
X9.065Y-4.5118
X9.1142Y-4.5118
X9.1339Y-3.4449
X9.1398Y-4.0945
X9.1634Y-3.5925
X9.1642Y-3.5539
X9.2028Y-3.7677
X9.2028Y-4.1043
X9.2028Y-4.4252
X9.2047Y-4.5197
X9.2224Y-3.6378
X9.2323Y-4.4252
X9.2506Y-4.5152
X9.2598Y-4.5984
X9.2717Y-4.1043
X9.2913Y-4.5984
X9.2933Y-3.7677
X9.2992Y-4.4252
X9.3012Y-4.3071
X9.3386Y-4.5984
X9.3406Y-3.7677
X9.3413Y-4.0945
X9.3878Y-3.5315
X9.3878Y-3.5748
X9.3898Y-3.2677
X9.3898Y-3.3071
X9.3913Y-3.7677
X9.3913Y-4.0945
X9.3976Y-4.3701
X9.3976Y-4.4094
X9.4016Y-4.5984
X9.4587Y-4.1043
X9.4921Y-4.3701
X9.4921Y-4.4094
X9.4961Y-4.685
X9.5748Y-4.1732
X9.5945Y-4.685
X9.6063Y-3.2283
X9.6063Y-3.2677
X9.6063Y-3.3071
X9.6063Y-3.3465
X9.6063Y-3.3858
X9.6063Y-3.4252
X9.6063Y-3.4646
X9.6063Y-3.5039
X9.6063Y-3.5433
X9.6063Y-3.5827
X9.6063Y-3.622
X9.626Y-3.6614
X9.6299Y-4.3307
X9.6299Y-4.3701
X9.6299Y-4.4094
X9.6299Y-4.5276
X9.6457Y-3.2283
X9.6654Y-3.6614
X9.6654Y-4.5571
X9.6693Y-4.4567
X9.6693Y-4.5118
X9.685Y-3.2283
X9.7047Y-3.6614
X9.7244Y-3.2283
X9.7441Y-3.6614
X9.7441Y-3.878
X9.7441Y-4.4685
X9.7441Y-4.498
X9.7465Y-3.9543
X9.7638Y-3.2283
X9.7638Y-3.2677
X9.7638Y-3.3071
X9.7638Y-3.3465
X9.7638Y-3.3858
X9.7736Y-4.2618
X9.7736Y-4.2913
X9.7736Y-4.4685
X9.7736Y-4.498
X9.7835Y-3.622
X9.8031Y-3.3858
X9.8031Y-4.1732
X9.8031Y-4.2618
X9.8031Y-4.2913
X9.8031Y-4.4685
X9.8031Y-4.498
X9.8228Y-3.622
X9.8228Y-4.3602
X9.8327Y-4.2618
X9.8327Y-4.2913
X9.8425Y-3.3858
X9.8524Y-4.3912
X9.8622Y-3.622
X9.8819Y-3.3858
X9.8917Y-3.8287
X9.8917Y-4.3504
X9.9016Y-3.4252
X9.9016Y-3.4646
X9.9016Y-3.5039
X9.9016Y-3.5433
X9.9016Y-3.6024
X10.0236Y-4.3209
X10.0295Y-4.3799
T2
X9.911Y-3.3118
X9.911Y-3.6567
T4
X3.0709Y-3.937
X3.4646Y-3.937
T5
X9.9902Y-3.937
X10.0902Y-3.937
T6
X2.2835Y-3.3957
X2.2835Y-3.4941
X2.2835Y-3.5925
X2.2835Y-4.2815
X2.2835Y-4.3799
X2.2835Y-4.4783
X2.4181Y-3.137
X2.4181Y-4.737
X2.4803Y-3.3957
X2.4803Y-3.5925
X2.4803Y-4.2815
X2.4803Y-4.4783
X2.5181Y-3.137
X2.5181Y-4.737
X2.6181Y-3.137
X2.6181Y-4.737
X2.7181Y-3.137
X2.7181Y-4.737
X2.8181Y-3.137
X2.8181Y-4.737
X3.733Y-3.137
X3.733Y-4.737
X3.833Y-3.137
X3.833Y-4.737
X3.933Y-3.137
X3.933Y-4.737
X4.033Y-3.137
X4.033Y-4.737
X4.133Y-3.137
X4.133Y-4.737
X5.0479Y-3.137
X5.0479Y-4.737
X5.1479Y-3.137
X5.1479Y-4.737
X5.2479Y-3.137
X5.2479Y-4.737
X5.3479Y-3.137
X5.3479Y-4.737
X5.4479Y-3.137
X5.4479Y-4.737
X6.3628Y-3.137
X6.3628Y-4.737
X6.4628Y-3.137
X6.4628Y-4.737
X6.5628Y-3.137
X6.5628Y-4.737
X6.6628Y-3.137
X6.6628Y-4.737
X6.7628Y-3.137
X6.7628Y-4.737
X7.6777Y-3.137
X7.6777Y-4.737
X7.7777Y-3.137
X7.7777Y-4.737
X7.8777Y-3.137
X7.8777Y-4.737
X7.9777Y-3.137
X7.9777Y-4.737
X8.0777Y-3.137
X8.0777Y-4.737
X8.9926Y-3.137
X8.9926Y-4.737
X9.0926Y-3.137
X9.0926Y-4.737
X9.1926Y-3.137
X9.1926Y-4.737
X9.2926Y-3.137
X9.2926Y-4.737
X9.3926Y-3.137
X9.3926Y-4.737
T3
G00X9.9289Y-4.2
M15
G01X9.9683Y-4.2
M16
G05
G00X9.9289Y-4.5402
M15
G01X9.9683Y-4.5402
M16
G05
G00X10.1301Y-4.2
M15
G01X10.1892Y-4.2
M16
G05
G00X10.1301Y-4.5402
M15
G01X10.1892Y-4.5402
M16
G05
M30
